%TF.GenerationSoftware,KiCad,Pcbnew,6.0.8-f2edbf62ab~116~ubuntu22.04.1*%
%TF.CreationDate,2022-10-13T11:50:10+02:00*%
%TF.ProjectId,Dual USB Controller adapter,4475616c-2055-4534-9220-436f6e74726f,0.3*%
%TF.SameCoordinates,Original*%
%TF.FileFunction,Drillmap*%
%TF.FilePolarity,Positive*%
%FSLAX45Y45*%
G04 Gerber Fmt 4.5, Leading zero omitted, Abs format (unit mm)*
G04 Created by KiCad (PCBNEW 6.0.8-f2edbf62ab~116~ubuntu22.04.1) date 2022-10-13 11:50:10*
%MOMM*%
%LPD*%
G01*
G04 APERTURE LIST*
%ADD10C,0.100000*%
%ADD11C,0.200000*%
%ADD12C,0.040000*%
%ADD13C,0.080000*%
%ADD14C,0.090000*%
%ADD15C,0.230000*%
G04 APERTURE END LIST*
D10*
X19939000Y-6286500D02*
X16446500Y-6286500D01*
X16446500Y-9906000D02*
X19939000Y-9906000D01*
X16446500Y-6286500D02*
X16446500Y-9906000D01*
X19939000Y-9906000D02*
X19939000Y-6286500D01*
D11*
D12*
X17125000Y-7600000D02*
X17165000Y-7640000D01*
X17165000Y-7600000D02*
X17125000Y-7640000D01*
X17125000Y-9314500D02*
X17165000Y-9354500D01*
X17165000Y-9314500D02*
X17125000Y-9354500D01*
X17315499Y-7219000D02*
X17355499Y-7259000D01*
X17355499Y-7219000D02*
X17315499Y-7259000D01*
X17353600Y-7028500D02*
X17393600Y-7068500D01*
X17393600Y-7028500D02*
X17353600Y-7068500D01*
X17379000Y-7409500D02*
X17419000Y-7449500D01*
X17419000Y-7409500D02*
X17379000Y-7449500D01*
X17791750Y-8552500D02*
X17831750Y-8592500D01*
X17831750Y-8552500D02*
X17791750Y-8592500D01*
X18077500Y-8870000D02*
X18117500Y-8910000D01*
X18117500Y-8870000D02*
X18077500Y-8910000D01*
X18109250Y-7917500D02*
X18149250Y-7957500D01*
X18149250Y-7917500D02*
X18109250Y-7957500D01*
X18109250Y-8006400D02*
X18149250Y-8046400D01*
X18149250Y-8006400D02*
X18109250Y-8046400D01*
X18141000Y-8171500D02*
X18181000Y-8211500D01*
X18181000Y-8171500D02*
X18141000Y-8211500D01*
X18141000Y-9378000D02*
X18181000Y-9418000D01*
X18181000Y-9378000D02*
X18141000Y-9418000D01*
X18198150Y-7441250D02*
X18238150Y-7481250D01*
X18238150Y-7441250D02*
X18198150Y-7481250D01*
X18204500Y-6711000D02*
X18244500Y-6751000D01*
X18244500Y-6711000D02*
X18204500Y-6751000D01*
X18204500Y-9441500D02*
X18244500Y-9481500D01*
X18244500Y-9441500D02*
X18204500Y-9481500D01*
X18252500Y-7885750D02*
X18292500Y-7925750D01*
X18292500Y-7885750D02*
X18252500Y-7925750D01*
X18252500Y-8317550D02*
X18292500Y-8357550D01*
X18292500Y-8317550D02*
X18252500Y-8357550D01*
X18252500Y-8552500D02*
X18292500Y-8592500D01*
X18292500Y-8552500D02*
X18252500Y-8592500D01*
X18268000Y-8997000D02*
X18308000Y-9037000D01*
X18308000Y-8997000D02*
X18268000Y-9037000D01*
X18280700Y-7790500D02*
X18320700Y-7830500D01*
X18320700Y-7790500D02*
X18280700Y-7830500D01*
X18331500Y-9441500D02*
X18371500Y-9481500D01*
X18371500Y-9441500D02*
X18331500Y-9481500D01*
X18378262Y-7789029D02*
X18418262Y-7829029D01*
X18418262Y-7789029D02*
X18378262Y-7829029D01*
X18382300Y-7447600D02*
X18422300Y-7487600D01*
X18422300Y-7447600D02*
X18382300Y-7487600D01*
X18541050Y-8171500D02*
X18581050Y-8211500D01*
X18581050Y-8171500D02*
X18541050Y-8211500D01*
X18587944Y-9443944D02*
X18627944Y-9483944D01*
X18627944Y-9443944D02*
X18587944Y-9483944D01*
X18632500Y-8933500D02*
X18672500Y-8973500D01*
X18672500Y-8933500D02*
X18632500Y-8973500D01*
X18680750Y-6711000D02*
X18720750Y-6751000D01*
X18720750Y-6711000D02*
X18680750Y-6751000D01*
X18680750Y-6933250D02*
X18720750Y-6973250D01*
X18720750Y-6933250D02*
X18680750Y-6973250D01*
X18712500Y-8933500D02*
X18752500Y-8973500D01*
X18752500Y-8933500D02*
X18712500Y-8973500D01*
X18712500Y-9441500D02*
X18752500Y-9481500D01*
X18752500Y-9441500D02*
X18712500Y-9481500D01*
X18750600Y-8603300D02*
X18790600Y-8643300D01*
X18790600Y-8603300D02*
X18750600Y-8643300D01*
X18796803Y-8936762D02*
X18836803Y-8976762D01*
X18836803Y-8936762D02*
X18796803Y-8976762D01*
X18839500Y-7917500D02*
X18879500Y-7957500D01*
X18879500Y-7917500D02*
X18839500Y-7957500D01*
X18839500Y-9441500D02*
X18879500Y-9481500D01*
X18879500Y-9441500D02*
X18839500Y-9481500D01*
X18890300Y-8933500D02*
X18930300Y-8973500D01*
X18930300Y-8933500D02*
X18890300Y-8973500D01*
X18934750Y-7314250D02*
X18974750Y-7354250D01*
X18974750Y-7314250D02*
X18934750Y-7354250D01*
X18960500Y-9441500D02*
X19000500Y-9481500D01*
X19000500Y-9441500D02*
X18960500Y-9481500D01*
X18966500Y-6711000D02*
X19006500Y-6751000D01*
X19006500Y-6711000D02*
X18966500Y-6751000D01*
X18966500Y-8616000D02*
X19006500Y-8656000D01*
X19006500Y-8616000D02*
X18966500Y-8656000D01*
X19061750Y-7085650D02*
X19101750Y-7125650D01*
X19101750Y-7085650D02*
X19061750Y-7125650D01*
X19093500Y-9441500D02*
X19133500Y-9481500D01*
X19133500Y-9441500D02*
X19093500Y-9481500D01*
X19284000Y-7790500D02*
X19324000Y-7830500D01*
X19324000Y-7790500D02*
X19284000Y-7830500D01*
X19296700Y-8273100D02*
X19336700Y-8313100D01*
X19336700Y-8273100D02*
X19296700Y-8313100D01*
X19474500Y-7854000D02*
X19514500Y-7894000D01*
X19514500Y-7854000D02*
X19474500Y-7894000D01*
X19474500Y-8273100D02*
X19514500Y-8313100D01*
X19514500Y-8273100D02*
X19474500Y-8313100D01*
X19474500Y-8489000D02*
X19514500Y-8529000D01*
X19514500Y-8489000D02*
X19474500Y-8529000D01*
X19474500Y-9060500D02*
X19514500Y-9100500D01*
X19514500Y-9060500D02*
X19474500Y-9100500D01*
X19601500Y-6901500D02*
X19641500Y-6941500D01*
X19641500Y-6901500D02*
X19601500Y-6941500D01*
X19601500Y-8806500D02*
X19641500Y-8846500D01*
X19641500Y-8806500D02*
X19601500Y-8846500D01*
D13*
X17312000Y-7874000D02*
G75*
G03*
X17312000Y-7874000I-40000J0D01*
G01*
X17312000Y-8362000D02*
G75*
G03*
X17312000Y-8362000I-40000J0D01*
G01*
X19461500Y-9300000D02*
G75*
G03*
X19461500Y-9300000I-40000J0D01*
G01*
X19461500Y-9750000D02*
G75*
G03*
X19461500Y-9750000I-40000J0D01*
G01*
X19661500Y-9300000D02*
G75*
G03*
X19661500Y-9300000I-40000J0D01*
G01*
X19661500Y-9750000D02*
G75*
G03*
X19661500Y-9750000I-40000J0D01*
G01*
X19861500Y-9300000D02*
G75*
G03*
X19861500Y-9300000I-40000J0D01*
G01*
X19861500Y-9750000D02*
G75*
G03*
X19861500Y-9750000I-40000J0D01*
G01*
D14*
X17589500Y-8908500D02*
X17589500Y-8998500D01*
X17544500Y-8953500D02*
X17634500Y-8953500D01*
X17589500Y-9162500D02*
X17589500Y-9252500D01*
X17544500Y-9207500D02*
X17634500Y-9207500D01*
D10*
X16799356Y-6860856D02*
X16799356Y-6790144D01*
X16728644Y-6790144D01*
X16728644Y-6860856D01*
X16799356Y-6860856D01*
X16799356Y-7110856D02*
X16799356Y-7040144D01*
X16728644Y-7040144D01*
X16728644Y-7110856D01*
X16799356Y-7110856D01*
X16799356Y-7310856D02*
X16799356Y-7240144D01*
X16728644Y-7240144D01*
X16728644Y-7310856D01*
X16799356Y-7310856D01*
X16799356Y-7560856D02*
X16799356Y-7490144D01*
X16728644Y-7490144D01*
X16728644Y-7560856D01*
X16799356Y-7560856D01*
X16799356Y-8702356D02*
X16799356Y-8631644D01*
X16728644Y-8631644D01*
X16728644Y-8702356D01*
X16799356Y-8702356D01*
X16799356Y-8952356D02*
X16799356Y-8881644D01*
X16728644Y-8881644D01*
X16728644Y-8952356D01*
X16799356Y-8952356D01*
X16799356Y-9152356D02*
X16799356Y-9081644D01*
X16728644Y-9081644D01*
X16728644Y-9152356D01*
X16799356Y-9152356D01*
X16799356Y-9402356D02*
X16799356Y-9331644D01*
X16728644Y-9331644D01*
X16728644Y-9402356D01*
X16799356Y-9402356D01*
X17148606Y-6512356D02*
X17148606Y-6441644D01*
X17077894Y-6441644D01*
X17077894Y-6512356D01*
X17148606Y-6512356D01*
X17402606Y-6512356D02*
X17402606Y-6441644D01*
X17331894Y-6441644D01*
X17331894Y-6512356D01*
X17402606Y-6512356D01*
X17656606Y-6512356D02*
X17656606Y-6441644D01*
X17585894Y-6441644D01*
X17585894Y-6512356D01*
X17656606Y-6512356D01*
X19593356Y-6448856D02*
X19593356Y-6378144D01*
X19522644Y-6378144D01*
X19522644Y-6448856D01*
X19593356Y-6448856D01*
X19847356Y-6448856D02*
X19847356Y-6378144D01*
X19776644Y-6378144D01*
X19776644Y-6448856D01*
X19847356Y-6448856D01*
X19847356Y-6702856D02*
X19847356Y-6632144D01*
X19776644Y-6632144D01*
X19776644Y-6702856D01*
X19847356Y-6702856D01*
X19847356Y-6956856D02*
X19847356Y-6886144D01*
X19776644Y-6886144D01*
X19776644Y-6956856D01*
X19847356Y-6956856D01*
X19847356Y-7210856D02*
X19847356Y-7140144D01*
X19776644Y-7140144D01*
X19776644Y-7210856D01*
X19847356Y-7210856D01*
D15*
X16619000Y-6633500D02*
X16734000Y-6518500D01*
X16619000Y-6403500D01*
X16504000Y-6518500D01*
X16619000Y-6633500D01*
X16619000Y-7947500D02*
X16734000Y-7832500D01*
X16619000Y-7717500D01*
X16504000Y-7832500D01*
X16619000Y-7947500D01*
X16619000Y-8475000D02*
X16734000Y-8360000D01*
X16619000Y-8245000D01*
X16504000Y-8360000D01*
X16619000Y-8475000D01*
X16619000Y-9789000D02*
X16734000Y-9674000D01*
X16619000Y-9559000D01*
X16504000Y-9674000D01*
X16619000Y-9789000D01*
D11*
X16699119Y-10221476D02*
X16699119Y-10021476D01*
X16746738Y-10021476D01*
X16775309Y-10031000D01*
X16794357Y-10050048D01*
X16803881Y-10069095D01*
X16813405Y-10107190D01*
X16813405Y-10135762D01*
X16803881Y-10173857D01*
X16794357Y-10192905D01*
X16775309Y-10211952D01*
X16746738Y-10221476D01*
X16699119Y-10221476D01*
X16899119Y-10221476D02*
X16899119Y-10088143D01*
X16899119Y-10126238D02*
X16908643Y-10107190D01*
X16918167Y-10097667D01*
X16937214Y-10088143D01*
X16956262Y-10088143D01*
X17022929Y-10221476D02*
X17022929Y-10088143D01*
X17022929Y-10021476D02*
X17013405Y-10031000D01*
X17022929Y-10040524D01*
X17032452Y-10031000D01*
X17022929Y-10021476D01*
X17022929Y-10040524D01*
X17146738Y-10221476D02*
X17127690Y-10211952D01*
X17118167Y-10192905D01*
X17118167Y-10021476D01*
X17251500Y-10221476D02*
X17232452Y-10211952D01*
X17222929Y-10192905D01*
X17222929Y-10021476D01*
X17480071Y-10221476D02*
X17480071Y-10021476D01*
X17546738Y-10164333D01*
X17613405Y-10021476D01*
X17613405Y-10221476D01*
X17794357Y-10221476D02*
X17794357Y-10116714D01*
X17784833Y-10097667D01*
X17765786Y-10088143D01*
X17727690Y-10088143D01*
X17708643Y-10097667D01*
X17794357Y-10211952D02*
X17775310Y-10221476D01*
X17727690Y-10221476D01*
X17708643Y-10211952D01*
X17699119Y-10192905D01*
X17699119Y-10173857D01*
X17708643Y-10154810D01*
X17727690Y-10145286D01*
X17775310Y-10145286D01*
X17794357Y-10135762D01*
X17889595Y-10088143D02*
X17889595Y-10288143D01*
X17889595Y-10097667D02*
X17908643Y-10088143D01*
X17946738Y-10088143D01*
X17965786Y-10097667D01*
X17975310Y-10107190D01*
X17984833Y-10126238D01*
X17984833Y-10183381D01*
X17975310Y-10202429D01*
X17965786Y-10211952D01*
X17946738Y-10221476D01*
X17908643Y-10221476D01*
X17889595Y-10211952D01*
X18070548Y-10202429D02*
X18080071Y-10211952D01*
X18070548Y-10221476D01*
X18061024Y-10211952D01*
X18070548Y-10202429D01*
X18070548Y-10221476D01*
X18070548Y-10097667D02*
X18080071Y-10107190D01*
X18070548Y-10116714D01*
X18061024Y-10107190D01*
X18070548Y-10097667D01*
X18070548Y-10116714D01*
D12*
X16401500Y-10531000D02*
X16441500Y-10571000D01*
X16441500Y-10531000D02*
X16401500Y-10571000D01*
D11*
X16737214Y-10441476D02*
X16756262Y-10441476D01*
X16775309Y-10451000D01*
X16784833Y-10460524D01*
X16794357Y-10479571D01*
X16803881Y-10517667D01*
X16803881Y-10565286D01*
X16794357Y-10603381D01*
X16784833Y-10622429D01*
X16775309Y-10631952D01*
X16756262Y-10641476D01*
X16737214Y-10641476D01*
X16718167Y-10631952D01*
X16708643Y-10622429D01*
X16699119Y-10603381D01*
X16689595Y-10565286D01*
X16689595Y-10517667D01*
X16699119Y-10479571D01*
X16708643Y-10460524D01*
X16718167Y-10451000D01*
X16737214Y-10441476D01*
X16889595Y-10622429D02*
X16899119Y-10631952D01*
X16889595Y-10641476D01*
X16880071Y-10631952D01*
X16889595Y-10622429D01*
X16889595Y-10641476D01*
X17070548Y-10508143D02*
X17070548Y-10641476D01*
X17022929Y-10431952D02*
X16975310Y-10574810D01*
X17099119Y-10574810D01*
X17213405Y-10441476D02*
X17232452Y-10441476D01*
X17251500Y-10451000D01*
X17261024Y-10460524D01*
X17270548Y-10479571D01*
X17280071Y-10517667D01*
X17280071Y-10565286D01*
X17270548Y-10603381D01*
X17261024Y-10622429D01*
X17251500Y-10631952D01*
X17232452Y-10641476D01*
X17213405Y-10641476D01*
X17194357Y-10631952D01*
X17184833Y-10622429D01*
X17175310Y-10603381D01*
X17165786Y-10565286D01*
X17165786Y-10517667D01*
X17175310Y-10479571D01*
X17184833Y-10460524D01*
X17194357Y-10451000D01*
X17213405Y-10441476D01*
X17403881Y-10441476D02*
X17422929Y-10441476D01*
X17441976Y-10451000D01*
X17451500Y-10460524D01*
X17461024Y-10479571D01*
X17470548Y-10517667D01*
X17470548Y-10565286D01*
X17461024Y-10603381D01*
X17451500Y-10622429D01*
X17441976Y-10631952D01*
X17422929Y-10641476D01*
X17403881Y-10641476D01*
X17384833Y-10631952D01*
X17375310Y-10622429D01*
X17365786Y-10603381D01*
X17356262Y-10565286D01*
X17356262Y-10517667D01*
X17365786Y-10479571D01*
X17375310Y-10460524D01*
X17384833Y-10451000D01*
X17403881Y-10441476D01*
X17556262Y-10641476D02*
X17556262Y-10508143D01*
X17556262Y-10527190D02*
X17565786Y-10517667D01*
X17584833Y-10508143D01*
X17613405Y-10508143D01*
X17632452Y-10517667D01*
X17641976Y-10536714D01*
X17641976Y-10641476D01*
X17641976Y-10536714D02*
X17651500Y-10517667D01*
X17670548Y-10508143D01*
X17699119Y-10508143D01*
X17718167Y-10517667D01*
X17727690Y-10536714D01*
X17727690Y-10641476D01*
X17822929Y-10641476D02*
X17822929Y-10508143D01*
X17822929Y-10527190D02*
X17832452Y-10517667D01*
X17851500Y-10508143D01*
X17880071Y-10508143D01*
X17899119Y-10517667D01*
X17908643Y-10536714D01*
X17908643Y-10641476D01*
X17908643Y-10536714D02*
X17918167Y-10517667D01*
X17937214Y-10508143D01*
X17965786Y-10508143D01*
X17984833Y-10517667D01*
X17994357Y-10536714D01*
X17994357Y-10641476D01*
X18384833Y-10431952D02*
X18213405Y-10689095D01*
X18641976Y-10441476D02*
X18661024Y-10441476D01*
X18680071Y-10451000D01*
X18689595Y-10460524D01*
X18699119Y-10479571D01*
X18708643Y-10517667D01*
X18708643Y-10565286D01*
X18699119Y-10603381D01*
X18689595Y-10622429D01*
X18680071Y-10631952D01*
X18661024Y-10641476D01*
X18641976Y-10641476D01*
X18622929Y-10631952D01*
X18613405Y-10622429D01*
X18603881Y-10603381D01*
X18594357Y-10565286D01*
X18594357Y-10517667D01*
X18603881Y-10479571D01*
X18613405Y-10460524D01*
X18622929Y-10451000D01*
X18641976Y-10441476D01*
X18794357Y-10622429D02*
X18803881Y-10631952D01*
X18794357Y-10641476D01*
X18784833Y-10631952D01*
X18794357Y-10622429D01*
X18794357Y-10641476D01*
X18927690Y-10441476D02*
X18946738Y-10441476D01*
X18965786Y-10451000D01*
X18975310Y-10460524D01*
X18984833Y-10479571D01*
X18994357Y-10517667D01*
X18994357Y-10565286D01*
X18984833Y-10603381D01*
X18975310Y-10622429D01*
X18965786Y-10631952D01*
X18946738Y-10641476D01*
X18927690Y-10641476D01*
X18908643Y-10631952D01*
X18899119Y-10622429D01*
X18889595Y-10603381D01*
X18880071Y-10565286D01*
X18880071Y-10517667D01*
X18889595Y-10479571D01*
X18899119Y-10460524D01*
X18908643Y-10451000D01*
X18927690Y-10441476D01*
X19184833Y-10641476D02*
X19070548Y-10641476D01*
X19127690Y-10641476D02*
X19127690Y-10441476D01*
X19108643Y-10470048D01*
X19089595Y-10489095D01*
X19070548Y-10498619D01*
X19365786Y-10441476D02*
X19270548Y-10441476D01*
X19261024Y-10536714D01*
X19270548Y-10527190D01*
X19289595Y-10517667D01*
X19337214Y-10517667D01*
X19356262Y-10527190D01*
X19365786Y-10536714D01*
X19375310Y-10555762D01*
X19375310Y-10603381D01*
X19365786Y-10622429D01*
X19356262Y-10631952D01*
X19337214Y-10641476D01*
X19289595Y-10641476D01*
X19270548Y-10631952D01*
X19261024Y-10622429D01*
X19441976Y-10441476D02*
X19575310Y-10441476D01*
X19489595Y-10641476D01*
X19641976Y-10441476D02*
X19641976Y-10479571D01*
X19718167Y-10441476D02*
X19718167Y-10479571D01*
X20013405Y-10717667D02*
X20003881Y-10708143D01*
X19984833Y-10679571D01*
X19975310Y-10660524D01*
X19965786Y-10631952D01*
X19956262Y-10584333D01*
X19956262Y-10546238D01*
X19965786Y-10498619D01*
X19975310Y-10470048D01*
X19984833Y-10451000D01*
X20003881Y-10422429D01*
X20013405Y-10412905D01*
X20175310Y-10508143D02*
X20175310Y-10641476D01*
X20127690Y-10431952D02*
X20080071Y-10574810D01*
X20203881Y-10574810D01*
X20308643Y-10527190D02*
X20289595Y-10517667D01*
X20280071Y-10508143D01*
X20270548Y-10489095D01*
X20270548Y-10479571D01*
X20280071Y-10460524D01*
X20289595Y-10451000D01*
X20308643Y-10441476D01*
X20346738Y-10441476D01*
X20365786Y-10451000D01*
X20375310Y-10460524D01*
X20384833Y-10479571D01*
X20384833Y-10489095D01*
X20375310Y-10508143D01*
X20365786Y-10517667D01*
X20346738Y-10527190D01*
X20308643Y-10527190D01*
X20289595Y-10536714D01*
X20280071Y-10546238D01*
X20270548Y-10565286D01*
X20270548Y-10603381D01*
X20280071Y-10622429D01*
X20289595Y-10631952D01*
X20308643Y-10641476D01*
X20346738Y-10641476D01*
X20365786Y-10631952D01*
X20375310Y-10622429D01*
X20384833Y-10603381D01*
X20384833Y-10565286D01*
X20375310Y-10546238D01*
X20365786Y-10536714D01*
X20346738Y-10527190D01*
X20622929Y-10641476D02*
X20622929Y-10441476D01*
X20708643Y-10641476D02*
X20708643Y-10536714D01*
X20699119Y-10517667D01*
X20680071Y-10508143D01*
X20651500Y-10508143D01*
X20632452Y-10517667D01*
X20622929Y-10527190D01*
X20832452Y-10641476D02*
X20813405Y-10631952D01*
X20803881Y-10622429D01*
X20794357Y-10603381D01*
X20794357Y-10546238D01*
X20803881Y-10527190D01*
X20813405Y-10517667D01*
X20832452Y-10508143D01*
X20861024Y-10508143D01*
X20880071Y-10517667D01*
X20889595Y-10527190D01*
X20899119Y-10546238D01*
X20899119Y-10603381D01*
X20889595Y-10622429D01*
X20880071Y-10631952D01*
X20861024Y-10641476D01*
X20832452Y-10641476D01*
X21013405Y-10641476D02*
X20994357Y-10631952D01*
X20984833Y-10612905D01*
X20984833Y-10441476D01*
X21165786Y-10631952D02*
X21146738Y-10641476D01*
X21108643Y-10641476D01*
X21089595Y-10631952D01*
X21080071Y-10612905D01*
X21080071Y-10536714D01*
X21089595Y-10517667D01*
X21108643Y-10508143D01*
X21146738Y-10508143D01*
X21165786Y-10517667D01*
X21175310Y-10536714D01*
X21175310Y-10555762D01*
X21080071Y-10574810D01*
X21251500Y-10631952D02*
X21270548Y-10641476D01*
X21308643Y-10641476D01*
X21327690Y-10631952D01*
X21337214Y-10612905D01*
X21337214Y-10603381D01*
X21327690Y-10584333D01*
X21308643Y-10574810D01*
X21280071Y-10574810D01*
X21261024Y-10565286D01*
X21251500Y-10546238D01*
X21251500Y-10536714D01*
X21261024Y-10517667D01*
X21280071Y-10508143D01*
X21308643Y-10508143D01*
X21327690Y-10517667D01*
X21403881Y-10717667D02*
X21413405Y-10708143D01*
X21432452Y-10679571D01*
X21441976Y-10660524D01*
X21451500Y-10631952D01*
X21461024Y-10584333D01*
X21461024Y-10546238D01*
X21451500Y-10498619D01*
X21441976Y-10470048D01*
X21432452Y-10451000D01*
X21413405Y-10422429D01*
X21403881Y-10412905D01*
D13*
X16441500Y-10815000D02*
G75*
G03*
X16441500Y-10815000I-40000J0D01*
G01*
D11*
X16737214Y-10705476D02*
X16756262Y-10705476D01*
X16775309Y-10715000D01*
X16784833Y-10724524D01*
X16794357Y-10743571D01*
X16803881Y-10781667D01*
X16803881Y-10829286D01*
X16794357Y-10867381D01*
X16784833Y-10886429D01*
X16775309Y-10895952D01*
X16756262Y-10905476D01*
X16737214Y-10905476D01*
X16718167Y-10895952D01*
X16708643Y-10886429D01*
X16699119Y-10867381D01*
X16689595Y-10829286D01*
X16689595Y-10781667D01*
X16699119Y-10743571D01*
X16708643Y-10724524D01*
X16718167Y-10715000D01*
X16737214Y-10705476D01*
X16889595Y-10886429D02*
X16899119Y-10895952D01*
X16889595Y-10905476D01*
X16880071Y-10895952D01*
X16889595Y-10886429D01*
X16889595Y-10905476D01*
X17013405Y-10791190D02*
X16994357Y-10781667D01*
X16984833Y-10772143D01*
X16975310Y-10753095D01*
X16975310Y-10743571D01*
X16984833Y-10724524D01*
X16994357Y-10715000D01*
X17013405Y-10705476D01*
X17051500Y-10705476D01*
X17070548Y-10715000D01*
X17080071Y-10724524D01*
X17089595Y-10743571D01*
X17089595Y-10753095D01*
X17080071Y-10772143D01*
X17070548Y-10781667D01*
X17051500Y-10791190D01*
X17013405Y-10791190D01*
X16994357Y-10800714D01*
X16984833Y-10810238D01*
X16975310Y-10829286D01*
X16975310Y-10867381D01*
X16984833Y-10886429D01*
X16994357Y-10895952D01*
X17013405Y-10905476D01*
X17051500Y-10905476D01*
X17070548Y-10895952D01*
X17080071Y-10886429D01*
X17089595Y-10867381D01*
X17089595Y-10829286D01*
X17080071Y-10810238D01*
X17070548Y-10800714D01*
X17051500Y-10791190D01*
X17213405Y-10705476D02*
X17232452Y-10705476D01*
X17251500Y-10715000D01*
X17261024Y-10724524D01*
X17270548Y-10743571D01*
X17280071Y-10781667D01*
X17280071Y-10829286D01*
X17270548Y-10867381D01*
X17261024Y-10886429D01*
X17251500Y-10895952D01*
X17232452Y-10905476D01*
X17213405Y-10905476D01*
X17194357Y-10895952D01*
X17184833Y-10886429D01*
X17175310Y-10867381D01*
X17165786Y-10829286D01*
X17165786Y-10781667D01*
X17175310Y-10743571D01*
X17184833Y-10724524D01*
X17194357Y-10715000D01*
X17213405Y-10705476D01*
X17403881Y-10705476D02*
X17422929Y-10705476D01*
X17441976Y-10715000D01*
X17451500Y-10724524D01*
X17461024Y-10743571D01*
X17470548Y-10781667D01*
X17470548Y-10829286D01*
X17461024Y-10867381D01*
X17451500Y-10886429D01*
X17441976Y-10895952D01*
X17422929Y-10905476D01*
X17403881Y-10905476D01*
X17384833Y-10895952D01*
X17375310Y-10886429D01*
X17365786Y-10867381D01*
X17356262Y-10829286D01*
X17356262Y-10781667D01*
X17365786Y-10743571D01*
X17375310Y-10724524D01*
X17384833Y-10715000D01*
X17403881Y-10705476D01*
X17556262Y-10905476D02*
X17556262Y-10772143D01*
X17556262Y-10791190D02*
X17565786Y-10781667D01*
X17584833Y-10772143D01*
X17613405Y-10772143D01*
X17632452Y-10781667D01*
X17641976Y-10800714D01*
X17641976Y-10905476D01*
X17641976Y-10800714D02*
X17651500Y-10781667D01*
X17670548Y-10772143D01*
X17699119Y-10772143D01*
X17718167Y-10781667D01*
X17727690Y-10800714D01*
X17727690Y-10905476D01*
X17822929Y-10905476D02*
X17822929Y-10772143D01*
X17822929Y-10791190D02*
X17832452Y-10781667D01*
X17851500Y-10772143D01*
X17880071Y-10772143D01*
X17899119Y-10781667D01*
X17908643Y-10800714D01*
X17908643Y-10905476D01*
X17908643Y-10800714D02*
X17918167Y-10781667D01*
X17937214Y-10772143D01*
X17965786Y-10772143D01*
X17984833Y-10781667D01*
X17994357Y-10800714D01*
X17994357Y-10905476D01*
X18384833Y-10695952D02*
X18213405Y-10953095D01*
X18641976Y-10705476D02*
X18661024Y-10705476D01*
X18680071Y-10715000D01*
X18689595Y-10724524D01*
X18699119Y-10743571D01*
X18708643Y-10781667D01*
X18708643Y-10829286D01*
X18699119Y-10867381D01*
X18689595Y-10886429D01*
X18680071Y-10895952D01*
X18661024Y-10905476D01*
X18641976Y-10905476D01*
X18622929Y-10895952D01*
X18613405Y-10886429D01*
X18603881Y-10867381D01*
X18594357Y-10829286D01*
X18594357Y-10781667D01*
X18603881Y-10743571D01*
X18613405Y-10724524D01*
X18622929Y-10715000D01*
X18641976Y-10705476D01*
X18794357Y-10886429D02*
X18803881Y-10895952D01*
X18794357Y-10905476D01*
X18784833Y-10895952D01*
X18794357Y-10886429D01*
X18794357Y-10905476D01*
X18927690Y-10705476D02*
X18946738Y-10705476D01*
X18965786Y-10715000D01*
X18975310Y-10724524D01*
X18984833Y-10743571D01*
X18994357Y-10781667D01*
X18994357Y-10829286D01*
X18984833Y-10867381D01*
X18975310Y-10886429D01*
X18965786Y-10895952D01*
X18946738Y-10905476D01*
X18927690Y-10905476D01*
X18908643Y-10895952D01*
X18899119Y-10886429D01*
X18889595Y-10867381D01*
X18880071Y-10829286D01*
X18880071Y-10781667D01*
X18889595Y-10743571D01*
X18899119Y-10724524D01*
X18908643Y-10715000D01*
X18927690Y-10705476D01*
X19061024Y-10705476D02*
X19184833Y-10705476D01*
X19118167Y-10781667D01*
X19146738Y-10781667D01*
X19165786Y-10791190D01*
X19175310Y-10800714D01*
X19184833Y-10819762D01*
X19184833Y-10867381D01*
X19175310Y-10886429D01*
X19165786Y-10895952D01*
X19146738Y-10905476D01*
X19089595Y-10905476D01*
X19070548Y-10895952D01*
X19061024Y-10886429D01*
X19375310Y-10905476D02*
X19261024Y-10905476D01*
X19318167Y-10905476D02*
X19318167Y-10705476D01*
X19299119Y-10734048D01*
X19280071Y-10753095D01*
X19261024Y-10762619D01*
X19556262Y-10705476D02*
X19461024Y-10705476D01*
X19451500Y-10800714D01*
X19461024Y-10791190D01*
X19480071Y-10781667D01*
X19527690Y-10781667D01*
X19546738Y-10791190D01*
X19556262Y-10800714D01*
X19565786Y-10819762D01*
X19565786Y-10867381D01*
X19556262Y-10886429D01*
X19546738Y-10895952D01*
X19527690Y-10905476D01*
X19480071Y-10905476D01*
X19461024Y-10895952D01*
X19451500Y-10886429D01*
X19641976Y-10705476D02*
X19641976Y-10743571D01*
X19718167Y-10705476D02*
X19718167Y-10743571D01*
X20013405Y-10981667D02*
X20003881Y-10972143D01*
X19984833Y-10943571D01*
X19975310Y-10924524D01*
X19965786Y-10895952D01*
X19956262Y-10848333D01*
X19956262Y-10810238D01*
X19965786Y-10762619D01*
X19975310Y-10734048D01*
X19984833Y-10715000D01*
X20003881Y-10686429D01*
X20013405Y-10676905D01*
X20118167Y-10791190D02*
X20099119Y-10781667D01*
X20089595Y-10772143D01*
X20080071Y-10753095D01*
X20080071Y-10743571D01*
X20089595Y-10724524D01*
X20099119Y-10715000D01*
X20118167Y-10705476D01*
X20156262Y-10705476D01*
X20175310Y-10715000D01*
X20184833Y-10724524D01*
X20194357Y-10743571D01*
X20194357Y-10753095D01*
X20184833Y-10772143D01*
X20175310Y-10781667D01*
X20156262Y-10791190D01*
X20118167Y-10791190D01*
X20099119Y-10800714D01*
X20089595Y-10810238D01*
X20080071Y-10829286D01*
X20080071Y-10867381D01*
X20089595Y-10886429D01*
X20099119Y-10895952D01*
X20118167Y-10905476D01*
X20156262Y-10905476D01*
X20175310Y-10895952D01*
X20184833Y-10886429D01*
X20194357Y-10867381D01*
X20194357Y-10829286D01*
X20184833Y-10810238D01*
X20175310Y-10800714D01*
X20156262Y-10791190D01*
X20432452Y-10905476D02*
X20432452Y-10705476D01*
X20518167Y-10905476D02*
X20518167Y-10800714D01*
X20508643Y-10781667D01*
X20489595Y-10772143D01*
X20461024Y-10772143D01*
X20441976Y-10781667D01*
X20432452Y-10791190D01*
X20641976Y-10905476D02*
X20622929Y-10895952D01*
X20613405Y-10886429D01*
X20603881Y-10867381D01*
X20603881Y-10810238D01*
X20613405Y-10791190D01*
X20622929Y-10781667D01*
X20641976Y-10772143D01*
X20670548Y-10772143D01*
X20689595Y-10781667D01*
X20699119Y-10791190D01*
X20708643Y-10810238D01*
X20708643Y-10867381D01*
X20699119Y-10886429D01*
X20689595Y-10895952D01*
X20670548Y-10905476D01*
X20641976Y-10905476D01*
X20822929Y-10905476D02*
X20803881Y-10895952D01*
X20794357Y-10876905D01*
X20794357Y-10705476D01*
X20975310Y-10895952D02*
X20956262Y-10905476D01*
X20918167Y-10905476D01*
X20899119Y-10895952D01*
X20889595Y-10876905D01*
X20889595Y-10800714D01*
X20899119Y-10781667D01*
X20918167Y-10772143D01*
X20956262Y-10772143D01*
X20975310Y-10781667D01*
X20984833Y-10800714D01*
X20984833Y-10819762D01*
X20889595Y-10838810D01*
X21061024Y-10895952D02*
X21080071Y-10905476D01*
X21118167Y-10905476D01*
X21137214Y-10895952D01*
X21146738Y-10876905D01*
X21146738Y-10867381D01*
X21137214Y-10848333D01*
X21118167Y-10838810D01*
X21089595Y-10838810D01*
X21070548Y-10829286D01*
X21061024Y-10810238D01*
X21061024Y-10800714D01*
X21070548Y-10781667D01*
X21089595Y-10772143D01*
X21118167Y-10772143D01*
X21137214Y-10781667D01*
X21213405Y-10981667D02*
X21222929Y-10972143D01*
X21241976Y-10943571D01*
X21251500Y-10924524D01*
X21261024Y-10895952D01*
X21270548Y-10848333D01*
X21270548Y-10810238D01*
X21261024Y-10762619D01*
X21251500Y-10734048D01*
X21241976Y-10715000D01*
X21222929Y-10686429D01*
X21213405Y-10676905D01*
D14*
X16396500Y-11034000D02*
X16396500Y-11124000D01*
X16351500Y-11079000D02*
X16441500Y-11079000D01*
D11*
X16737214Y-10969476D02*
X16756262Y-10969476D01*
X16775309Y-10979000D01*
X16784833Y-10988524D01*
X16794357Y-11007571D01*
X16803881Y-11045667D01*
X16803881Y-11093286D01*
X16794357Y-11131381D01*
X16784833Y-11150429D01*
X16775309Y-11159952D01*
X16756262Y-11169476D01*
X16737214Y-11169476D01*
X16718167Y-11159952D01*
X16708643Y-11150429D01*
X16699119Y-11131381D01*
X16689595Y-11093286D01*
X16689595Y-11045667D01*
X16699119Y-11007571D01*
X16708643Y-10988524D01*
X16718167Y-10979000D01*
X16737214Y-10969476D01*
X16889595Y-11150429D02*
X16899119Y-11159952D01*
X16889595Y-11169476D01*
X16880071Y-11159952D01*
X16889595Y-11150429D01*
X16889595Y-11169476D01*
X16994357Y-11169476D02*
X17032452Y-11169476D01*
X17051500Y-11159952D01*
X17061024Y-11150429D01*
X17080071Y-11121857D01*
X17089595Y-11083762D01*
X17089595Y-11007571D01*
X17080071Y-10988524D01*
X17070548Y-10979000D01*
X17051500Y-10969476D01*
X17013405Y-10969476D01*
X16994357Y-10979000D01*
X16984833Y-10988524D01*
X16975310Y-11007571D01*
X16975310Y-11055190D01*
X16984833Y-11074238D01*
X16994357Y-11083762D01*
X17013405Y-11093286D01*
X17051500Y-11093286D01*
X17070548Y-11083762D01*
X17080071Y-11074238D01*
X17089595Y-11055190D01*
X17213405Y-10969476D02*
X17232452Y-10969476D01*
X17251500Y-10979000D01*
X17261024Y-10988524D01*
X17270548Y-11007571D01*
X17280071Y-11045667D01*
X17280071Y-11093286D01*
X17270548Y-11131381D01*
X17261024Y-11150429D01*
X17251500Y-11159952D01*
X17232452Y-11169476D01*
X17213405Y-11169476D01*
X17194357Y-11159952D01*
X17184833Y-11150429D01*
X17175310Y-11131381D01*
X17165786Y-11093286D01*
X17165786Y-11045667D01*
X17175310Y-11007571D01*
X17184833Y-10988524D01*
X17194357Y-10979000D01*
X17213405Y-10969476D01*
X17403881Y-10969476D02*
X17422929Y-10969476D01*
X17441976Y-10979000D01*
X17451500Y-10988524D01*
X17461024Y-11007571D01*
X17470548Y-11045667D01*
X17470548Y-11093286D01*
X17461024Y-11131381D01*
X17451500Y-11150429D01*
X17441976Y-11159952D01*
X17422929Y-11169476D01*
X17403881Y-11169476D01*
X17384833Y-11159952D01*
X17375310Y-11150429D01*
X17365786Y-11131381D01*
X17356262Y-11093286D01*
X17356262Y-11045667D01*
X17365786Y-11007571D01*
X17375310Y-10988524D01*
X17384833Y-10979000D01*
X17403881Y-10969476D01*
X17556262Y-11169476D02*
X17556262Y-11036143D01*
X17556262Y-11055190D02*
X17565786Y-11045667D01*
X17584833Y-11036143D01*
X17613405Y-11036143D01*
X17632452Y-11045667D01*
X17641976Y-11064714D01*
X17641976Y-11169476D01*
X17641976Y-11064714D02*
X17651500Y-11045667D01*
X17670548Y-11036143D01*
X17699119Y-11036143D01*
X17718167Y-11045667D01*
X17727690Y-11064714D01*
X17727690Y-11169476D01*
X17822929Y-11169476D02*
X17822929Y-11036143D01*
X17822929Y-11055190D02*
X17832452Y-11045667D01*
X17851500Y-11036143D01*
X17880071Y-11036143D01*
X17899119Y-11045667D01*
X17908643Y-11064714D01*
X17908643Y-11169476D01*
X17908643Y-11064714D02*
X17918167Y-11045667D01*
X17937214Y-11036143D01*
X17965786Y-11036143D01*
X17984833Y-11045667D01*
X17994357Y-11064714D01*
X17994357Y-11169476D01*
X18384833Y-10959952D02*
X18213405Y-11217095D01*
X18641976Y-10969476D02*
X18661024Y-10969476D01*
X18680071Y-10979000D01*
X18689595Y-10988524D01*
X18699119Y-11007571D01*
X18708643Y-11045667D01*
X18708643Y-11093286D01*
X18699119Y-11131381D01*
X18689595Y-11150429D01*
X18680071Y-11159952D01*
X18661024Y-11169476D01*
X18641976Y-11169476D01*
X18622929Y-11159952D01*
X18613405Y-11150429D01*
X18603881Y-11131381D01*
X18594357Y-11093286D01*
X18594357Y-11045667D01*
X18603881Y-11007571D01*
X18613405Y-10988524D01*
X18622929Y-10979000D01*
X18641976Y-10969476D01*
X18794357Y-11150429D02*
X18803881Y-11159952D01*
X18794357Y-11169476D01*
X18784833Y-11159952D01*
X18794357Y-11150429D01*
X18794357Y-11169476D01*
X18927690Y-10969476D02*
X18946738Y-10969476D01*
X18965786Y-10979000D01*
X18975310Y-10988524D01*
X18984833Y-11007571D01*
X18994357Y-11045667D01*
X18994357Y-11093286D01*
X18984833Y-11131381D01*
X18975310Y-11150429D01*
X18965786Y-11159952D01*
X18946738Y-11169476D01*
X18927690Y-11169476D01*
X18908643Y-11159952D01*
X18899119Y-11150429D01*
X18889595Y-11131381D01*
X18880071Y-11093286D01*
X18880071Y-11045667D01*
X18889595Y-11007571D01*
X18899119Y-10988524D01*
X18908643Y-10979000D01*
X18927690Y-10969476D01*
X19061024Y-10969476D02*
X19184833Y-10969476D01*
X19118167Y-11045667D01*
X19146738Y-11045667D01*
X19165786Y-11055190D01*
X19175310Y-11064714D01*
X19184833Y-11083762D01*
X19184833Y-11131381D01*
X19175310Y-11150429D01*
X19165786Y-11159952D01*
X19146738Y-11169476D01*
X19089595Y-11169476D01*
X19070548Y-11159952D01*
X19061024Y-11150429D01*
X19365786Y-10969476D02*
X19270548Y-10969476D01*
X19261024Y-11064714D01*
X19270548Y-11055190D01*
X19289595Y-11045667D01*
X19337214Y-11045667D01*
X19356262Y-11055190D01*
X19365786Y-11064714D01*
X19375310Y-11083762D01*
X19375310Y-11131381D01*
X19365786Y-11150429D01*
X19356262Y-11159952D01*
X19337214Y-11169476D01*
X19289595Y-11169476D01*
X19270548Y-11159952D01*
X19261024Y-11150429D01*
X19546738Y-11036143D02*
X19546738Y-11169476D01*
X19499119Y-10959952D02*
X19451500Y-11102810D01*
X19575310Y-11102810D01*
X19641976Y-10969476D02*
X19641976Y-11007571D01*
X19718167Y-10969476D02*
X19718167Y-11007571D01*
X20013405Y-11245667D02*
X20003881Y-11236143D01*
X19984833Y-11207571D01*
X19975310Y-11188524D01*
X19965786Y-11159952D01*
X19956262Y-11112333D01*
X19956262Y-11074238D01*
X19965786Y-11026619D01*
X19975310Y-10998048D01*
X19984833Y-10979000D01*
X20003881Y-10950429D01*
X20013405Y-10940905D01*
X20080071Y-10988524D02*
X20089595Y-10979000D01*
X20108643Y-10969476D01*
X20156262Y-10969476D01*
X20175310Y-10979000D01*
X20184833Y-10988524D01*
X20194357Y-11007571D01*
X20194357Y-11026619D01*
X20184833Y-11055190D01*
X20070548Y-11169476D01*
X20194357Y-11169476D01*
X20432452Y-11169476D02*
X20432452Y-10969476D01*
X20518167Y-11169476D02*
X20518167Y-11064714D01*
X20508643Y-11045667D01*
X20489595Y-11036143D01*
X20461024Y-11036143D01*
X20441976Y-11045667D01*
X20432452Y-11055190D01*
X20641976Y-11169476D02*
X20622929Y-11159952D01*
X20613405Y-11150429D01*
X20603881Y-11131381D01*
X20603881Y-11074238D01*
X20613405Y-11055190D01*
X20622929Y-11045667D01*
X20641976Y-11036143D01*
X20670548Y-11036143D01*
X20689595Y-11045667D01*
X20699119Y-11055190D01*
X20708643Y-11074238D01*
X20708643Y-11131381D01*
X20699119Y-11150429D01*
X20689595Y-11159952D01*
X20670548Y-11169476D01*
X20641976Y-11169476D01*
X20822929Y-11169476D02*
X20803881Y-11159952D01*
X20794357Y-11140905D01*
X20794357Y-10969476D01*
X20975310Y-11159952D02*
X20956262Y-11169476D01*
X20918167Y-11169476D01*
X20899119Y-11159952D01*
X20889595Y-11140905D01*
X20889595Y-11064714D01*
X20899119Y-11045667D01*
X20918167Y-11036143D01*
X20956262Y-11036143D01*
X20975310Y-11045667D01*
X20984833Y-11064714D01*
X20984833Y-11083762D01*
X20889595Y-11102810D01*
X21061024Y-11159952D02*
X21080071Y-11169476D01*
X21118167Y-11169476D01*
X21137214Y-11159952D01*
X21146738Y-11140905D01*
X21146738Y-11131381D01*
X21137214Y-11112333D01*
X21118167Y-11102810D01*
X21089595Y-11102810D01*
X21070548Y-11093286D01*
X21061024Y-11074238D01*
X21061024Y-11064714D01*
X21070548Y-11045667D01*
X21089595Y-11036143D01*
X21118167Y-11036143D01*
X21137214Y-11045667D01*
X21213405Y-11245667D02*
X21222929Y-11236143D01*
X21241976Y-11207571D01*
X21251500Y-11188524D01*
X21261024Y-11159952D01*
X21270548Y-11112333D01*
X21270548Y-11074238D01*
X21261024Y-11026619D01*
X21251500Y-10998048D01*
X21241976Y-10979000D01*
X21222929Y-10950429D01*
X21213405Y-10940905D01*
D10*
X16426856Y-11378356D02*
X16426856Y-11307644D01*
X16356144Y-11307644D01*
X16356144Y-11378356D01*
X16426856Y-11378356D01*
D11*
X16803881Y-11433476D02*
X16689595Y-11433476D01*
X16746738Y-11433476D02*
X16746738Y-11233476D01*
X16727690Y-11262048D01*
X16708643Y-11281095D01*
X16689595Y-11290619D01*
X16889595Y-11414428D02*
X16899119Y-11423952D01*
X16889595Y-11433476D01*
X16880071Y-11423952D01*
X16889595Y-11414428D01*
X16889595Y-11433476D01*
X17022929Y-11233476D02*
X17041976Y-11233476D01*
X17061024Y-11243000D01*
X17070548Y-11252524D01*
X17080071Y-11271571D01*
X17089595Y-11309667D01*
X17089595Y-11357286D01*
X17080071Y-11395381D01*
X17070548Y-11414428D01*
X17061024Y-11423952D01*
X17041976Y-11433476D01*
X17022929Y-11433476D01*
X17003881Y-11423952D01*
X16994357Y-11414428D01*
X16984833Y-11395381D01*
X16975310Y-11357286D01*
X16975310Y-11309667D01*
X16984833Y-11271571D01*
X16994357Y-11252524D01*
X17003881Y-11243000D01*
X17022929Y-11233476D01*
X17213405Y-11233476D02*
X17232452Y-11233476D01*
X17251500Y-11243000D01*
X17261024Y-11252524D01*
X17270548Y-11271571D01*
X17280071Y-11309667D01*
X17280071Y-11357286D01*
X17270548Y-11395381D01*
X17261024Y-11414428D01*
X17251500Y-11423952D01*
X17232452Y-11433476D01*
X17213405Y-11433476D01*
X17194357Y-11423952D01*
X17184833Y-11414428D01*
X17175310Y-11395381D01*
X17165786Y-11357286D01*
X17165786Y-11309667D01*
X17175310Y-11271571D01*
X17184833Y-11252524D01*
X17194357Y-11243000D01*
X17213405Y-11233476D01*
X17403881Y-11233476D02*
X17422929Y-11233476D01*
X17441976Y-11243000D01*
X17451500Y-11252524D01*
X17461024Y-11271571D01*
X17470548Y-11309667D01*
X17470548Y-11357286D01*
X17461024Y-11395381D01*
X17451500Y-11414428D01*
X17441976Y-11423952D01*
X17422929Y-11433476D01*
X17403881Y-11433476D01*
X17384833Y-11423952D01*
X17375310Y-11414428D01*
X17365786Y-11395381D01*
X17356262Y-11357286D01*
X17356262Y-11309667D01*
X17365786Y-11271571D01*
X17375310Y-11252524D01*
X17384833Y-11243000D01*
X17403881Y-11233476D01*
X17556262Y-11433476D02*
X17556262Y-11300143D01*
X17556262Y-11319190D02*
X17565786Y-11309667D01*
X17584833Y-11300143D01*
X17613405Y-11300143D01*
X17632452Y-11309667D01*
X17641976Y-11328714D01*
X17641976Y-11433476D01*
X17641976Y-11328714D02*
X17651500Y-11309667D01*
X17670548Y-11300143D01*
X17699119Y-11300143D01*
X17718167Y-11309667D01*
X17727690Y-11328714D01*
X17727690Y-11433476D01*
X17822929Y-11433476D02*
X17822929Y-11300143D01*
X17822929Y-11319190D02*
X17832452Y-11309667D01*
X17851500Y-11300143D01*
X17880071Y-11300143D01*
X17899119Y-11309667D01*
X17908643Y-11328714D01*
X17908643Y-11433476D01*
X17908643Y-11328714D02*
X17918167Y-11309667D01*
X17937214Y-11300143D01*
X17965786Y-11300143D01*
X17984833Y-11309667D01*
X17994357Y-11328714D01*
X17994357Y-11433476D01*
X18384833Y-11223952D02*
X18213405Y-11481095D01*
X18641976Y-11233476D02*
X18661024Y-11233476D01*
X18680071Y-11243000D01*
X18689595Y-11252524D01*
X18699119Y-11271571D01*
X18708643Y-11309667D01*
X18708643Y-11357286D01*
X18699119Y-11395381D01*
X18689595Y-11414428D01*
X18680071Y-11423952D01*
X18661024Y-11433476D01*
X18641976Y-11433476D01*
X18622929Y-11423952D01*
X18613405Y-11414428D01*
X18603881Y-11395381D01*
X18594357Y-11357286D01*
X18594357Y-11309667D01*
X18603881Y-11271571D01*
X18613405Y-11252524D01*
X18622929Y-11243000D01*
X18641976Y-11233476D01*
X18794357Y-11414428D02*
X18803881Y-11423952D01*
X18794357Y-11433476D01*
X18784833Y-11423952D01*
X18794357Y-11414428D01*
X18794357Y-11433476D01*
X18927690Y-11233476D02*
X18946738Y-11233476D01*
X18965786Y-11243000D01*
X18975310Y-11252524D01*
X18984833Y-11271571D01*
X18994357Y-11309667D01*
X18994357Y-11357286D01*
X18984833Y-11395381D01*
X18975310Y-11414428D01*
X18965786Y-11423952D01*
X18946738Y-11433476D01*
X18927690Y-11433476D01*
X18908643Y-11423952D01*
X18899119Y-11414428D01*
X18889595Y-11395381D01*
X18880071Y-11357286D01*
X18880071Y-11309667D01*
X18889595Y-11271571D01*
X18899119Y-11252524D01*
X18908643Y-11243000D01*
X18927690Y-11233476D01*
X19061024Y-11233476D02*
X19184833Y-11233476D01*
X19118167Y-11309667D01*
X19146738Y-11309667D01*
X19165786Y-11319190D01*
X19175310Y-11328714D01*
X19184833Y-11347762D01*
X19184833Y-11395381D01*
X19175310Y-11414428D01*
X19165786Y-11423952D01*
X19146738Y-11433476D01*
X19089595Y-11433476D01*
X19070548Y-11423952D01*
X19061024Y-11414428D01*
X19280071Y-11433476D02*
X19318167Y-11433476D01*
X19337214Y-11423952D01*
X19346738Y-11414428D01*
X19365786Y-11385857D01*
X19375310Y-11347762D01*
X19375310Y-11271571D01*
X19365786Y-11252524D01*
X19356262Y-11243000D01*
X19337214Y-11233476D01*
X19299119Y-11233476D01*
X19280071Y-11243000D01*
X19270548Y-11252524D01*
X19261024Y-11271571D01*
X19261024Y-11319190D01*
X19270548Y-11338238D01*
X19280071Y-11347762D01*
X19299119Y-11357286D01*
X19337214Y-11357286D01*
X19356262Y-11347762D01*
X19365786Y-11338238D01*
X19375310Y-11319190D01*
X19546738Y-11300143D02*
X19546738Y-11433476D01*
X19499119Y-11223952D02*
X19451500Y-11366809D01*
X19575310Y-11366809D01*
X19641976Y-11233476D02*
X19641976Y-11271571D01*
X19718167Y-11233476D02*
X19718167Y-11271571D01*
X20013405Y-11509667D02*
X20003881Y-11500143D01*
X19984833Y-11471571D01*
X19975310Y-11452524D01*
X19965786Y-11423952D01*
X19956262Y-11376333D01*
X19956262Y-11338238D01*
X19965786Y-11290619D01*
X19975310Y-11262048D01*
X19984833Y-11243000D01*
X20003881Y-11214428D01*
X20013405Y-11204905D01*
X20194357Y-11433476D02*
X20080071Y-11433476D01*
X20137214Y-11433476D02*
X20137214Y-11233476D01*
X20118167Y-11262048D01*
X20099119Y-11281095D01*
X20080071Y-11290619D01*
X20365786Y-11233476D02*
X20327690Y-11233476D01*
X20308643Y-11243000D01*
X20299119Y-11252524D01*
X20280071Y-11281095D01*
X20270548Y-11319190D01*
X20270548Y-11395381D01*
X20280071Y-11414428D01*
X20289595Y-11423952D01*
X20308643Y-11433476D01*
X20346738Y-11433476D01*
X20365786Y-11423952D01*
X20375310Y-11414428D01*
X20384833Y-11395381D01*
X20384833Y-11347762D01*
X20375310Y-11328714D01*
X20365786Y-11319190D01*
X20346738Y-11309667D01*
X20308643Y-11309667D01*
X20289595Y-11319190D01*
X20280071Y-11328714D01*
X20270548Y-11347762D01*
X20622929Y-11433476D02*
X20622929Y-11233476D01*
X20708643Y-11433476D02*
X20708643Y-11328714D01*
X20699119Y-11309667D01*
X20680071Y-11300143D01*
X20651500Y-11300143D01*
X20632452Y-11309667D01*
X20622929Y-11319190D01*
X20832452Y-11433476D02*
X20813405Y-11423952D01*
X20803881Y-11414428D01*
X20794357Y-11395381D01*
X20794357Y-11338238D01*
X20803881Y-11319190D01*
X20813405Y-11309667D01*
X20832452Y-11300143D01*
X20861024Y-11300143D01*
X20880071Y-11309667D01*
X20889595Y-11319190D01*
X20899119Y-11338238D01*
X20899119Y-11395381D01*
X20889595Y-11414428D01*
X20880071Y-11423952D01*
X20861024Y-11433476D01*
X20832452Y-11433476D01*
X21013405Y-11433476D02*
X20994357Y-11423952D01*
X20984833Y-11404905D01*
X20984833Y-11233476D01*
X21165786Y-11423952D02*
X21146738Y-11433476D01*
X21108643Y-11433476D01*
X21089595Y-11423952D01*
X21080071Y-11404905D01*
X21080071Y-11328714D01*
X21089595Y-11309667D01*
X21108643Y-11300143D01*
X21146738Y-11300143D01*
X21165786Y-11309667D01*
X21175310Y-11328714D01*
X21175310Y-11347762D01*
X21080071Y-11366809D01*
X21251500Y-11423952D02*
X21270548Y-11433476D01*
X21308643Y-11433476D01*
X21327690Y-11423952D01*
X21337214Y-11404905D01*
X21337214Y-11395381D01*
X21327690Y-11376333D01*
X21308643Y-11366809D01*
X21280071Y-11366809D01*
X21261024Y-11357286D01*
X21251500Y-11338238D01*
X21251500Y-11328714D01*
X21261024Y-11309667D01*
X21280071Y-11300143D01*
X21308643Y-11300143D01*
X21327690Y-11309667D01*
X21403881Y-11509667D02*
X21413405Y-11500143D01*
X21432452Y-11471571D01*
X21441976Y-11452524D01*
X21451500Y-11423952D01*
X21461024Y-11376333D01*
X21461024Y-11338238D01*
X21451500Y-11290619D01*
X21441976Y-11262048D01*
X21432452Y-11243000D01*
X21413405Y-11214428D01*
X21403881Y-11204905D01*
X16341500Y-11707000D02*
X16441500Y-11607000D01*
X16341500Y-11507000D01*
X16241500Y-11607000D01*
X16341500Y-11707000D01*
X16689595Y-11516524D02*
X16699119Y-11507000D01*
X16718167Y-11497476D01*
X16765786Y-11497476D01*
X16784833Y-11507000D01*
X16794357Y-11516524D01*
X16803881Y-11535571D01*
X16803881Y-11554619D01*
X16794357Y-11583190D01*
X16680071Y-11697476D01*
X16803881Y-11697476D01*
X16889595Y-11678428D02*
X16899119Y-11687952D01*
X16889595Y-11697476D01*
X16880071Y-11687952D01*
X16889595Y-11678428D01*
X16889595Y-11697476D01*
X16965786Y-11497476D02*
X17089595Y-11497476D01*
X17022929Y-11573667D01*
X17051500Y-11573667D01*
X17070548Y-11583190D01*
X17080071Y-11592714D01*
X17089595Y-11611762D01*
X17089595Y-11659381D01*
X17080071Y-11678428D01*
X17070548Y-11687952D01*
X17051500Y-11697476D01*
X16994357Y-11697476D01*
X16975310Y-11687952D01*
X16965786Y-11678428D01*
X17213405Y-11497476D02*
X17232452Y-11497476D01*
X17251500Y-11507000D01*
X17261024Y-11516524D01*
X17270548Y-11535571D01*
X17280071Y-11573667D01*
X17280071Y-11621286D01*
X17270548Y-11659381D01*
X17261024Y-11678428D01*
X17251500Y-11687952D01*
X17232452Y-11697476D01*
X17213405Y-11697476D01*
X17194357Y-11687952D01*
X17184833Y-11678428D01*
X17175310Y-11659381D01*
X17165786Y-11621286D01*
X17165786Y-11573667D01*
X17175310Y-11535571D01*
X17184833Y-11516524D01*
X17194357Y-11507000D01*
X17213405Y-11497476D01*
X17403881Y-11497476D02*
X17422929Y-11497476D01*
X17441976Y-11507000D01*
X17451500Y-11516524D01*
X17461024Y-11535571D01*
X17470548Y-11573667D01*
X17470548Y-11621286D01*
X17461024Y-11659381D01*
X17451500Y-11678428D01*
X17441976Y-11687952D01*
X17422929Y-11697476D01*
X17403881Y-11697476D01*
X17384833Y-11687952D01*
X17375310Y-11678428D01*
X17365786Y-11659381D01*
X17356262Y-11621286D01*
X17356262Y-11573667D01*
X17365786Y-11535571D01*
X17375310Y-11516524D01*
X17384833Y-11507000D01*
X17403881Y-11497476D01*
X17556262Y-11697476D02*
X17556262Y-11564143D01*
X17556262Y-11583190D02*
X17565786Y-11573667D01*
X17584833Y-11564143D01*
X17613405Y-11564143D01*
X17632452Y-11573667D01*
X17641976Y-11592714D01*
X17641976Y-11697476D01*
X17641976Y-11592714D02*
X17651500Y-11573667D01*
X17670548Y-11564143D01*
X17699119Y-11564143D01*
X17718167Y-11573667D01*
X17727690Y-11592714D01*
X17727690Y-11697476D01*
X17822929Y-11697476D02*
X17822929Y-11564143D01*
X17822929Y-11583190D02*
X17832452Y-11573667D01*
X17851500Y-11564143D01*
X17880071Y-11564143D01*
X17899119Y-11573667D01*
X17908643Y-11592714D01*
X17908643Y-11697476D01*
X17908643Y-11592714D02*
X17918167Y-11573667D01*
X17937214Y-11564143D01*
X17965786Y-11564143D01*
X17984833Y-11573667D01*
X17994357Y-11592714D01*
X17994357Y-11697476D01*
X18384833Y-11487952D02*
X18213405Y-11745095D01*
X18641976Y-11497476D02*
X18661024Y-11497476D01*
X18680071Y-11507000D01*
X18689595Y-11516524D01*
X18699119Y-11535571D01*
X18708643Y-11573667D01*
X18708643Y-11621286D01*
X18699119Y-11659381D01*
X18689595Y-11678428D01*
X18680071Y-11687952D01*
X18661024Y-11697476D01*
X18641976Y-11697476D01*
X18622929Y-11687952D01*
X18613405Y-11678428D01*
X18603881Y-11659381D01*
X18594357Y-11621286D01*
X18594357Y-11573667D01*
X18603881Y-11535571D01*
X18613405Y-11516524D01*
X18622929Y-11507000D01*
X18641976Y-11497476D01*
X18794357Y-11678428D02*
X18803881Y-11687952D01*
X18794357Y-11697476D01*
X18784833Y-11687952D01*
X18794357Y-11678428D01*
X18794357Y-11697476D01*
X18927690Y-11497476D02*
X18946738Y-11497476D01*
X18965786Y-11507000D01*
X18975310Y-11516524D01*
X18984833Y-11535571D01*
X18994357Y-11573667D01*
X18994357Y-11621286D01*
X18984833Y-11659381D01*
X18975310Y-11678428D01*
X18965786Y-11687952D01*
X18946738Y-11697476D01*
X18927690Y-11697476D01*
X18908643Y-11687952D01*
X18899119Y-11678428D01*
X18889595Y-11659381D01*
X18880071Y-11621286D01*
X18880071Y-11573667D01*
X18889595Y-11535571D01*
X18899119Y-11516524D01*
X18908643Y-11507000D01*
X18927690Y-11497476D01*
X19089595Y-11697476D02*
X19127690Y-11697476D01*
X19146738Y-11687952D01*
X19156262Y-11678428D01*
X19175310Y-11649857D01*
X19184833Y-11611762D01*
X19184833Y-11535571D01*
X19175310Y-11516524D01*
X19165786Y-11507000D01*
X19146738Y-11497476D01*
X19108643Y-11497476D01*
X19089595Y-11507000D01*
X19080071Y-11516524D01*
X19070548Y-11535571D01*
X19070548Y-11583190D01*
X19080071Y-11602238D01*
X19089595Y-11611762D01*
X19108643Y-11621286D01*
X19146738Y-11621286D01*
X19165786Y-11611762D01*
X19175310Y-11602238D01*
X19184833Y-11583190D01*
X19308643Y-11497476D02*
X19327690Y-11497476D01*
X19346738Y-11507000D01*
X19356262Y-11516524D01*
X19365786Y-11535571D01*
X19375310Y-11573667D01*
X19375310Y-11621286D01*
X19365786Y-11659381D01*
X19356262Y-11678428D01*
X19346738Y-11687952D01*
X19327690Y-11697476D01*
X19308643Y-11697476D01*
X19289595Y-11687952D01*
X19280071Y-11678428D01*
X19270548Y-11659381D01*
X19261024Y-11621286D01*
X19261024Y-11573667D01*
X19270548Y-11535571D01*
X19280071Y-11516524D01*
X19289595Y-11507000D01*
X19308643Y-11497476D01*
X19546738Y-11497476D02*
X19508643Y-11497476D01*
X19489595Y-11507000D01*
X19480071Y-11516524D01*
X19461024Y-11545095D01*
X19451500Y-11583190D01*
X19451500Y-11659381D01*
X19461024Y-11678428D01*
X19470548Y-11687952D01*
X19489595Y-11697476D01*
X19527690Y-11697476D01*
X19546738Y-11687952D01*
X19556262Y-11678428D01*
X19565786Y-11659381D01*
X19565786Y-11611762D01*
X19556262Y-11592714D01*
X19546738Y-11583190D01*
X19527690Y-11573667D01*
X19489595Y-11573667D01*
X19470548Y-11583190D01*
X19461024Y-11592714D01*
X19451500Y-11611762D01*
X19641976Y-11497476D02*
X19641976Y-11535571D01*
X19718167Y-11497476D02*
X19718167Y-11535571D01*
X20013405Y-11773667D02*
X20003881Y-11764143D01*
X19984833Y-11735571D01*
X19975310Y-11716524D01*
X19965786Y-11687952D01*
X19956262Y-11640333D01*
X19956262Y-11602238D01*
X19965786Y-11554619D01*
X19975310Y-11526048D01*
X19984833Y-11507000D01*
X20003881Y-11478428D01*
X20013405Y-11468905D01*
X20175310Y-11564143D02*
X20175310Y-11697476D01*
X20127690Y-11487952D02*
X20080071Y-11630809D01*
X20203881Y-11630809D01*
X20432452Y-11697476D02*
X20432452Y-11497476D01*
X20518167Y-11697476D02*
X20518167Y-11592714D01*
X20508643Y-11573667D01*
X20489595Y-11564143D01*
X20461024Y-11564143D01*
X20441976Y-11573667D01*
X20432452Y-11583190D01*
X20641976Y-11697476D02*
X20622929Y-11687952D01*
X20613405Y-11678428D01*
X20603881Y-11659381D01*
X20603881Y-11602238D01*
X20613405Y-11583190D01*
X20622929Y-11573667D01*
X20641976Y-11564143D01*
X20670548Y-11564143D01*
X20689595Y-11573667D01*
X20699119Y-11583190D01*
X20708643Y-11602238D01*
X20708643Y-11659381D01*
X20699119Y-11678428D01*
X20689595Y-11687952D01*
X20670548Y-11697476D01*
X20641976Y-11697476D01*
X20822929Y-11697476D02*
X20803881Y-11687952D01*
X20794357Y-11668905D01*
X20794357Y-11497476D01*
X20975310Y-11687952D02*
X20956262Y-11697476D01*
X20918167Y-11697476D01*
X20899119Y-11687952D01*
X20889595Y-11668905D01*
X20889595Y-11592714D01*
X20899119Y-11573667D01*
X20918167Y-11564143D01*
X20956262Y-11564143D01*
X20975310Y-11573667D01*
X20984833Y-11592714D01*
X20984833Y-11611762D01*
X20889595Y-11630809D01*
X21061024Y-11687952D02*
X21080071Y-11697476D01*
X21118167Y-11697476D01*
X21137214Y-11687952D01*
X21146738Y-11668905D01*
X21146738Y-11659381D01*
X21137214Y-11640333D01*
X21118167Y-11630809D01*
X21089595Y-11630809D01*
X21070548Y-11621286D01*
X21061024Y-11602238D01*
X21061024Y-11592714D01*
X21070548Y-11573667D01*
X21089595Y-11564143D01*
X21118167Y-11564143D01*
X21137214Y-11573667D01*
X21213405Y-11773667D02*
X21222929Y-11764143D01*
X21241976Y-11735571D01*
X21251500Y-11716524D01*
X21261024Y-11687952D01*
X21270548Y-11640333D01*
X21270548Y-11602238D01*
X21261024Y-11554619D01*
X21251500Y-11526048D01*
X21241976Y-11507000D01*
X21222929Y-11478428D01*
X21213405Y-11468905D01*
M02*
