G04 #@! TF.GenerationSoftware,KiCad,Pcbnew,6.0.8-f2edbf62ab~116~ubuntu22.04.1*
G04 #@! TF.CreationDate,2022-10-13T11:50:00+02:00*
G04 #@! TF.ProjectId,Dual USB Controller adapter,4475616c-2055-4534-9220-436f6e74726f,0.3*
G04 #@! TF.SameCoordinates,Original*
G04 #@! TF.FileFunction,Legend,Bot*
G04 #@! TF.FilePolarity,Positive*
%FSLAX46Y46*%
G04 Gerber Fmt 4.6, Leading zero omitted, Abs format (unit mm)*
G04 Created by KiCad (PCBNEW 6.0.8-f2edbf62ab~116~ubuntu22.04.1) date 2022-10-13 11:50:00*
%MOMM*%
%LPD*%
G01*
G04 APERTURE LIST*
G04 Aperture macros list*
%AMFreePoly0*
4,1,22,0.500000,-0.750000,0.000000,-0.750000,0.000000,-0.745033,-0.079941,-0.743568,-0.215256,-0.701293,-0.333266,-0.622738,-0.424486,-0.514219,-0.481581,-0.384460,-0.499164,-0.250000,-0.500000,-0.250000,-0.500000,0.250000,-0.499164,0.250000,-0.499963,0.256109,-0.478152,0.396186,-0.417904,0.524511,-0.324060,0.630769,-0.204165,0.706417,-0.067858,0.745374,0.000000,0.744959,0.000000,0.750000,
0.500000,0.750000,0.500000,-0.750000,0.500000,-0.750000,$1*%
%AMFreePoly1*
4,1,20,0.000000,0.744959,0.073905,0.744508,0.209726,0.703889,0.328688,0.626782,0.421226,0.519385,0.479903,0.390333,0.500000,0.250000,0.500000,-0.250000,0.499851,-0.262216,0.476331,-0.402017,0.414519,-0.529596,0.319384,-0.634700,0.198574,-0.708877,0.061801,-0.746166,0.000000,-0.745033,0.000000,-0.750000,-0.500000,-0.750000,-0.500000,0.750000,0.000000,0.750000,0.000000,0.744959,
0.000000,0.744959,$1*%
G04 Aperture macros list end*
%ADD10C,0.120000*%
%ADD11C,0.220000*%
%ADD12C,0.150000*%
%ADD13C,0.010000*%
%ADD14C,1.500000*%
%ADD15C,3.000000*%
%ADD16R,1.846667X3.480000*%
%ADD17R,1.800000X1.800000*%
%ADD18C,1.800000*%
%ADD19C,1.200000*%
%ADD20R,1.700000X1.700000*%
%ADD21O,1.700000X1.700000*%
%ADD22R,3.480000X1.846667*%
%ADD23FreePoly0,180.000000*%
%ADD24FreePoly1,180.000000*%
%ADD25FreePoly0,0.000000*%
%ADD26FreePoly1,0.000000*%
G04 APERTURE END LIST*
D10*
X192402305Y-91385368D02*
X191944369Y-91843304D01*
X191917432Y-91924116D01*
X191917432Y-91977991D01*
X191944369Y-92058803D01*
X192025181Y-92139616D01*
X192105994Y-92166553D01*
X192052119Y-91735555D02*
X192079056Y-91816367D01*
X192186806Y-91924116D01*
X192267618Y-91951054D01*
X192321493Y-91951054D01*
X192402305Y-91924116D01*
X192563929Y-91762492D01*
X192590867Y-91681680D01*
X192590867Y-91627805D01*
X192563929Y-91546993D01*
X192456180Y-91439243D01*
X192375368Y-91412306D01*
X191755807Y-91493118D02*
X192132931Y-91115994D01*
X192321493Y-90927433D02*
X192321493Y-90981307D01*
X192267618Y-90981307D01*
X192267618Y-90927433D01*
X192321493Y-90927433D01*
X192267618Y-90981307D01*
X191944369Y-90927433D02*
X191728870Y-90711933D01*
X192052119Y-90658059D02*
X191567246Y-91142932D01*
X191486433Y-91169869D01*
X191405621Y-91142932D01*
X191351746Y-91089057D01*
X191163185Y-90900495D02*
X191728870Y-90334810D01*
X190920748Y-90658059D02*
X191217059Y-90361747D01*
X191297872Y-90334810D01*
X191378684Y-90361747D01*
X191459496Y-90442559D01*
X191486433Y-90523372D01*
X191486433Y-90577246D01*
X190786061Y-89769124D02*
X190408937Y-90146248D01*
X191028498Y-90011561D02*
X190732186Y-90307872D01*
X190651374Y-90334810D01*
X190570562Y-90307872D01*
X190489750Y-90227060D01*
X190462812Y-90146248D01*
X190462812Y-90092373D01*
X190139563Y-89876874D02*
X190705249Y-89311189D01*
X190489750Y-89526688D02*
X190462812Y-89445876D01*
X190355063Y-89338126D01*
X190274250Y-89311189D01*
X190220376Y-89311189D01*
X190139563Y-89338126D01*
X189977939Y-89499750D01*
X189951002Y-89580563D01*
X189951002Y-89634437D01*
X189977939Y-89715250D01*
X190085689Y-89822999D01*
X190166501Y-89849937D01*
X189681628Y-89311189D02*
X189627753Y-89311189D01*
X189627753Y-89365063D01*
X189681628Y-89365063D01*
X189681628Y-89311189D01*
X189627753Y-89365063D01*
X189142880Y-88826315D02*
X189169817Y-88907128D01*
X189277567Y-89014877D01*
X189358379Y-89041815D01*
X189412254Y-89041815D01*
X189493066Y-89014877D01*
X189654690Y-88853253D01*
X189681628Y-88772441D01*
X189681628Y-88718566D01*
X189654690Y-88637754D01*
X189546941Y-88530004D01*
X189466128Y-88503067D01*
X188792693Y-88530004D02*
X188873506Y-88556941D01*
X188927380Y-88556941D01*
X189008193Y-88530004D01*
X189169817Y-88368380D01*
X189196754Y-88287567D01*
X189196754Y-88233693D01*
X189169817Y-88152880D01*
X189089005Y-88072068D01*
X189008193Y-88045131D01*
X188954318Y-88045131D01*
X188873506Y-88072068D01*
X188711881Y-88233693D01*
X188684944Y-88314505D01*
X188684944Y-88368380D01*
X188711881Y-88449192D01*
X188792693Y-88530004D01*
X188361695Y-88099006D02*
X188738818Y-87721882D01*
X188684944Y-87775757D02*
X188684944Y-87721882D01*
X188658006Y-87641070D01*
X188577194Y-87560257D01*
X188496382Y-87533320D01*
X188415570Y-87560257D01*
X188119258Y-87856569D01*
X188415570Y-87560257D02*
X188442507Y-87479445D01*
X188415570Y-87398633D01*
X188334757Y-87317821D01*
X188253945Y-87290883D01*
X188173133Y-87317821D01*
X187876822Y-87614132D01*
X187796009Y-86348074D02*
X187553573Y-87560257D01*
X187472761Y-86455824D02*
X187257261Y-86240325D01*
X187014825Y-86752135D02*
X187499698Y-86267262D01*
X187526635Y-86186450D01*
X187499698Y-86105638D01*
X187445823Y-86051763D01*
X186395265Y-86132575D02*
X186718513Y-86455824D01*
X186556889Y-86294200D02*
X187122574Y-85728514D01*
X187095637Y-85863201D01*
X187095637Y-85970951D01*
X187122574Y-86051763D01*
X185910391Y-85647702D02*
X186206703Y-85351391D01*
X186287515Y-85324453D01*
X186368327Y-85351391D01*
X186476077Y-85459140D01*
X186503014Y-85539952D01*
X185937329Y-85620765D02*
X185964266Y-85701577D01*
X186098953Y-85836264D01*
X186179765Y-85863201D01*
X186260578Y-85836264D01*
X186314452Y-85782389D01*
X186341390Y-85701577D01*
X186314452Y-85620765D01*
X186179765Y-85486078D01*
X186152828Y-85405265D01*
X185425518Y-85108954D02*
X185452456Y-85189766D01*
X185560205Y-85297516D01*
X185641017Y-85324453D01*
X185694892Y-85324453D01*
X185775704Y-85297516D01*
X185937329Y-85135891D01*
X185964266Y-85055079D01*
X185964266Y-85001204D01*
X185937329Y-84920392D01*
X185829579Y-84812643D01*
X185748767Y-84785705D01*
X185614080Y-84220020D02*
X185560205Y-84166145D01*
X185479393Y-84139208D01*
X185425518Y-84139208D01*
X185344706Y-84166145D01*
X185210019Y-84246957D01*
X185075332Y-84381644D01*
X184994520Y-84516331D01*
X184967582Y-84597143D01*
X184967582Y-84651018D01*
X184994520Y-84731830D01*
X185048395Y-84785705D01*
X185129207Y-84812643D01*
X185183082Y-84812643D01*
X185263894Y-84785705D01*
X185398581Y-84704893D01*
X185533268Y-84570206D01*
X185614080Y-84435519D01*
X185641017Y-84354707D01*
X185641017Y-84300832D01*
X185614080Y-84220020D01*
X184805958Y-83358023D02*
X184563521Y-84570206D01*
X184024773Y-83762084D02*
X184590459Y-83196398D01*
X184455772Y-83061711D01*
X184348022Y-83007837D01*
X184240272Y-83007837D01*
X184159460Y-83034774D01*
X184024773Y-83115586D01*
X183943961Y-83196398D01*
X183863149Y-83331085D01*
X183836211Y-83411898D01*
X183836211Y-83519647D01*
X183890086Y-83627397D01*
X184024773Y-83762084D01*
X183593775Y-82576838D02*
X183216651Y-82953962D01*
X183836211Y-82819275D02*
X183539900Y-83115586D01*
X183459088Y-83142524D01*
X183378276Y-83115586D01*
X183297463Y-83034774D01*
X183270526Y-82953962D01*
X183270526Y-82900087D01*
X182704841Y-82442151D02*
X183001152Y-82145840D01*
X183081964Y-82118902D01*
X183162776Y-82145840D01*
X183270526Y-82253589D01*
X183297463Y-82334402D01*
X182731778Y-82415214D02*
X182758715Y-82496026D01*
X182893402Y-82630713D01*
X182974215Y-82657650D01*
X183055027Y-82630713D01*
X183108902Y-82576838D01*
X183135839Y-82496026D01*
X183108902Y-82415214D01*
X182974215Y-82280527D01*
X182947277Y-82199715D01*
X182354654Y-82091965D02*
X182435467Y-82118902D01*
X182516279Y-82091965D01*
X183001152Y-81607092D01*
X182354654Y-81660967D02*
X181923656Y-81229968D01*
X182004468Y-80610408D02*
X181546532Y-81068344D01*
X181465720Y-81095281D01*
X181411845Y-81095281D01*
X181331033Y-81068344D01*
X181223284Y-80960594D01*
X181196346Y-80879782D01*
X181196346Y-80825907D01*
X181223284Y-80745095D01*
X181681219Y-80287159D01*
X180900035Y-80583471D02*
X180792285Y-80529596D01*
X180657598Y-80394909D01*
X180630661Y-80314097D01*
X180630661Y-80260222D01*
X180657598Y-80179410D01*
X180711473Y-80125535D01*
X180792285Y-80098597D01*
X180846160Y-80098597D01*
X180926972Y-80125535D01*
X181061659Y-80206347D01*
X181142471Y-80233284D01*
X181196346Y-80233284D01*
X181277158Y-80206347D01*
X181331033Y-80152472D01*
X181357971Y-80071660D01*
X181357971Y-80017785D01*
X181331033Y-79936973D01*
X181196346Y-79802286D01*
X181088597Y-79748411D01*
X180415162Y-79559849D02*
X180307412Y-79505975D01*
X180253537Y-79505975D01*
X180172725Y-79532912D01*
X180091913Y-79613724D01*
X180064975Y-79694536D01*
X180064975Y-79748411D01*
X180091913Y-79829223D01*
X180307412Y-80044723D01*
X180873097Y-79479037D01*
X180684536Y-79290475D01*
X180603723Y-79263538D01*
X180549849Y-79263538D01*
X180469036Y-79290475D01*
X180415162Y-79344350D01*
X180388224Y-79425162D01*
X180388224Y-79479037D01*
X180415162Y-79559849D01*
X180603723Y-79748411D01*
X179957226Y-79263538D02*
X179526227Y-78832539D01*
X178771980Y-78401541D02*
X178771980Y-78455416D01*
X178825855Y-78563165D01*
X178879730Y-78617040D01*
X178987479Y-78670915D01*
X179095229Y-78670915D01*
X179176041Y-78643978D01*
X179310728Y-78563165D01*
X179391540Y-78482353D01*
X179472352Y-78347666D01*
X179499290Y-78266854D01*
X179499290Y-78159104D01*
X179445415Y-78051355D01*
X179391540Y-77997480D01*
X179283791Y-77943605D01*
X179229916Y-77943605D01*
X178394856Y-78132167D02*
X178475669Y-78159104D01*
X178529543Y-78159104D01*
X178610356Y-78132167D01*
X178771980Y-77970543D01*
X178798917Y-77889730D01*
X178798917Y-77835856D01*
X178771980Y-77755043D01*
X178691168Y-77674231D01*
X178610356Y-77647294D01*
X178556481Y-77647294D01*
X178475669Y-77674231D01*
X178314044Y-77835856D01*
X178287107Y-77916668D01*
X178287107Y-77970543D01*
X178314044Y-78051355D01*
X178394856Y-78132167D01*
X178340982Y-77324045D02*
X177963858Y-77701169D01*
X178287107Y-77377920D02*
X178287107Y-77324045D01*
X178260169Y-77243233D01*
X178179357Y-77162421D01*
X178098545Y-77135483D01*
X178017733Y-77162421D01*
X177721421Y-77458732D01*
X177909983Y-76893047D02*
X177694484Y-76677547D01*
X178017733Y-76623673D02*
X177532860Y-77108546D01*
X177452047Y-77135483D01*
X177371235Y-77108546D01*
X177317360Y-77054671D01*
X177128799Y-76866109D02*
X177505922Y-76488986D01*
X177398173Y-76596735D02*
X177425110Y-76515923D01*
X177425110Y-76462048D01*
X177398173Y-76381236D01*
X177344298Y-76327361D01*
X176697800Y-76435111D02*
X176778612Y-76462048D01*
X176832487Y-76462048D01*
X176913299Y-76435111D01*
X177074924Y-76273486D01*
X177101861Y-76192674D01*
X177101861Y-76138799D01*
X177074924Y-76057987D01*
X176994112Y-75977175D01*
X176913299Y-75950238D01*
X176859425Y-75950238D01*
X176778612Y-75977175D01*
X176616988Y-76138799D01*
X176590051Y-76219612D01*
X176590051Y-76273486D01*
X176616988Y-76354299D01*
X176697800Y-76435111D01*
X176185990Y-75923300D02*
X176266802Y-75950238D01*
X176347614Y-75923300D01*
X176832487Y-75438427D01*
X175889678Y-75626989D02*
X175970490Y-75653926D01*
X176051303Y-75626989D01*
X176536176Y-75142116D01*
X175485617Y-75169053D02*
X175512555Y-75249865D01*
X175620304Y-75357615D01*
X175701116Y-75384552D01*
X175781929Y-75357615D01*
X175997428Y-75142116D01*
X176024365Y-75061303D01*
X175997428Y-74980491D01*
X175889678Y-74872742D01*
X175808866Y-74845804D01*
X175728054Y-74872742D01*
X175674179Y-74926616D01*
X175889678Y-75249865D01*
X175189306Y-74926616D02*
X175566429Y-74549493D01*
X175458680Y-74657242D02*
X175485617Y-74576430D01*
X175485617Y-74522555D01*
X175458680Y-74441743D01*
X175404805Y-74387868D01*
X175054619Y-74360931D02*
X174623620Y-73929932D01*
X173896310Y-73633621D02*
X174192622Y-73337310D01*
X174273434Y-73310372D01*
X174354246Y-73337310D01*
X174461996Y-73445059D01*
X174488933Y-73525871D01*
X173923248Y-73606684D02*
X173950185Y-73687496D01*
X174084872Y-73822183D01*
X174165684Y-73849120D01*
X174246497Y-73822183D01*
X174300371Y-73768308D01*
X174327309Y-73687496D01*
X174300371Y-73606684D01*
X174165684Y-73471997D01*
X174138747Y-73391184D01*
X173384500Y-73121810D02*
X173950185Y-72556125D01*
X173411437Y-73094873D02*
X173438375Y-73175685D01*
X173546124Y-73283435D01*
X173626936Y-73310372D01*
X173680811Y-73310372D01*
X173761623Y-73283435D01*
X173923248Y-73121810D01*
X173950185Y-73040998D01*
X173950185Y-72987123D01*
X173923248Y-72906311D01*
X173815498Y-72798562D01*
X173734686Y-72771624D01*
X172872689Y-72610000D02*
X173169001Y-72313688D01*
X173249813Y-72286751D01*
X173330625Y-72313688D01*
X173438375Y-72421438D01*
X173465312Y-72502250D01*
X172899627Y-72583062D02*
X172926564Y-72663875D01*
X173061251Y-72798562D01*
X173142063Y-72825499D01*
X173222875Y-72798562D01*
X173276750Y-72744687D01*
X173303688Y-72663875D01*
X173276750Y-72583062D01*
X173142063Y-72448375D01*
X173115126Y-72367563D01*
X172980439Y-71963502D02*
X172414753Y-72529188D01*
X172953501Y-71990440D02*
X172926564Y-71909627D01*
X172818814Y-71801878D01*
X172738002Y-71774940D01*
X172684127Y-71774940D01*
X172603315Y-71801878D01*
X172441691Y-71963502D01*
X172414753Y-72044314D01*
X172414753Y-72098189D01*
X172441691Y-72179001D01*
X172549440Y-72286751D01*
X172630253Y-72313688D01*
X172549440Y-71532504D02*
X172333941Y-71317005D01*
X172657190Y-71263130D02*
X172172317Y-71748003D01*
X172091505Y-71774940D01*
X172010692Y-71748003D01*
X171956818Y-71694128D01*
X171579694Y-71263130D02*
X171606631Y-71343942D01*
X171714381Y-71451692D01*
X171795193Y-71478629D01*
X171876005Y-71451692D01*
X172091505Y-71236192D01*
X172118442Y-71155380D01*
X172091505Y-71074568D01*
X171983755Y-70966818D01*
X171902943Y-70939881D01*
X171822131Y-70966818D01*
X171768256Y-71020693D01*
X171983755Y-71343942D01*
X171283383Y-71020693D02*
X171660506Y-70643570D01*
X171552757Y-70751319D02*
X171579694Y-70670507D01*
X171579694Y-70616632D01*
X171552757Y-70535820D01*
X171498882Y-70481945D01*
D11*
X190963385Y-85349603D02*
X191882624Y-84430364D01*
X191663757Y-84211498D01*
X191488664Y-84123951D01*
X191313571Y-84123951D01*
X191182251Y-84167725D01*
X190963385Y-84299045D01*
X190832065Y-84430364D01*
X190700745Y-84649231D01*
X190656972Y-84780551D01*
X190656972Y-84955644D01*
X190744519Y-85130737D01*
X190963385Y-85349603D01*
X190263013Y-83423579D02*
X189650187Y-84036405D01*
X190656972Y-83817539D02*
X190175466Y-84299045D01*
X190044146Y-84342818D01*
X189912826Y-84299045D01*
X189781506Y-84167725D01*
X189737733Y-84036405D01*
X189737733Y-83948858D01*
X188818494Y-83204713D02*
X189300000Y-82723207D01*
X189431320Y-82679433D01*
X189562640Y-82723207D01*
X189737733Y-82898300D01*
X189781506Y-83029620D01*
X188862268Y-83160939D02*
X188906041Y-83292259D01*
X189124907Y-83511126D01*
X189256227Y-83554899D01*
X189387547Y-83511126D01*
X189475094Y-83423579D01*
X189518867Y-83292259D01*
X189475094Y-83160939D01*
X189256227Y-82942073D01*
X189212454Y-82810753D01*
X188249442Y-82635660D02*
X188380762Y-82679433D01*
X188512081Y-82635660D01*
X189300000Y-81847741D01*
X188118122Y-80665863D02*
X187373976Y-81410008D01*
X187242656Y-81453782D01*
X187155110Y-81453782D01*
X187023790Y-81410008D01*
X186848697Y-81234915D01*
X186804924Y-81103595D01*
X186804924Y-81016049D01*
X186848697Y-80884729D01*
X187592843Y-80140583D01*
X186323418Y-80622089D02*
X186148324Y-80534543D01*
X185929458Y-80315676D01*
X185885685Y-80184357D01*
X185885685Y-80096810D01*
X185929458Y-79965490D01*
X186017005Y-79877944D01*
X186148324Y-79834170D01*
X186235871Y-79834170D01*
X186367191Y-79877944D01*
X186586057Y-80009263D01*
X186717377Y-80053037D01*
X186804924Y-80053037D01*
X186936243Y-80009263D01*
X187023790Y-79921717D01*
X187067563Y-79790397D01*
X187067563Y-79702850D01*
X187023790Y-79571531D01*
X186804924Y-79352664D01*
X186629831Y-79265118D01*
X185535499Y-78958705D02*
X185360405Y-78871158D01*
X185272859Y-78871158D01*
X185141539Y-78914931D01*
X185010219Y-79046251D01*
X184966446Y-79177571D01*
X184966446Y-79265118D01*
X185010219Y-79396438D01*
X185360405Y-79746624D01*
X186279644Y-78827385D01*
X185973231Y-78520972D01*
X185841912Y-78477199D01*
X185754365Y-78477199D01*
X185623045Y-78520972D01*
X185535499Y-78608519D01*
X185491725Y-78739838D01*
X185491725Y-78827385D01*
X185535499Y-78958705D01*
X185841912Y-79265118D01*
X183303061Y-77514187D02*
X183303061Y-77601733D01*
X183390608Y-77776826D01*
X183478155Y-77864373D01*
X183653248Y-77951919D01*
X183828341Y-77951919D01*
X183959661Y-77908146D01*
X184178527Y-77776826D01*
X184309847Y-77645506D01*
X184441167Y-77426640D01*
X184484940Y-77295320D01*
X184484940Y-77120227D01*
X184397393Y-76945134D01*
X184309847Y-76857587D01*
X184134754Y-76770041D01*
X184047207Y-76770041D01*
X182690236Y-77076454D02*
X182821555Y-77120227D01*
X182909102Y-77120227D01*
X183040422Y-77076454D01*
X183303061Y-76813814D01*
X183346835Y-76682494D01*
X183346835Y-76594948D01*
X183303061Y-76463628D01*
X183171742Y-76332308D01*
X183040422Y-76288535D01*
X182952875Y-76288535D01*
X182821555Y-76332308D01*
X182558916Y-76594948D01*
X182515142Y-76726268D01*
X182515142Y-76813814D01*
X182558916Y-76945134D01*
X182690236Y-77076454D01*
X182602689Y-75763256D02*
X181989863Y-76376081D01*
X182515142Y-75850802D02*
X182515142Y-75763256D01*
X182471369Y-75631936D01*
X182340049Y-75500616D01*
X182208730Y-75456843D01*
X182077410Y-75500616D01*
X181595904Y-75982122D01*
X181902317Y-75062883D02*
X181552130Y-74712697D01*
X182077410Y-74625150D02*
X181289491Y-75413069D01*
X181158171Y-75456843D01*
X181026851Y-75413069D01*
X180939305Y-75325523D01*
X180632892Y-75019110D02*
X181245717Y-74406284D01*
X181070624Y-74581377D02*
X181114398Y-74450057D01*
X181114398Y-74362511D01*
X181070624Y-74231191D01*
X180983078Y-74143644D01*
X179932519Y-74318737D02*
X180063839Y-74362511D01*
X180151386Y-74362511D01*
X180282705Y-74318737D01*
X180545345Y-74056098D01*
X180589118Y-73924778D01*
X180589118Y-73837231D01*
X180545345Y-73705912D01*
X180414025Y-73574592D01*
X180282705Y-73530818D01*
X180195159Y-73530818D01*
X180063839Y-73574592D01*
X179801199Y-73837231D01*
X179757426Y-73968551D01*
X179757426Y-74056098D01*
X179801199Y-74187418D01*
X179932519Y-74318737D01*
X179100827Y-73487045D02*
X179232147Y-73530818D01*
X179363467Y-73487045D01*
X180151386Y-72699126D01*
X178619321Y-73005539D02*
X178750641Y-73049312D01*
X178881960Y-73005539D01*
X179669879Y-72217620D01*
X177962722Y-72261393D02*
X178006495Y-72392713D01*
X178181588Y-72567806D01*
X178312908Y-72611580D01*
X178444228Y-72567806D01*
X178794414Y-72217620D01*
X178838187Y-72086300D01*
X178794414Y-71954980D01*
X178619321Y-71779887D01*
X178488001Y-71736114D01*
X178356681Y-71779887D01*
X178269135Y-71867434D01*
X178619321Y-72392713D01*
X177481216Y-71867434D02*
X178094042Y-71254608D01*
X177918948Y-71429701D02*
X177962722Y-71298381D01*
X177962722Y-71210835D01*
X177918948Y-71079515D01*
X177831402Y-70991968D01*
X190446423Y-87792589D02*
X190927929Y-87311083D01*
X191059249Y-87267310D01*
X191190569Y-87311083D01*
X191365662Y-87486176D01*
X191409435Y-87617496D01*
X190490196Y-87748816D02*
X190533970Y-87880136D01*
X190752836Y-88099002D01*
X190884156Y-88142776D01*
X191015476Y-88099002D01*
X191103022Y-88011456D01*
X191146795Y-87880136D01*
X191103022Y-87748816D01*
X190884156Y-87529950D01*
X190840383Y-87398630D01*
X189614731Y-86960897D02*
X190533970Y-86041658D01*
X189658504Y-86917124D02*
X189702277Y-87048444D01*
X189877370Y-87223537D01*
X190008690Y-87267310D01*
X190096237Y-87267310D01*
X190227557Y-87223537D01*
X190490196Y-86960897D01*
X190533970Y-86829577D01*
X190533970Y-86742031D01*
X190490196Y-86610711D01*
X190315103Y-86435618D01*
X190183783Y-86391844D01*
X188783039Y-86129205D02*
X189264545Y-85647699D01*
X189395864Y-85603925D01*
X189527184Y-85647699D01*
X189702277Y-85822792D01*
X189746051Y-85954112D01*
X188826812Y-86085431D02*
X188870585Y-86216751D01*
X189089451Y-86435618D01*
X189220771Y-86479391D01*
X189352091Y-86435618D01*
X189439638Y-86348071D01*
X189483411Y-86216751D01*
X189439638Y-86085431D01*
X189220771Y-85866565D01*
X189176998Y-85735245D01*
X188958132Y-85078646D02*
X188038893Y-85997885D01*
X188914358Y-85122419D02*
X188870585Y-84991100D01*
X188695492Y-84816006D01*
X188564172Y-84772233D01*
X188476626Y-84772233D01*
X188345306Y-84816006D01*
X188082666Y-85078646D01*
X188038893Y-85209966D01*
X188038893Y-85297513D01*
X188082666Y-85428832D01*
X188257759Y-85603925D01*
X188389079Y-85647699D01*
X188257759Y-84378274D02*
X187907573Y-84028087D01*
X188432852Y-83940541D02*
X187644933Y-84728460D01*
X187513613Y-84772233D01*
X187382294Y-84728460D01*
X187294747Y-84640913D01*
X186681921Y-83940541D02*
X186725694Y-84071861D01*
X186900788Y-84246954D01*
X187032107Y-84290727D01*
X187163427Y-84246954D01*
X187513613Y-83896768D01*
X187557387Y-83765448D01*
X187513613Y-83634128D01*
X187338520Y-83459035D01*
X187207201Y-83415262D01*
X187075881Y-83459035D01*
X186988334Y-83546581D01*
X187338520Y-84071861D01*
X186200415Y-83546581D02*
X186813241Y-82933756D01*
X186638148Y-83108849D02*
X186681921Y-82977529D01*
X186681921Y-82889982D01*
X186638148Y-82758662D01*
X186550601Y-82671116D01*
X185675136Y-81795650D02*
X185324950Y-81445464D01*
X184930990Y-82277156D02*
X185718909Y-81489237D01*
X185762682Y-81357918D01*
X185718909Y-81226598D01*
X185631363Y-81139051D01*
X184274391Y-81620557D02*
X184405711Y-81664331D01*
X184493257Y-81664331D01*
X184624577Y-81620557D01*
X184887217Y-81357918D01*
X184930990Y-81226598D01*
X184930990Y-81139051D01*
X184887217Y-81007731D01*
X184755897Y-80876412D01*
X184624577Y-80832638D01*
X184537031Y-80832638D01*
X184405711Y-80876412D01*
X184143071Y-81139051D01*
X184099298Y-81270371D01*
X184099298Y-81357918D01*
X184143071Y-81489237D01*
X184274391Y-81620557D01*
X183574019Y-80920185D02*
X184186844Y-80307359D01*
X184011751Y-80482452D02*
X184055525Y-80351132D01*
X184055525Y-80263586D01*
X184011751Y-80132266D01*
X183924205Y-80044719D01*
X182611006Y-79431893D02*
X182173274Y-78994161D01*
X182435913Y-79782080D02*
X183048739Y-78556428D01*
X181823087Y-79169254D01*
X181516675Y-78862841D02*
X182129500Y-78250015D01*
X182041954Y-78337561D02*
X182041954Y-78250015D01*
X181998181Y-78118695D01*
X181866861Y-77987375D01*
X181735541Y-77943602D01*
X181604221Y-77987375D01*
X181122715Y-78468881D01*
X181604221Y-77987375D02*
X181647994Y-77856055D01*
X181604221Y-77724736D01*
X181472901Y-77593416D01*
X181341581Y-77549642D01*
X181210262Y-77593416D01*
X180728756Y-78074922D01*
X180291023Y-77637189D02*
X180903849Y-77024363D01*
X181210262Y-76717950D02*
X181210262Y-76805497D01*
X181122715Y-76805497D01*
X181122715Y-76717950D01*
X181210262Y-76717950D01*
X181122715Y-76805497D01*
X180072156Y-76192671D02*
X179328011Y-76936817D01*
X179284237Y-77068136D01*
X179284237Y-77155683D01*
X179328011Y-77287003D01*
X179459331Y-77418323D01*
X179590650Y-77462096D01*
X179503104Y-76761723D02*
X179546877Y-76893043D01*
X179721970Y-77068136D01*
X179853290Y-77111910D01*
X179940837Y-77111910D01*
X180072156Y-77068136D01*
X180334796Y-76805497D01*
X180378569Y-76674177D01*
X180378569Y-76586630D01*
X180334796Y-76455311D01*
X180159703Y-76280217D01*
X180028383Y-76236444D01*
X178627638Y-75973805D02*
X179109144Y-75492298D01*
X179240464Y-75448525D01*
X179371784Y-75492298D01*
X179546877Y-75667392D01*
X179590650Y-75798711D01*
X178671412Y-75930031D02*
X178715185Y-76061351D01*
X178934051Y-76280217D01*
X179065371Y-76323991D01*
X179196691Y-76280217D01*
X179284237Y-76192671D01*
X179328011Y-76061351D01*
X179284237Y-75930031D01*
X179065371Y-75711165D01*
X179021598Y-75579845D01*
X178496318Y-73916460D02*
X178102359Y-75886258D01*
X177533306Y-74354193D02*
X177095574Y-73916460D01*
X177358213Y-74704379D02*
X177971039Y-73478728D01*
X176745387Y-74091554D01*
X177183120Y-73303635D02*
X176832934Y-72953448D01*
X177358213Y-72865902D02*
X176570294Y-73653821D01*
X176438974Y-73697594D01*
X176307655Y-73653821D01*
X176220108Y-73566274D01*
X175519736Y-72865902D02*
X176001242Y-72384396D01*
X176132561Y-72340623D01*
X176263881Y-72384396D01*
X176438974Y-72559489D01*
X176482748Y-72690809D01*
X175563509Y-72822129D02*
X175607282Y-72953448D01*
X175826149Y-73172315D01*
X175957468Y-73216088D01*
X176088788Y-73172315D01*
X176176335Y-73084768D01*
X176220108Y-72953448D01*
X176176335Y-72822129D01*
X175957468Y-72603262D01*
X175913695Y-72471942D01*
X175082003Y-72428169D02*
X175694829Y-71815343D01*
X175519736Y-71990436D02*
X175563509Y-71859116D01*
X175563509Y-71771570D01*
X175519736Y-71640250D01*
X175432189Y-71552704D01*
X174512950Y-71859116D02*
X175125776Y-71246291D01*
X175432189Y-70939878D02*
X175432189Y-71027424D01*
X175344642Y-71027424D01*
X175344642Y-70939878D01*
X175432189Y-70939878D01*
X175344642Y-71027424D01*
D12*
X185814583Y-87415568D02*
X186050285Y-87651270D01*
X185679896Y-88021659D02*
X186387003Y-87314552D01*
X186050285Y-86977835D01*
X184737087Y-87078850D02*
X185073804Y-87415568D01*
X185780911Y-86708461D01*
X184737087Y-86674789D02*
X184400369Y-86338072D01*
X184602400Y-86944163D02*
X185073804Y-86001354D01*
X184130995Y-86472759D01*
X183558575Y-85765652D02*
X183558575Y-85832995D01*
X183625919Y-85967682D01*
X183693263Y-86035026D01*
X183827950Y-86102369D01*
X183962637Y-86102369D01*
X184063652Y-86068698D01*
X184232011Y-85967682D01*
X184333026Y-85866667D01*
X184434041Y-85698308D01*
X184467713Y-85597293D01*
X184467713Y-85462606D01*
X184400369Y-85327919D01*
X184333026Y-85260575D01*
X184198339Y-85193232D01*
X184130995Y-85193232D01*
X183760606Y-84688156D02*
X183625919Y-84553469D01*
X183524904Y-84519797D01*
X183390217Y-84519797D01*
X183221858Y-84620812D01*
X182986156Y-84856514D01*
X182885140Y-85024873D01*
X182885140Y-85159560D01*
X182918812Y-85260575D01*
X183053499Y-85395263D01*
X183154514Y-85428934D01*
X183289201Y-85428934D01*
X183457560Y-85327919D01*
X183693263Y-85092217D01*
X183794278Y-84923858D01*
X183794278Y-84789171D01*
X183760606Y-84688156D01*
X182582095Y-83644331D02*
X182582095Y-83576988D01*
X182548423Y-83475973D01*
X182380064Y-83307614D01*
X182279049Y-83273942D01*
X182211705Y-83273942D01*
X182110690Y-83307614D01*
X182043347Y-83374957D01*
X181976003Y-83509644D01*
X181976003Y-84317766D01*
X181538270Y-83880034D01*
X181807644Y-82735194D02*
X181740301Y-82667851D01*
X181639286Y-82634179D01*
X181571942Y-82634179D01*
X181470927Y-82667851D01*
X181302568Y-82768866D01*
X181134209Y-82937225D01*
X181033194Y-83105583D01*
X180999522Y-83206599D01*
X180999522Y-83273942D01*
X181033194Y-83374957D01*
X181100538Y-83442301D01*
X181201553Y-83475973D01*
X181268896Y-83475973D01*
X181369912Y-83442301D01*
X181538270Y-83341286D01*
X181706629Y-83172927D01*
X181807644Y-83004568D01*
X181841316Y-82903553D01*
X181841316Y-82836209D01*
X181807644Y-82735194D01*
X181235225Y-82297461D02*
X181235225Y-82230118D01*
X181201553Y-82129103D01*
X181033194Y-81960744D01*
X180932179Y-81927072D01*
X180864835Y-81927072D01*
X180763820Y-81960744D01*
X180696477Y-82028087D01*
X180629133Y-82162774D01*
X180629133Y-82970896D01*
X180191400Y-82533164D01*
X180460774Y-81388324D02*
X180393431Y-81320981D01*
X180292416Y-81287309D01*
X180225072Y-81287309D01*
X180124057Y-81320981D01*
X179955698Y-81421996D01*
X179787339Y-81590355D01*
X179686324Y-81758713D01*
X179652652Y-81859729D01*
X179652652Y-81927072D01*
X179686324Y-82028087D01*
X179753668Y-82095431D01*
X179854683Y-82129103D01*
X179922026Y-82129103D01*
X180023042Y-82095431D01*
X180191400Y-81994416D01*
X180359759Y-81826057D01*
X180460774Y-81657698D01*
X180494446Y-81556683D01*
X180494446Y-81489339D01*
X180460774Y-81388324D01*
X178945546Y-80748561D02*
X178406798Y-80209813D01*
X177800706Y-79199660D02*
X177160943Y-79502706D01*
X177463988Y-78862943D01*
X177295630Y-78223179D02*
X177228286Y-78155836D01*
X177127271Y-78122164D01*
X177059927Y-78122164D01*
X176958912Y-78155836D01*
X176790553Y-78256851D01*
X176622195Y-78425210D01*
X176521179Y-78593569D01*
X176487508Y-78694584D01*
X176487508Y-78761927D01*
X176521179Y-78862943D01*
X176588523Y-78930286D01*
X176689538Y-78963958D01*
X176756882Y-78963958D01*
X176857897Y-78930286D01*
X177026256Y-78829271D01*
X177194614Y-78660912D01*
X177295630Y-78492553D01*
X177329301Y-78391538D01*
X177329301Y-78324195D01*
X177295630Y-78223179D01*
X176117118Y-78324195D02*
X176049775Y-78324195D01*
X176049775Y-78391538D01*
X176117118Y-78391538D01*
X176117118Y-78324195D01*
X176049775Y-78391538D01*
X176487508Y-77415057D02*
X176049775Y-76977325D01*
X176016103Y-77482401D01*
X175915088Y-77381386D01*
X175814073Y-77347714D01*
X175746729Y-77347714D01*
X175645714Y-77381386D01*
X175477355Y-77549744D01*
X175443683Y-77650760D01*
X175443683Y-77718103D01*
X175477355Y-77819118D01*
X175679386Y-78021149D01*
X175780401Y-78054821D01*
X175847744Y-78054821D01*
X196390464Y-69054975D02*
X196040278Y-69405161D01*
X196444339Y-69432098D01*
X196363527Y-69512910D01*
X196336589Y-69593723D01*
X196336589Y-69647597D01*
X196363527Y-69728410D01*
X196498214Y-69863097D01*
X196579026Y-69890034D01*
X196632901Y-69890034D01*
X196713713Y-69863097D01*
X196875337Y-69701472D01*
X196902275Y-69620660D01*
X196902275Y-69566785D01*
X196309652Y-70159408D02*
X196309652Y-70213283D01*
X196363527Y-70213283D01*
X196363527Y-70159408D01*
X196309652Y-70159408D01*
X196363527Y-70213283D01*
X195582342Y-69863097D02*
X195232156Y-70213283D01*
X195636217Y-70240220D01*
X195555405Y-70321032D01*
X195528467Y-70401845D01*
X195528467Y-70455719D01*
X195555405Y-70536532D01*
X195690092Y-70671219D01*
X195770904Y-70698156D01*
X195824779Y-70698156D01*
X195905591Y-70671219D01*
X196067215Y-70509594D01*
X196094153Y-70428782D01*
X196094153Y-70374907D01*
X195232156Y-70590406D02*
X195474593Y-71102217D01*
X194962782Y-70859780D01*
X196067215Y-71337098D02*
X196094153Y-71256286D01*
X196174965Y-71175474D01*
X196282715Y-71121599D01*
X196390464Y-71121599D01*
X196471276Y-71148536D01*
X196605963Y-71229349D01*
X196686776Y-71310161D01*
X196767588Y-71444848D01*
X196794525Y-71525660D01*
X196794525Y-71633410D01*
X196740650Y-71741159D01*
X196686776Y-71795034D01*
X196579026Y-71848909D01*
X196525151Y-71848909D01*
X196336589Y-71660347D01*
X196444339Y-71552597D01*
X196336589Y-72145220D02*
X195770904Y-71579535D01*
X196013341Y-72468469D01*
X195447655Y-71902784D01*
X195743967Y-72737843D02*
X195178281Y-72172158D01*
X195043594Y-72306845D01*
X194989719Y-72414594D01*
X194989719Y-72522344D01*
X195016657Y-72603156D01*
X195097469Y-72737843D01*
X195178281Y-72818655D01*
X195312968Y-72899467D01*
X195393780Y-72926405D01*
X195501530Y-72926405D01*
X195609280Y-72872530D01*
X195743967Y-72737843D01*
X194425775Y-64159660D02*
X194371900Y-64267410D01*
X194237213Y-64402097D01*
X194156401Y-64429034D01*
X194102526Y-64429034D01*
X194021714Y-64402097D01*
X193967839Y-64348222D01*
X193940902Y-64267410D01*
X193940902Y-64213535D01*
X193967839Y-64132723D01*
X194048651Y-63998036D01*
X194075589Y-63917223D01*
X194075589Y-63863349D01*
X194048651Y-63782536D01*
X193994776Y-63728662D01*
X193913964Y-63701724D01*
X193860089Y-63701724D01*
X193779277Y-63728662D01*
X193644590Y-63863349D01*
X193590715Y-63971098D01*
X193375216Y-64132723D02*
X193806215Y-64833095D01*
X193294404Y-64536784D01*
X193590715Y-65048594D01*
X192890343Y-64617596D01*
X193240529Y-65398780D02*
X192674844Y-64833095D01*
X192540157Y-64967782D01*
X192486282Y-65075532D01*
X192486282Y-65183281D01*
X192513219Y-65264093D01*
X192594032Y-65398780D01*
X192674844Y-65479593D01*
X192809531Y-65560405D01*
X192890343Y-65587342D01*
X192998093Y-65587342D01*
X193105842Y-65533467D01*
X193240529Y-65398780D01*
X192674844Y-65964466D02*
X192109158Y-65398780D01*
X191732035Y-65775904D02*
X191624285Y-65883654D01*
X191597348Y-65964466D01*
X191597348Y-66072215D01*
X191678160Y-66206902D01*
X191866722Y-66395464D01*
X192001409Y-66476276D01*
X192109158Y-66476276D01*
X192189971Y-66449339D01*
X192297720Y-66341589D01*
X192324658Y-66260777D01*
X192324658Y-66153028D01*
X192243845Y-66018341D01*
X192055284Y-65829779D01*
X191920597Y-65748967D01*
X191812847Y-65748967D01*
X191732035Y-65775904D01*
X196584775Y-66128160D02*
X196530900Y-66235910D01*
X196396213Y-66370597D01*
X196315401Y-66397534D01*
X196261526Y-66397534D01*
X196180714Y-66370597D01*
X196126839Y-66316722D01*
X196099902Y-66235910D01*
X196099902Y-66182035D01*
X196126839Y-66101223D01*
X196207651Y-65966536D01*
X196234589Y-65885723D01*
X196234589Y-65831849D01*
X196207651Y-65751036D01*
X196153776Y-65697162D01*
X196072964Y-65670224D01*
X196019089Y-65670224D01*
X195938277Y-65697162D01*
X195803590Y-65831849D01*
X195749715Y-65939598D01*
X195534216Y-66101223D02*
X195965215Y-66801595D01*
X195453404Y-66505284D01*
X195749715Y-67017094D01*
X195049343Y-66586096D01*
X195022406Y-67636654D02*
X195076280Y-67636654D01*
X195184030Y-67582780D01*
X195237905Y-67528905D01*
X195291780Y-67421155D01*
X195291780Y-67313406D01*
X195264842Y-67232593D01*
X195184030Y-67097906D01*
X195103218Y-67017094D01*
X194968531Y-66936282D01*
X194887719Y-66909345D01*
X194779969Y-66909345D01*
X194672219Y-66963219D01*
X194618345Y-67017094D01*
X194564470Y-67124844D01*
X194564470Y-67178719D01*
X194564470Y-68202340D02*
X194833844Y-67932966D01*
X194268158Y-67367280D01*
X194375908Y-68390902D02*
X193810223Y-67825216D01*
X194052659Y-68714150D02*
X193971847Y-68148465D01*
X193486974Y-68148465D02*
X194133471Y-68148465D01*
X183555000Y-68127619D02*
X182983571Y-68127619D01*
X183269285Y-68127619D02*
X183269285Y-69127619D01*
X183174047Y-68984761D01*
X183078809Y-68889523D01*
X182983571Y-68841904D01*
X183983571Y-68222857D02*
X184031190Y-68175238D01*
X183983571Y-68127619D01*
X183935952Y-68175238D01*
X183983571Y-68222857D01*
X183983571Y-68127619D01*
X184459761Y-68127619D02*
X184459761Y-69127619D01*
X184793095Y-68413333D01*
X185126428Y-69127619D01*
X185126428Y-68127619D01*
X185793095Y-69127619D02*
X185983571Y-69127619D01*
X186078809Y-69080000D01*
X186174047Y-68984761D01*
X186221666Y-68794285D01*
X186221666Y-68460952D01*
X186174047Y-68270476D01*
X186078809Y-68175238D01*
X185983571Y-68127619D01*
X185793095Y-68127619D01*
X185697857Y-68175238D01*
X185602619Y-68270476D01*
X185555000Y-68460952D01*
X185555000Y-68794285D01*
X185602619Y-68984761D01*
X185697857Y-69080000D01*
X185793095Y-69127619D01*
X186650238Y-69127619D02*
X186650238Y-68318095D01*
X186697857Y-68222857D01*
X186745476Y-68175238D01*
X186840714Y-68127619D01*
X187031190Y-68127619D01*
X187126428Y-68175238D01*
X187174047Y-68222857D01*
X187221666Y-68318095D01*
X187221666Y-69127619D01*
X187650238Y-68175238D02*
X187793095Y-68127619D01*
X188031190Y-68127619D01*
X188126428Y-68175238D01*
X188174047Y-68222857D01*
X188221666Y-68318095D01*
X188221666Y-68413333D01*
X188174047Y-68508571D01*
X188126428Y-68556190D01*
X188031190Y-68603809D01*
X187840714Y-68651428D01*
X187745476Y-68699047D01*
X187697857Y-68746666D01*
X187650238Y-68841904D01*
X187650238Y-68937142D01*
X187697857Y-69032380D01*
X187745476Y-69080000D01*
X187840714Y-69127619D01*
X188078809Y-69127619D01*
X188221666Y-69080000D01*
X188650238Y-68651428D02*
X188983571Y-68651428D01*
X189126428Y-68127619D02*
X188650238Y-68127619D01*
X188650238Y-69127619D01*
X189126428Y-69127619D01*
X170727619Y-73826428D02*
X169918095Y-73826428D01*
X169822857Y-73778809D01*
X169775238Y-73731190D01*
X169727619Y-73635952D01*
X169727619Y-73445476D01*
X169775238Y-73350238D01*
X169822857Y-73302619D01*
X169918095Y-73255000D01*
X170727619Y-73255000D01*
X169775238Y-72826428D02*
X169727619Y-72683571D01*
X169727619Y-72445476D01*
X169775238Y-72350238D01*
X169822857Y-72302619D01*
X169918095Y-72255000D01*
X170013333Y-72255000D01*
X170108571Y-72302619D01*
X170156190Y-72350238D01*
X170203809Y-72445476D01*
X170251428Y-72635952D01*
X170299047Y-72731190D01*
X170346666Y-72778809D01*
X170441904Y-72826428D01*
X170537142Y-72826428D01*
X170632380Y-72778809D01*
X170680000Y-72731190D01*
X170727619Y-72635952D01*
X170727619Y-72397857D01*
X170680000Y-72255000D01*
X170251428Y-71493095D02*
X170203809Y-71350238D01*
X170156190Y-71302619D01*
X170060952Y-71255000D01*
X169918095Y-71255000D01*
X169822857Y-71302619D01*
X169775238Y-71350238D01*
X169727619Y-71445476D01*
X169727619Y-71826428D01*
X170727619Y-71826428D01*
X170727619Y-71493095D01*
X170680000Y-71397857D01*
X170632380Y-71350238D01*
X170537142Y-71302619D01*
X170441904Y-71302619D01*
X170346666Y-71350238D01*
X170299047Y-71397857D01*
X170251428Y-71493095D01*
X170251428Y-71826428D01*
X170013333Y-70112142D02*
X170013333Y-69635952D01*
X169727619Y-70207380D02*
X170727619Y-69874047D01*
X169727619Y-69540714D01*
X176779880Y-67630190D02*
X176894166Y-67592095D01*
X177084642Y-67592095D01*
X177160833Y-67630190D01*
X177198928Y-67668285D01*
X177237023Y-67744476D01*
X177237023Y-67820666D01*
X177198928Y-67896857D01*
X177160833Y-67934952D01*
X177084642Y-67973047D01*
X176932261Y-68011142D01*
X176856071Y-68049238D01*
X176817976Y-68087333D01*
X176779880Y-68163523D01*
X176779880Y-68239714D01*
X176817976Y-68315904D01*
X176856071Y-68354000D01*
X176932261Y-68392095D01*
X177122738Y-68392095D01*
X177237023Y-68354000D01*
X177884642Y-67630190D02*
X177808452Y-67592095D01*
X177656071Y-67592095D01*
X177579880Y-67630190D01*
X177541785Y-67706380D01*
X177541785Y-68011142D01*
X177579880Y-68087333D01*
X177656071Y-68125428D01*
X177808452Y-68125428D01*
X177884642Y-68087333D01*
X177922738Y-68011142D01*
X177922738Y-67934952D01*
X177541785Y-67858761D01*
X178379880Y-67592095D02*
X178303690Y-67630190D01*
X178265595Y-67706380D01*
X178265595Y-68392095D01*
X178570357Y-68125428D02*
X178875119Y-68125428D01*
X178684642Y-67592095D02*
X178684642Y-68277809D01*
X178722738Y-68354000D01*
X178798928Y-68392095D01*
X178875119Y-68392095D01*
X179141785Y-67896857D02*
X179751309Y-67896857D01*
X176817976Y-66304095D02*
X176817976Y-67104095D01*
X177122738Y-67104095D01*
X177198928Y-67066000D01*
X177237023Y-67027904D01*
X177275119Y-66951714D01*
X177275119Y-66837428D01*
X177237023Y-66761238D01*
X177198928Y-66723142D01*
X177122738Y-66685047D01*
X176817976Y-66685047D01*
X177732261Y-66304095D02*
X177656071Y-66342190D01*
X177617976Y-66380285D01*
X177579880Y-66456476D01*
X177579880Y-66685047D01*
X177617976Y-66761238D01*
X177656071Y-66799333D01*
X177732261Y-66837428D01*
X177846547Y-66837428D01*
X177922738Y-66799333D01*
X177960833Y-66761238D01*
X177998928Y-66685047D01*
X177998928Y-66456476D01*
X177960833Y-66380285D01*
X177922738Y-66342190D01*
X177846547Y-66304095D01*
X177732261Y-66304095D01*
X178265595Y-66837428D02*
X178417976Y-66304095D01*
X178570357Y-66685047D01*
X178722738Y-66304095D01*
X178875119Y-66837428D01*
X179484642Y-66342190D02*
X179408452Y-66304095D01*
X179256071Y-66304095D01*
X179179880Y-66342190D01*
X179141785Y-66418380D01*
X179141785Y-66723142D01*
X179179880Y-66799333D01*
X179256071Y-66837428D01*
X179408452Y-66837428D01*
X179484642Y-66799333D01*
X179522738Y-66723142D01*
X179522738Y-66646952D01*
X179141785Y-66570761D01*
X179865595Y-66304095D02*
X179865595Y-66837428D01*
X179865595Y-66685047D02*
X179903690Y-66761238D01*
X179941785Y-66799333D01*
X180017976Y-66837428D01*
X180094166Y-66837428D01*
X170727619Y-92312857D02*
X169918095Y-92312857D01*
X169822857Y-92265238D01*
X169775238Y-92217619D01*
X169727619Y-92122380D01*
X169727619Y-91931904D01*
X169775238Y-91836666D01*
X169822857Y-91789047D01*
X169918095Y-91741428D01*
X170727619Y-91741428D01*
X169775238Y-91312857D02*
X169727619Y-91170000D01*
X169727619Y-90931904D01*
X169775238Y-90836666D01*
X169822857Y-90789047D01*
X169918095Y-90741428D01*
X170013333Y-90741428D01*
X170108571Y-90789047D01*
X170156190Y-90836666D01*
X170203809Y-90931904D01*
X170251428Y-91122380D01*
X170299047Y-91217619D01*
X170346666Y-91265238D01*
X170441904Y-91312857D01*
X170537142Y-91312857D01*
X170632380Y-91265238D01*
X170680000Y-91217619D01*
X170727619Y-91122380D01*
X170727619Y-90884285D01*
X170680000Y-90741428D01*
X170251428Y-89979523D02*
X170203809Y-89836666D01*
X170156190Y-89789047D01*
X170060952Y-89741428D01*
X169918095Y-89741428D01*
X169822857Y-89789047D01*
X169775238Y-89836666D01*
X169727619Y-89931904D01*
X169727619Y-90312857D01*
X170727619Y-90312857D01*
X170727619Y-89979523D01*
X170680000Y-89884285D01*
X170632380Y-89836666D01*
X170537142Y-89789047D01*
X170441904Y-89789047D01*
X170346666Y-89836666D01*
X170299047Y-89884285D01*
X170251428Y-89979523D01*
X170251428Y-90312857D01*
X170251428Y-88217619D02*
X170203809Y-88074761D01*
X170156190Y-88027142D01*
X170060952Y-87979523D01*
X169918095Y-87979523D01*
X169822857Y-88027142D01*
X169775238Y-88074761D01*
X169727619Y-88170000D01*
X169727619Y-88550952D01*
X170727619Y-88550952D01*
X170727619Y-88217619D01*
X170680000Y-88122380D01*
X170632380Y-88074761D01*
X170537142Y-88027142D01*
X170441904Y-88027142D01*
X170346666Y-88074761D01*
X170299047Y-88122380D01*
X170251428Y-88217619D01*
X170251428Y-88550952D01*
X196417402Y-67661785D02*
X196363527Y-67769535D01*
X196363527Y-67823410D01*
X196390464Y-67904222D01*
X196471276Y-67985034D01*
X196552089Y-68011971D01*
X196605963Y-68011971D01*
X196686776Y-67985034D01*
X196902275Y-67769535D01*
X196336589Y-67203849D01*
X196148028Y-67392411D01*
X196121090Y-67473223D01*
X196121090Y-67527098D01*
X196148028Y-67607910D01*
X196201902Y-67661785D01*
X196282715Y-67688723D01*
X196336589Y-67688723D01*
X196417402Y-67661785D01*
X196605963Y-67473223D01*
X195663154Y-67877284D02*
X195609280Y-67931159D01*
X195582342Y-68011971D01*
X195582342Y-68065846D01*
X195609280Y-68146658D01*
X195690092Y-68281345D01*
X195824779Y-68416032D01*
X195959466Y-68496845D01*
X196040278Y-68523782D01*
X196094153Y-68523782D01*
X196174965Y-68496845D01*
X196228840Y-68442970D01*
X196255777Y-68362158D01*
X196255777Y-68308283D01*
X196228840Y-68227471D01*
X196148028Y-68092784D01*
X196013341Y-67958097D01*
X195878654Y-67877284D01*
X195797841Y-67850347D01*
X195743967Y-67850347D01*
X195663154Y-67877284D01*
X190531190Y-92071666D02*
X190055000Y-92071666D01*
X190626428Y-92357380D02*
X190293095Y-91357380D01*
X189959761Y-92357380D01*
X189769285Y-91357380D02*
X189197857Y-91357380D01*
X189483571Y-92357380D02*
X189483571Y-91357380D01*
X188912142Y-92071666D02*
X188435952Y-92071666D01*
X189007380Y-92357380D02*
X188674047Y-91357380D01*
X188340714Y-92357380D01*
X187435952Y-92357380D02*
X187769285Y-91881190D01*
X188007380Y-92357380D02*
X188007380Y-91357380D01*
X187626428Y-91357380D01*
X187531190Y-91405000D01*
X187483571Y-91452619D01*
X187435952Y-91547857D01*
X187435952Y-91690714D01*
X187483571Y-91785952D01*
X187531190Y-91833571D01*
X187626428Y-91881190D01*
X188007380Y-91881190D01*
X187007380Y-92357380D02*
X187007380Y-91357380D01*
X185816904Y-91309761D02*
X186674047Y-92595476D01*
X185531190Y-92071666D02*
X185055000Y-92071666D01*
X185626428Y-92357380D02*
X185293095Y-91357380D01*
X184959761Y-92357380D01*
X184626428Y-92357380D02*
X184626428Y-91357380D01*
X184293095Y-92071666D01*
X183959761Y-91357380D01*
X183959761Y-92357380D01*
X183483571Y-92357380D02*
X183483571Y-91357380D01*
X182483571Y-91405000D02*
X182578809Y-91357380D01*
X182721666Y-91357380D01*
X182864523Y-91405000D01*
X182959761Y-91500238D01*
X183007380Y-91595476D01*
X183055000Y-91785952D01*
X183055000Y-91928809D01*
X183007380Y-92119285D01*
X182959761Y-92214523D01*
X182864523Y-92309761D01*
X182721666Y-92357380D01*
X182626428Y-92357380D01*
X182483571Y-92309761D01*
X182435952Y-92262142D01*
X182435952Y-91928809D01*
X182626428Y-91928809D01*
X182055000Y-92071666D02*
X181578809Y-92071666D01*
X182150238Y-92357380D02*
X181816904Y-91357380D01*
X181483571Y-92357380D01*
X190959761Y-93919761D02*
X191055000Y-93967380D01*
X191245476Y-93967380D01*
X191340714Y-93919761D01*
X191388333Y-93872142D01*
X191435952Y-93776904D01*
X191435952Y-93491190D01*
X191388333Y-93395952D01*
X191340714Y-93348333D01*
X191245476Y-93300714D01*
X191055000Y-93300714D01*
X190959761Y-93348333D01*
X190388333Y-93967380D02*
X190483571Y-93919761D01*
X190531190Y-93872142D01*
X190578809Y-93776904D01*
X190578809Y-93491190D01*
X190531190Y-93395952D01*
X190483571Y-93348333D01*
X190388333Y-93300714D01*
X190245476Y-93300714D01*
X190150238Y-93348333D01*
X190102619Y-93395952D01*
X190055000Y-93491190D01*
X190055000Y-93776904D01*
X190102619Y-93872142D01*
X190150238Y-93919761D01*
X190245476Y-93967380D01*
X190388333Y-93967380D01*
X189626428Y-93300714D02*
X189626428Y-93967380D01*
X189626428Y-93395952D02*
X189578809Y-93348333D01*
X189483571Y-93300714D01*
X189340714Y-93300714D01*
X189245476Y-93348333D01*
X189197857Y-93443571D01*
X189197857Y-93967380D01*
X188864523Y-93300714D02*
X188483571Y-93300714D01*
X188721666Y-92967380D02*
X188721666Y-93824523D01*
X188674047Y-93919761D01*
X188578809Y-93967380D01*
X188483571Y-93967380D01*
X188150238Y-93967380D02*
X188150238Y-93300714D01*
X188150238Y-93491190D02*
X188102619Y-93395952D01*
X188055000Y-93348333D01*
X187959761Y-93300714D01*
X187864523Y-93300714D01*
X187388333Y-93967380D02*
X187483571Y-93919761D01*
X187531190Y-93872142D01*
X187578809Y-93776904D01*
X187578809Y-93491190D01*
X187531190Y-93395952D01*
X187483571Y-93348333D01*
X187388333Y-93300714D01*
X187245476Y-93300714D01*
X187150238Y-93348333D01*
X187102619Y-93395952D01*
X187055000Y-93491190D01*
X187055000Y-93776904D01*
X187102619Y-93872142D01*
X187150238Y-93919761D01*
X187245476Y-93967380D01*
X187388333Y-93967380D01*
X186483571Y-93967380D02*
X186578809Y-93919761D01*
X186626428Y-93824523D01*
X186626428Y-92967380D01*
X185959761Y-93967380D02*
X186055000Y-93919761D01*
X186102619Y-93824523D01*
X186102619Y-92967380D01*
X185197857Y-93919761D02*
X185293095Y-93967380D01*
X185483571Y-93967380D01*
X185578809Y-93919761D01*
X185626428Y-93824523D01*
X185626428Y-93443571D01*
X185578809Y-93348333D01*
X185483571Y-93300714D01*
X185293095Y-93300714D01*
X185197857Y-93348333D01*
X185150238Y-93443571D01*
X185150238Y-93538809D01*
X185626428Y-93634047D01*
X184721666Y-93967380D02*
X184721666Y-93300714D01*
X184721666Y-93491190D02*
X184674047Y-93395952D01*
X184626428Y-93348333D01*
X184531190Y-93300714D01*
X184435952Y-93300714D01*
X183197857Y-93967380D02*
X183293095Y-93919761D01*
X183340714Y-93872142D01*
X183388333Y-93776904D01*
X183388333Y-93491190D01*
X183340714Y-93395952D01*
X183293095Y-93348333D01*
X183197857Y-93300714D01*
X183055000Y-93300714D01*
X182959761Y-93348333D01*
X182912142Y-93395952D01*
X182864523Y-93491190D01*
X182864523Y-93776904D01*
X182912142Y-93872142D01*
X182959761Y-93919761D01*
X183055000Y-93967380D01*
X183197857Y-93967380D01*
X182435952Y-93300714D02*
X182435952Y-93967380D01*
X182435952Y-93395952D02*
X182388333Y-93348333D01*
X182293095Y-93300714D01*
X182150238Y-93300714D01*
X182055000Y-93348333D01*
X182007380Y-93443571D01*
X182007380Y-93967380D01*
X181388333Y-93967380D02*
X181483571Y-93919761D01*
X181531190Y-93824523D01*
X181531190Y-92967380D01*
X181102619Y-93300714D02*
X180864523Y-93967380D01*
X180626428Y-93300714D02*
X180864523Y-93967380D01*
X180959761Y-94205476D01*
X181007380Y-94253095D01*
X181102619Y-94300714D01*
X193222619Y-78803809D02*
X193175000Y-78851428D01*
X193127380Y-78946666D01*
X193127380Y-79184761D01*
X193175000Y-79280000D01*
X193222619Y-79327619D01*
X193317857Y-79375238D01*
X193413095Y-79375238D01*
X193555952Y-79327619D01*
X194127380Y-78756190D01*
X194127380Y-79375238D01*
X194032142Y-79803809D02*
X194079761Y-79851428D01*
X194127380Y-79803809D01*
X194079761Y-79756190D01*
X194032142Y-79803809D01*
X194127380Y-79803809D01*
X193175000Y-80803809D02*
X193127380Y-80708571D01*
X193127380Y-80565714D01*
X193175000Y-80422857D01*
X193270238Y-80327619D01*
X193365476Y-80280000D01*
X193555952Y-80232380D01*
X193698809Y-80232380D01*
X193889285Y-80280000D01*
X193984523Y-80327619D01*
X194079761Y-80422857D01*
X194127380Y-80565714D01*
X194127380Y-80660952D01*
X194079761Y-80803809D01*
X194032142Y-80851428D01*
X193698809Y-80851428D01*
X193698809Y-80660952D01*
X193841666Y-81232380D02*
X193841666Y-81708571D01*
X194127380Y-81137142D02*
X193127380Y-81470476D01*
X194127380Y-81803809D01*
X194127380Y-82137142D02*
X193127380Y-82137142D01*
X193841666Y-82470476D01*
X193127380Y-82803809D01*
X194127380Y-82803809D01*
X193603571Y-83280000D02*
X193603571Y-83613333D01*
X194127380Y-83756190D02*
X194127380Y-83280000D01*
X193127380Y-83280000D01*
X193127380Y-83756190D01*
D10*
X174242500Y-68310000D02*
X175642500Y-68310000D01*
X175642500Y-66310000D02*
X174242500Y-66310000D01*
X176342500Y-67610000D02*
X176342500Y-67010000D01*
X173542500Y-67010000D02*
X173542500Y-67610000D01*
X176342500Y-67010000D02*
G75*
G03*
X175642500Y-66310000I-699999J1D01*
G01*
X175642500Y-68310000D02*
G75*
G03*
X176342500Y-67610000I1J699999D01*
G01*
X173542500Y-67610000D02*
G75*
G03*
X174242500Y-68310000I700000J0D01*
G01*
X174242500Y-66310000D02*
G75*
G03*
X173542500Y-67010000I0J-700000D01*
G01*
G36*
X178957566Y-96642601D02*
G01*
X178901468Y-96905869D01*
X178782982Y-97147789D01*
X178609446Y-97358751D01*
X178388197Y-97529147D01*
X178126572Y-97649367D01*
X178049371Y-97662502D01*
X177924354Y-97669370D01*
X177781858Y-97667703D01*
X177780236Y-97667629D01*
X177495887Y-97620422D01*
X177241086Y-97506992D01*
X177017084Y-97327896D01*
X176893375Y-97182595D01*
X176797859Y-97007394D01*
X176745949Y-96805226D01*
X176732781Y-96596014D01*
X176925384Y-96596014D01*
X176965925Y-96837941D01*
X177069951Y-97053791D01*
X177234170Y-97235949D01*
X177455286Y-97376803D01*
X177631601Y-97439323D01*
X177865681Y-97463594D01*
X178091319Y-97427082D01*
X178298497Y-97336173D01*
X178477199Y-97197252D01*
X178617407Y-97016707D01*
X178709106Y-96800922D01*
X178742278Y-96556285D01*
X178734154Y-96440005D01*
X178669028Y-96207730D01*
X178547337Y-95996351D01*
X178379450Y-95821556D01*
X178175733Y-95699032D01*
X178170225Y-95696778D01*
X178005412Y-95657518D01*
X177809013Y-95649845D01*
X177612916Y-95672633D01*
X177449008Y-95724753D01*
X177313909Y-95810723D01*
X177166448Y-95947993D01*
X177045567Y-96105085D01*
X176971816Y-96258991D01*
X176951620Y-96335625D01*
X176925384Y-96596014D01*
X176732781Y-96596014D01*
X176730281Y-96556285D01*
X176744350Y-96318664D01*
X176795116Y-96111293D01*
X176890408Y-95931129D01*
X177038000Y-95758000D01*
X177241474Y-95596585D01*
X177484324Y-95489198D01*
X177767348Y-95439591D01*
X177780642Y-95438685D01*
X178023039Y-95443101D01*
X178231172Y-95495486D01*
X178423388Y-95603031D01*
X178618030Y-95772923D01*
X178705994Y-95868180D01*
X178851932Y-96080272D01*
X178934887Y-96304859D01*
X178961143Y-96556285D01*
X178961143Y-96556286D01*
X178957566Y-96642601D01*
G37*
D13*
X178957566Y-96642601D02*
X178901468Y-96905869D01*
X178782982Y-97147789D01*
X178609446Y-97358751D01*
X178388197Y-97529147D01*
X178126572Y-97649367D01*
X178049371Y-97662502D01*
X177924354Y-97669370D01*
X177781858Y-97667703D01*
X177780236Y-97667629D01*
X177495887Y-97620422D01*
X177241086Y-97506992D01*
X177017084Y-97327896D01*
X176893375Y-97182595D01*
X176797859Y-97007394D01*
X176745949Y-96805226D01*
X176732781Y-96596014D01*
X176925384Y-96596014D01*
X176965925Y-96837941D01*
X177069951Y-97053791D01*
X177234170Y-97235949D01*
X177455286Y-97376803D01*
X177631601Y-97439323D01*
X177865681Y-97463594D01*
X178091319Y-97427082D01*
X178298497Y-97336173D01*
X178477199Y-97197252D01*
X178617407Y-97016707D01*
X178709106Y-96800922D01*
X178742278Y-96556285D01*
X178734154Y-96440005D01*
X178669028Y-96207730D01*
X178547337Y-95996351D01*
X178379450Y-95821556D01*
X178175733Y-95699032D01*
X178170225Y-95696778D01*
X178005412Y-95657518D01*
X177809013Y-95649845D01*
X177612916Y-95672633D01*
X177449008Y-95724753D01*
X177313909Y-95810723D01*
X177166448Y-95947993D01*
X177045567Y-96105085D01*
X176971816Y-96258991D01*
X176951620Y-96335625D01*
X176925384Y-96596014D01*
X176732781Y-96596014D01*
X176730281Y-96556285D01*
X176744350Y-96318664D01*
X176795116Y-96111293D01*
X176890408Y-95931129D01*
X177038000Y-95758000D01*
X177241474Y-95596585D01*
X177484324Y-95489198D01*
X177767348Y-95439591D01*
X177780642Y-95438685D01*
X178023039Y-95443101D01*
X178231172Y-95495486D01*
X178423388Y-95603031D01*
X178618030Y-95772923D01*
X178705994Y-95868180D01*
X178851932Y-96080272D01*
X178934887Y-96304859D01*
X178961143Y-96556285D01*
X178961143Y-96556286D01*
X178957566Y-96642601D01*
G36*
X176368359Y-96900715D02*
G01*
X176308522Y-97043824D01*
X176185641Y-97228633D01*
X176027037Y-97399309D01*
X175850672Y-97537143D01*
X175674507Y-97623424D01*
X175668916Y-97625184D01*
X175460476Y-97664671D01*
X175228393Y-97668392D01*
X175002456Y-97638014D01*
X174812456Y-97575203D01*
X174693914Y-97506453D01*
X174506459Y-97351091D01*
X174349903Y-97163951D01*
X174244597Y-96966837D01*
X174219968Y-96894101D01*
X174171464Y-96622789D01*
X174173050Y-96596315D01*
X174391856Y-96596315D01*
X174412086Y-96784596D01*
X174457305Y-96938690D01*
X174464506Y-96953771D01*
X174561030Y-97096071D01*
X174697994Y-97235316D01*
X174851836Y-97350534D01*
X174998992Y-97420756D01*
X175043798Y-97433098D01*
X175294583Y-97463250D01*
X175532515Y-97430408D01*
X175748248Y-97341287D01*
X175932436Y-97202600D01*
X176075734Y-97021061D01*
X176168796Y-96803385D01*
X176202278Y-96556285D01*
X176194154Y-96440005D01*
X176129028Y-96207730D01*
X176007337Y-95996351D01*
X175839450Y-95821556D01*
X175635733Y-95699032D01*
X175628384Y-95696047D01*
X175463959Y-95657436D01*
X175268242Y-95649926D01*
X175073226Y-95672424D01*
X174910906Y-95723834D01*
X174822702Y-95775541D01*
X174667614Y-95903795D01*
X174531904Y-96058585D01*
X174440046Y-96214413D01*
X174429367Y-96243129D01*
X174397367Y-96405332D01*
X174391856Y-96596315D01*
X174173050Y-96596315D01*
X174187252Y-96359246D01*
X174261336Y-96112226D01*
X174387717Y-95890487D01*
X174560400Y-95702782D01*
X174773387Y-95557867D01*
X175020682Y-95464497D01*
X175296286Y-95431428D01*
X175553278Y-95460224D01*
X175802544Y-95550112D01*
X176017853Y-95692774D01*
X176193015Y-95879726D01*
X176321838Y-96102481D01*
X176398131Y-96352555D01*
X176411443Y-96556285D01*
X176415701Y-96621461D01*
X176368359Y-96900715D01*
G37*
X176368359Y-96900715D02*
X176308522Y-97043824D01*
X176185641Y-97228633D01*
X176027037Y-97399309D01*
X175850672Y-97537143D01*
X175674507Y-97623424D01*
X175668916Y-97625184D01*
X175460476Y-97664671D01*
X175228393Y-97668392D01*
X175002456Y-97638014D01*
X174812456Y-97575203D01*
X174693914Y-97506453D01*
X174506459Y-97351091D01*
X174349903Y-97163951D01*
X174244597Y-96966837D01*
X174219968Y-96894101D01*
X174171464Y-96622789D01*
X174173050Y-96596315D01*
X174391856Y-96596315D01*
X174412086Y-96784596D01*
X174457305Y-96938690D01*
X174464506Y-96953771D01*
X174561030Y-97096071D01*
X174697994Y-97235316D01*
X174851836Y-97350534D01*
X174998992Y-97420756D01*
X175043798Y-97433098D01*
X175294583Y-97463250D01*
X175532515Y-97430408D01*
X175748248Y-97341287D01*
X175932436Y-97202600D01*
X176075734Y-97021061D01*
X176168796Y-96803385D01*
X176202278Y-96556285D01*
X176194154Y-96440005D01*
X176129028Y-96207730D01*
X176007337Y-95996351D01*
X175839450Y-95821556D01*
X175635733Y-95699032D01*
X175628384Y-95696047D01*
X175463959Y-95657436D01*
X175268242Y-95649926D01*
X175073226Y-95672424D01*
X174910906Y-95723834D01*
X174822702Y-95775541D01*
X174667614Y-95903795D01*
X174531904Y-96058585D01*
X174440046Y-96214413D01*
X174429367Y-96243129D01*
X174397367Y-96405332D01*
X174391856Y-96596315D01*
X174173050Y-96596315D01*
X174187252Y-96359246D01*
X174261336Y-96112226D01*
X174387717Y-95890487D01*
X174560400Y-95702782D01*
X174773387Y-95557867D01*
X175020682Y-95464497D01*
X175296286Y-95431428D01*
X175553278Y-95460224D01*
X175802544Y-95550112D01*
X176017853Y-95692774D01*
X176193015Y-95879726D01*
X176321838Y-96102481D01*
X176398131Y-96352555D01*
X176411443Y-96556285D01*
X176415701Y-96621461D01*
X176368359Y-96900715D01*
G36*
X173908197Y-96616883D02*
G01*
X173855038Y-96898117D01*
X173739750Y-97148306D01*
X173568687Y-97359562D01*
X173348203Y-97523995D01*
X173084651Y-97633718D01*
X173062551Y-97639604D01*
X172818055Y-97665867D01*
X172556932Y-97629903D01*
X172294592Y-97533663D01*
X172177579Y-97468969D01*
X171967103Y-97297766D01*
X171815833Y-97084856D01*
X171785255Y-97000050D01*
X171987698Y-97000050D01*
X172127063Y-97144100D01*
X172177855Y-97192914D01*
X172297007Y-97289919D01*
X172407131Y-97360745D01*
X172620468Y-97437860D01*
X172847856Y-97455637D01*
X173067214Y-97413925D01*
X173268718Y-97319013D01*
X173442543Y-97177191D01*
X173578867Y-96994748D01*
X173667865Y-96777974D01*
X173699715Y-96533160D01*
X173695974Y-96425550D01*
X173684228Y-96330656D01*
X173667262Y-96286511D01*
X173656427Y-96286000D01*
X173589390Y-96304316D01*
X173474302Y-96346254D01*
X173323717Y-96407068D01*
X173150190Y-96482012D01*
X173016761Y-96542286D01*
X172852158Y-96621327D01*
X172743629Y-96681635D01*
X172683869Y-96727447D01*
X172665572Y-96762999D01*
X172665708Y-96766655D01*
X172700355Y-96814617D01*
X172779568Y-96840170D01*
X172879260Y-96839694D01*
X172975342Y-96809567D01*
X172985484Y-96804328D01*
X173054750Y-96789441D01*
X173122162Y-96831160D01*
X173170538Y-96880880D01*
X173182920Y-96925498D01*
X173138354Y-96964676D01*
X173030406Y-97011031D01*
X172998380Y-97023943D01*
X172896949Y-97083304D01*
X172858048Y-97150103D01*
X172851497Y-97176574D01*
X172810204Y-97222297D01*
X172759231Y-97214169D01*
X172727319Y-97151813D01*
X172726845Y-97148946D01*
X172683076Y-97079000D01*
X172591248Y-97016329D01*
X172568782Y-97005169D01*
X172495347Y-96960774D01*
X172465445Y-96928801D01*
X172462645Y-96913397D01*
X172435528Y-96854734D01*
X172430320Y-96847954D01*
X172392026Y-96835079D01*
X172318879Y-96852883D01*
X172196932Y-96904260D01*
X171987698Y-97000050D01*
X171785255Y-97000050D01*
X171724408Y-96831295D01*
X171693467Y-96538143D01*
X171693828Y-96529999D01*
X171888625Y-96529999D01*
X171899684Y-96680713D01*
X171922388Y-96742540D01*
X171949620Y-96770362D01*
X171984822Y-96759799D01*
X172075722Y-96722620D01*
X172202118Y-96665736D01*
X172349500Y-96596250D01*
X172503357Y-96521265D01*
X172649180Y-96447884D01*
X172772460Y-96383209D01*
X172858685Y-96334343D01*
X172893347Y-96308389D01*
X172894418Y-96283057D01*
X172854564Y-96247137D01*
X172776116Y-96236415D01*
X172680430Y-96256133D01*
X172642853Y-96268837D01*
X172574087Y-96270629D01*
X172513905Y-96222505D01*
X172477157Y-96178688D01*
X172471581Y-96140934D01*
X172518774Y-96099437D01*
X172573146Y-96069096D01*
X172654364Y-96048286D01*
X172701492Y-96030299D01*
X172720000Y-95957571D01*
X172735664Y-95888118D01*
X172792572Y-95866857D01*
X172848135Y-95886436D01*
X172865143Y-95957571D01*
X172875749Y-96016939D01*
X172921221Y-96048286D01*
X172925903Y-96048562D01*
X172991061Y-96077082D01*
X173067190Y-96138177D01*
X173157082Y-96228068D01*
X173567246Y-96046674D01*
X173442980Y-95916049D01*
X173261955Y-95767215D01*
X173052336Y-95678958D01*
X172806075Y-95649940D01*
X172589772Y-95669881D01*
X172361032Y-95750539D01*
X172168830Y-95893801D01*
X172011864Y-96100405D01*
X171973320Y-96176415D01*
X171915139Y-96351719D01*
X171888625Y-96529999D01*
X171693828Y-96529999D01*
X171699597Y-96399771D01*
X171753557Y-96149228D01*
X171867983Y-95929742D01*
X172048692Y-95728048D01*
X172145578Y-95648190D01*
X172377339Y-95515451D01*
X172620381Y-95444802D01*
X172865854Y-95432042D01*
X173104904Y-95472970D01*
X173328680Y-95563384D01*
X173528328Y-95699084D01*
X173694997Y-95875868D01*
X173794793Y-96046674D01*
X173819834Y-96089535D01*
X173893986Y-96335884D01*
X173904477Y-96533160D01*
X173908601Y-96610714D01*
X173908197Y-96616883D01*
G37*
X173908197Y-96616883D02*
X173855038Y-96898117D01*
X173739750Y-97148306D01*
X173568687Y-97359562D01*
X173348203Y-97523995D01*
X173084651Y-97633718D01*
X173062551Y-97639604D01*
X172818055Y-97665867D01*
X172556932Y-97629903D01*
X172294592Y-97533663D01*
X172177579Y-97468969D01*
X171967103Y-97297766D01*
X171815833Y-97084856D01*
X171785255Y-97000050D01*
X171987698Y-97000050D01*
X172127063Y-97144100D01*
X172177855Y-97192914D01*
X172297007Y-97289919D01*
X172407131Y-97360745D01*
X172620468Y-97437860D01*
X172847856Y-97455637D01*
X173067214Y-97413925D01*
X173268718Y-97319013D01*
X173442543Y-97177191D01*
X173578867Y-96994748D01*
X173667865Y-96777974D01*
X173699715Y-96533160D01*
X173695974Y-96425550D01*
X173684228Y-96330656D01*
X173667262Y-96286511D01*
X173656427Y-96286000D01*
X173589390Y-96304316D01*
X173474302Y-96346254D01*
X173323717Y-96407068D01*
X173150190Y-96482012D01*
X173016761Y-96542286D01*
X172852158Y-96621327D01*
X172743629Y-96681635D01*
X172683869Y-96727447D01*
X172665572Y-96762999D01*
X172665708Y-96766655D01*
X172700355Y-96814617D01*
X172779568Y-96840170D01*
X172879260Y-96839694D01*
X172975342Y-96809567D01*
X172985484Y-96804328D01*
X173054750Y-96789441D01*
X173122162Y-96831160D01*
X173170538Y-96880880D01*
X173182920Y-96925498D01*
X173138354Y-96964676D01*
X173030406Y-97011031D01*
X172998380Y-97023943D01*
X172896949Y-97083304D01*
X172858048Y-97150103D01*
X172851497Y-97176574D01*
X172810204Y-97222297D01*
X172759231Y-97214169D01*
X172727319Y-97151813D01*
X172726845Y-97148946D01*
X172683076Y-97079000D01*
X172591248Y-97016329D01*
X172568782Y-97005169D01*
X172495347Y-96960774D01*
X172465445Y-96928801D01*
X172462645Y-96913397D01*
X172435528Y-96854734D01*
X172430320Y-96847954D01*
X172392026Y-96835079D01*
X172318879Y-96852883D01*
X172196932Y-96904260D01*
X171987698Y-97000050D01*
X171785255Y-97000050D01*
X171724408Y-96831295D01*
X171693467Y-96538143D01*
X171693828Y-96529999D01*
X171888625Y-96529999D01*
X171899684Y-96680713D01*
X171922388Y-96742540D01*
X171949620Y-96770362D01*
X171984822Y-96759799D01*
X172075722Y-96722620D01*
X172202118Y-96665736D01*
X172349500Y-96596250D01*
X172503357Y-96521265D01*
X172649180Y-96447884D01*
X172772460Y-96383209D01*
X172858685Y-96334343D01*
X172893347Y-96308389D01*
X172894418Y-96283057D01*
X172854564Y-96247137D01*
X172776116Y-96236415D01*
X172680430Y-96256133D01*
X172642853Y-96268837D01*
X172574087Y-96270629D01*
X172513905Y-96222505D01*
X172477157Y-96178688D01*
X172471581Y-96140934D01*
X172518774Y-96099437D01*
X172573146Y-96069096D01*
X172654364Y-96048286D01*
X172701492Y-96030299D01*
X172720000Y-95957571D01*
X172735664Y-95888118D01*
X172792572Y-95866857D01*
X172848135Y-95886436D01*
X172865143Y-95957571D01*
X172875749Y-96016939D01*
X172921221Y-96048286D01*
X172925903Y-96048562D01*
X172991061Y-96077082D01*
X173067190Y-96138177D01*
X173157082Y-96228068D01*
X173567246Y-96046674D01*
X173442980Y-95916049D01*
X173261955Y-95767215D01*
X173052336Y-95678958D01*
X172806075Y-95649940D01*
X172589772Y-95669881D01*
X172361032Y-95750539D01*
X172168830Y-95893801D01*
X172011864Y-96100405D01*
X171973320Y-96176415D01*
X171915139Y-96351719D01*
X171888625Y-96529999D01*
X171693828Y-96529999D01*
X171699597Y-96399771D01*
X171753557Y-96149228D01*
X171867983Y-95929742D01*
X172048692Y-95728048D01*
X172145578Y-95648190D01*
X172377339Y-95515451D01*
X172620381Y-95444802D01*
X172865854Y-95432042D01*
X173104904Y-95472970D01*
X173328680Y-95563384D01*
X173528328Y-95699084D01*
X173694997Y-95875868D01*
X173794793Y-96046674D01*
X173819834Y-96089535D01*
X173893986Y-96335884D01*
X173904477Y-96533160D01*
X173908601Y-96610714D01*
X173908197Y-96616883D01*
G36*
X171340803Y-96839447D02*
G01*
X171311435Y-96941293D01*
X171261450Y-97048445D01*
X171172653Y-97191295D01*
X170986794Y-97393870D01*
X170763257Y-97547874D01*
X170516822Y-97641534D01*
X170500332Y-97645346D01*
X170321419Y-97673332D01*
X170155435Y-97666759D01*
X169964667Y-97624463D01*
X169834117Y-97579640D01*
X169591527Y-97444028D01*
X169394590Y-97257739D01*
X169250475Y-97028500D01*
X169166352Y-96764038D01*
X169157448Y-96709175D01*
X169155820Y-96624865D01*
X169358883Y-96624865D01*
X169406241Y-96841382D01*
X169506752Y-97043684D01*
X169660437Y-97220773D01*
X169867314Y-97361655D01*
X169984493Y-97407493D01*
X170181752Y-97445450D01*
X170383125Y-97447866D01*
X170556374Y-97412365D01*
X170652135Y-97369978D01*
X170846960Y-97233855D01*
X171000039Y-97055041D01*
X171105879Y-96846438D01*
X171158985Y-96620947D01*
X171153865Y-96391469D01*
X171085023Y-96170906D01*
X171033317Y-96082702D01*
X170905063Y-95927614D01*
X170750272Y-95791904D01*
X170594444Y-95700045D01*
X170480701Y-95666331D01*
X170277420Y-95649363D01*
X170064092Y-95672734D01*
X169870089Y-95735026D01*
X169700621Y-95836566D01*
X169535549Y-95999983D01*
X169423556Y-96193169D01*
X169364661Y-96405129D01*
X169358883Y-96624865D01*
X169155820Y-96624865D01*
X169151954Y-96424664D01*
X169213692Y-96157618D01*
X169338472Y-95916615D01*
X169522108Y-95710232D01*
X169760412Y-95547047D01*
X169864535Y-95497999D01*
X169965266Y-95468147D01*
X170085858Y-95453898D01*
X170252572Y-95450080D01*
X170476114Y-95462710D01*
X170685698Y-95513357D01*
X170868912Y-95610480D01*
X171046589Y-95762269D01*
X171184022Y-95919806D01*
X171286893Y-96101147D01*
X171342294Y-96306356D01*
X171358417Y-96556285D01*
X171356934Y-96620947D01*
X171354742Y-96716578D01*
X171340803Y-96839447D01*
G37*
X171340803Y-96839447D02*
X171311435Y-96941293D01*
X171261450Y-97048445D01*
X171172653Y-97191295D01*
X170986794Y-97393870D01*
X170763257Y-97547874D01*
X170516822Y-97641534D01*
X170500332Y-97645346D01*
X170321419Y-97673332D01*
X170155435Y-97666759D01*
X169964667Y-97624463D01*
X169834117Y-97579640D01*
X169591527Y-97444028D01*
X169394590Y-97257739D01*
X169250475Y-97028500D01*
X169166352Y-96764038D01*
X169157448Y-96709175D01*
X169155820Y-96624865D01*
X169358883Y-96624865D01*
X169406241Y-96841382D01*
X169506752Y-97043684D01*
X169660437Y-97220773D01*
X169867314Y-97361655D01*
X169984493Y-97407493D01*
X170181752Y-97445450D01*
X170383125Y-97447866D01*
X170556374Y-97412365D01*
X170652135Y-97369978D01*
X170846960Y-97233855D01*
X171000039Y-97055041D01*
X171105879Y-96846438D01*
X171158985Y-96620947D01*
X171153865Y-96391469D01*
X171085023Y-96170906D01*
X171033317Y-96082702D01*
X170905063Y-95927614D01*
X170750272Y-95791904D01*
X170594444Y-95700045D01*
X170480701Y-95666331D01*
X170277420Y-95649363D01*
X170064092Y-95672734D01*
X169870089Y-95735026D01*
X169700621Y-95836566D01*
X169535549Y-95999983D01*
X169423556Y-96193169D01*
X169364661Y-96405129D01*
X169358883Y-96624865D01*
X169155820Y-96624865D01*
X169151954Y-96424664D01*
X169213692Y-96157618D01*
X169338472Y-95916615D01*
X169522108Y-95710232D01*
X169760412Y-95547047D01*
X169864535Y-95497999D01*
X169965266Y-95468147D01*
X170085858Y-95453898D01*
X170252572Y-95450080D01*
X170476114Y-95462710D01*
X170685698Y-95513357D01*
X170868912Y-95610480D01*
X171046589Y-95762269D01*
X171184022Y-95919806D01*
X171286893Y-96101147D01*
X171342294Y-96306356D01*
X171358417Y-96556285D01*
X171356934Y-96620947D01*
X171354742Y-96716578D01*
X171340803Y-96839447D01*
G36*
X178222046Y-96216974D02*
G01*
X178347048Y-96274946D01*
X178436712Y-96378166D01*
X178474077Y-96480190D01*
X178476843Y-96632610D01*
X178418655Y-96767583D01*
X178304006Y-96868506D01*
X178233075Y-96899639D01*
X178151984Y-96917857D01*
X178071125Y-96903042D01*
X177978262Y-96861731D01*
X177903355Y-96808688D01*
X177872572Y-96758807D01*
X177879025Y-96734081D01*
X177921060Y-96693295D01*
X177975587Y-96677189D01*
X178010975Y-96699352D01*
X178027422Y-96720093D01*
X178091604Y-96736646D01*
X178171230Y-96724429D01*
X178233608Y-96685480D01*
X178247396Y-96664347D01*
X178266255Y-96569594D01*
X178245352Y-96468248D01*
X178190197Y-96396924D01*
X178133497Y-96376363D01*
X178053290Y-96403165D01*
X177989154Y-96429381D01*
X177905011Y-96409084D01*
X177867065Y-96386805D01*
X177851508Y-96354461D01*
X177891467Y-96301454D01*
X177955538Y-96249368D01*
X178084083Y-96207398D01*
X178222046Y-96216974D01*
G37*
X178222046Y-96216974D02*
X178347048Y-96274946D01*
X178436712Y-96378166D01*
X178474077Y-96480190D01*
X178476843Y-96632610D01*
X178418655Y-96767583D01*
X178304006Y-96868506D01*
X178233075Y-96899639D01*
X178151984Y-96917857D01*
X178071125Y-96903042D01*
X177978262Y-96861731D01*
X177903355Y-96808688D01*
X177872572Y-96758807D01*
X177879025Y-96734081D01*
X177921060Y-96693295D01*
X177975587Y-96677189D01*
X178010975Y-96699352D01*
X178027422Y-96720093D01*
X178091604Y-96736646D01*
X178171230Y-96724429D01*
X178233608Y-96685480D01*
X178247396Y-96664347D01*
X178266255Y-96569594D01*
X178245352Y-96468248D01*
X178190197Y-96396924D01*
X178133497Y-96376363D01*
X178053290Y-96403165D01*
X177989154Y-96429381D01*
X177905011Y-96409084D01*
X177867065Y-96386805D01*
X177851508Y-96354461D01*
X177891467Y-96301454D01*
X177955538Y-96249368D01*
X178084083Y-96207398D01*
X178222046Y-96216974D01*
G36*
X177498537Y-96193565D02*
G01*
X177615518Y-96227477D01*
X177725884Y-96306375D01*
X177799041Y-96408827D01*
X177829228Y-96547934D01*
X177806967Y-96693878D01*
X177734345Y-96815484D01*
X177618572Y-96893400D01*
X177556562Y-96907149D01*
X177443192Y-96902494D01*
X177334047Y-96871104D01*
X177251875Y-96820651D01*
X177219429Y-96758807D01*
X177219459Y-96756655D01*
X177249719Y-96701895D01*
X177319323Y-96684359D01*
X177402417Y-96710823D01*
X177432324Y-96726094D01*
X177516641Y-96730388D01*
X177580080Y-96679389D01*
X177612297Y-96585895D01*
X177602951Y-96462701D01*
X177597208Y-96445630D01*
X177540199Y-96386718D01*
X177457119Y-96373386D01*
X177377897Y-96412332D01*
X177374917Y-96415126D01*
X177312745Y-96432670D01*
X177248811Y-96407742D01*
X177219429Y-96353764D01*
X177246208Y-96308466D01*
X177317992Y-96254914D01*
X177408570Y-96211389D01*
X177491572Y-96193428D01*
X177498537Y-96193565D01*
G37*
X177498537Y-96193565D02*
X177615518Y-96227477D01*
X177725884Y-96306375D01*
X177799041Y-96408827D01*
X177829228Y-96547934D01*
X177806967Y-96693878D01*
X177734345Y-96815484D01*
X177618572Y-96893400D01*
X177556562Y-96907149D01*
X177443192Y-96902494D01*
X177334047Y-96871104D01*
X177251875Y-96820651D01*
X177219429Y-96758807D01*
X177219459Y-96756655D01*
X177249719Y-96701895D01*
X177319323Y-96684359D01*
X177402417Y-96710823D01*
X177432324Y-96726094D01*
X177516641Y-96730388D01*
X177580080Y-96679389D01*
X177612297Y-96585895D01*
X177602951Y-96462701D01*
X177597208Y-96445630D01*
X177540199Y-96386718D01*
X177457119Y-96373386D01*
X177377897Y-96412332D01*
X177374917Y-96415126D01*
X177312745Y-96432670D01*
X177248811Y-96407742D01*
X177219429Y-96353764D01*
X177246208Y-96308466D01*
X177317992Y-96254914D01*
X177408570Y-96211389D01*
X177491572Y-96193428D01*
X177498537Y-96193565D01*
G36*
X175579090Y-96474643D02*
G01*
X175582229Y-96588521D01*
X175578180Y-96680776D01*
X175562823Y-96725822D01*
X175533733Y-96737714D01*
X175510339Y-96744855D01*
X175490360Y-96783274D01*
X175480413Y-96867104D01*
X175477715Y-97009857D01*
X175477715Y-97282000D01*
X175114857Y-97282000D01*
X175114857Y-97009857D01*
X175113388Y-96896207D01*
X175105479Y-96799148D01*
X175088224Y-96750821D01*
X175058839Y-96737714D01*
X175034871Y-96730780D01*
X175016708Y-96694211D01*
X175010387Y-96613516D01*
X175013482Y-96474643D01*
X175024143Y-96211571D01*
X175568429Y-96211571D01*
X175579090Y-96474643D01*
G37*
X175579090Y-96474643D02*
X175582229Y-96588521D01*
X175578180Y-96680776D01*
X175562823Y-96725822D01*
X175533733Y-96737714D01*
X175510339Y-96744855D01*
X175490360Y-96783274D01*
X175480413Y-96867104D01*
X175477715Y-97009857D01*
X175477715Y-97282000D01*
X175114857Y-97282000D01*
X175114857Y-97009857D01*
X175113388Y-96896207D01*
X175105479Y-96799148D01*
X175088224Y-96750821D01*
X175058839Y-96737714D01*
X175034871Y-96730780D01*
X175016708Y-96694211D01*
X175010387Y-96613516D01*
X175013482Y-96474643D01*
X175024143Y-96211571D01*
X175568429Y-96211571D01*
X175579090Y-96474643D01*
G36*
X175372509Y-95853446D02*
G01*
X175417871Y-95881538D01*
X175434979Y-95950694D01*
X175431746Y-96031628D01*
X175403322Y-96104908D01*
X175374038Y-96133139D01*
X175294802Y-96159301D01*
X175220868Y-96130430D01*
X175169408Y-96057302D01*
X175157593Y-95950694D01*
X175170454Y-95889924D01*
X175209318Y-95856085D01*
X175296286Y-95848714D01*
X175372509Y-95853446D01*
G37*
X175372509Y-95853446D02*
X175417871Y-95881538D01*
X175434979Y-95950694D01*
X175431746Y-96031628D01*
X175403322Y-96104908D01*
X175374038Y-96133139D01*
X175294802Y-96159301D01*
X175220868Y-96130430D01*
X175169408Y-96057302D01*
X175157593Y-95950694D01*
X175170454Y-95889924D01*
X175209318Y-95856085D01*
X175296286Y-95848714D01*
X175372509Y-95853446D01*
G36*
X170310671Y-95977216D02*
G01*
X170482224Y-96011503D01*
X170611401Y-96097089D01*
X170711931Y-96241989D01*
X170717258Y-96252190D01*
X170767710Y-96334408D01*
X170809585Y-96381735D01*
X170814360Y-96400620D01*
X170786404Y-96453479D01*
X170732228Y-96516922D01*
X170670500Y-96570201D01*
X170619885Y-96592571D01*
X170567577Y-96566442D01*
X170507606Y-96501202D01*
X170462687Y-96425017D01*
X170453555Y-96366120D01*
X170452118Y-96323921D01*
X170404332Y-96262387D01*
X170322383Y-96213409D01*
X170227769Y-96193428D01*
X170170995Y-96201140D01*
X170077608Y-96263534D01*
X170018932Y-96383819D01*
X169998572Y-96556285D01*
X170003394Y-96646918D01*
X170043603Y-96795814D01*
X170122654Y-96887725D01*
X170238228Y-96919143D01*
X170242919Y-96919111D01*
X170354583Y-96899763D01*
X170437697Y-96852965D01*
X170470286Y-96790866D01*
X170472310Y-96777655D01*
X170513562Y-96747101D01*
X170615429Y-96737714D01*
X170631107Y-96737882D01*
X170726673Y-96751002D01*
X170760436Y-96783071D01*
X170740169Y-96857785D01*
X170676560Y-96960844D01*
X170588816Y-97056469D01*
X170496786Y-97119346D01*
X170386174Y-97156600D01*
X170219287Y-97165236D01*
X170035124Y-97114587D01*
X169976527Y-97086751D01*
X169834103Y-96969360D01*
X169739403Y-96807887D01*
X169697832Y-96614378D01*
X169714796Y-96400876D01*
X169776911Y-96227021D01*
X169890087Y-96087506D01*
X170049764Y-96003687D01*
X170255752Y-95975714D01*
X170310671Y-95977216D01*
G37*
X170310671Y-95977216D02*
X170482224Y-96011503D01*
X170611401Y-96097089D01*
X170711931Y-96241989D01*
X170717258Y-96252190D01*
X170767710Y-96334408D01*
X170809585Y-96381735D01*
X170814360Y-96400620D01*
X170786404Y-96453479D01*
X170732228Y-96516922D01*
X170670500Y-96570201D01*
X170619885Y-96592571D01*
X170567577Y-96566442D01*
X170507606Y-96501202D01*
X170462687Y-96425017D01*
X170453555Y-96366120D01*
X170452118Y-96323921D01*
X170404332Y-96262387D01*
X170322383Y-96213409D01*
X170227769Y-96193428D01*
X170170995Y-96201140D01*
X170077608Y-96263534D01*
X170018932Y-96383819D01*
X169998572Y-96556285D01*
X170003394Y-96646918D01*
X170043603Y-96795814D01*
X170122654Y-96887725D01*
X170238228Y-96919143D01*
X170242919Y-96919111D01*
X170354583Y-96899763D01*
X170437697Y-96852965D01*
X170470286Y-96790866D01*
X170472310Y-96777655D01*
X170513562Y-96747101D01*
X170615429Y-96737714D01*
X170631107Y-96737882D01*
X170726673Y-96751002D01*
X170760436Y-96783071D01*
X170740169Y-96857785D01*
X170676560Y-96960844D01*
X170588816Y-97056469D01*
X170496786Y-97119346D01*
X170386174Y-97156600D01*
X170219287Y-97165236D01*
X170035124Y-97114587D01*
X169976527Y-97086751D01*
X169834103Y-96969360D01*
X169739403Y-96807887D01*
X169697832Y-96614378D01*
X169714796Y-96400876D01*
X169776911Y-96227021D01*
X169890087Y-96087506D01*
X170049764Y-96003687D01*
X170255752Y-95975714D01*
X170310671Y-95977216D01*
D10*
X191835000Y-67580000D02*
X190435000Y-67580000D01*
X190435000Y-69580000D02*
X191835000Y-69580000D01*
X189735000Y-68280000D02*
X189735000Y-68880000D01*
X192535000Y-68880000D02*
X192535000Y-68280000D01*
X189735000Y-68880000D02*
G75*
G03*
X190435000Y-69580000I699999J-1D01*
G01*
X190435000Y-67580000D02*
G75*
G03*
X189735000Y-68280000I-1J-699999D01*
G01*
X192535000Y-68280000D02*
G75*
G03*
X191835000Y-67580000I-700000J0D01*
G01*
X191835000Y-69580000D02*
G75*
G03*
X192535000Y-68880000I0J700000D01*
G01*
X197550000Y-88535000D02*
X196150000Y-88535000D01*
X196150000Y-90535000D02*
X197550000Y-90535000D01*
X195450000Y-89235000D02*
X195450000Y-89835000D01*
X198250000Y-89835000D02*
X198250000Y-89235000D01*
X195450000Y-89835000D02*
G75*
G03*
X196150000Y-90535000I699999J-1D01*
G01*
X196150000Y-88535000D02*
G75*
G03*
X195450000Y-89235000I-1J-699999D01*
G01*
X198250000Y-89235000D02*
G75*
G03*
X197550000Y-88535000I-700000J0D01*
G01*
X197550000Y-90535000D02*
G75*
G03*
X198250000Y-89835000I0J700000D01*
G01*
%LPC*%
D14*
X167640000Y-93670000D03*
X167640000Y-91170000D03*
X167640000Y-89170000D03*
X167640000Y-86670000D03*
D15*
X166190000Y-96740000D03*
X166190000Y-83600000D03*
D16*
X181900000Y-64847500D03*
X184670000Y-64847500D03*
X187440000Y-64847500D03*
X190210000Y-64847500D03*
D14*
X167640000Y-75255000D03*
X167640000Y-72755000D03*
X167640000Y-70755000D03*
X167640000Y-68255000D03*
D15*
X166190000Y-78325000D03*
X166190000Y-65185000D03*
D16*
X181900000Y-97155000D03*
X184670000Y-97155000D03*
X187440000Y-97155000D03*
X190210000Y-97155000D03*
D17*
X175895000Y-89535000D03*
D18*
X175895000Y-92075000D03*
D19*
X198215000Y-93000000D03*
X196215000Y-93000000D03*
X194215000Y-93000000D03*
X198215000Y-97500000D03*
X196215000Y-97500000D03*
X194215000Y-97500000D03*
D14*
X172720000Y-78740000D03*
X172720000Y-83620000D03*
D20*
X171132500Y-64770000D03*
D21*
X173672500Y-64770000D03*
X176212500Y-64770000D03*
D22*
X197407500Y-77125000D03*
X197407500Y-79895000D03*
X197407500Y-82665000D03*
X197407500Y-85435000D03*
D21*
X195580000Y-64135000D03*
X198120000Y-64135000D03*
X198120000Y-66675000D03*
X198120000Y-69215000D03*
D20*
X198120000Y-71755000D03*
D23*
X175592500Y-67310000D03*
D24*
X174292500Y-67310000D03*
D25*
X190485000Y-68580000D03*
D26*
X191785000Y-68580000D03*
D25*
X196200000Y-89535000D03*
D26*
X197500000Y-89535000D03*
M02*
