%TF.GenerationSoftware,KiCad,Pcbnew,6.0.8-f2edbf62ab~116~ubuntu22.04.1*%
%TF.CreationDate,2022-10-13T11:50:10+02:00*%
%TF.ProjectId,Dual USB Controller adapter,4475616c-2055-4534-9220-436f6e74726f,0.3*%
%TF.SameCoordinates,Original*%
%TF.FileFunction,Drillmap*%
%TF.FilePolarity,Positive*%
%FSLAX45Y45*%
G04 Gerber Fmt 4.5, Leading zero omitted, Abs format (unit mm)*
G04 Created by KiCad (PCBNEW 6.0.8-f2edbf62ab~116~ubuntu22.04.1) date 2022-10-13 11:50:10*
%MOMM*%
%LPD*%
G01*
G04 APERTURE LIST*
%ADD10C,0.100000*%
%ADD11C,0.200000*%
G04 APERTURE END LIST*
D10*
X19939000Y-6286500D02*
X16446500Y-6286500D01*
X16446500Y-9906000D02*
X19939000Y-9906000D01*
X16446500Y-6286500D02*
X16446500Y-9906000D01*
X19939000Y-9906000D02*
X19939000Y-6286500D01*
D11*
X16699119Y-10221476D02*
X16699119Y-10021476D01*
X16746738Y-10021476D01*
X16775309Y-10031000D01*
X16794357Y-10050048D01*
X16803881Y-10069095D01*
X16813405Y-10107190D01*
X16813405Y-10135762D01*
X16803881Y-10173857D01*
X16794357Y-10192905D01*
X16775309Y-10211952D01*
X16746738Y-10221476D01*
X16699119Y-10221476D01*
X16899119Y-10221476D02*
X16899119Y-10088143D01*
X16899119Y-10126238D02*
X16908643Y-10107190D01*
X16918167Y-10097667D01*
X16937214Y-10088143D01*
X16956262Y-10088143D01*
X17022929Y-10221476D02*
X17022929Y-10088143D01*
X17022929Y-10021476D02*
X17013405Y-10031000D01*
X17022929Y-10040524D01*
X17032452Y-10031000D01*
X17022929Y-10021476D01*
X17022929Y-10040524D01*
X17146738Y-10221476D02*
X17127690Y-10211952D01*
X17118167Y-10192905D01*
X17118167Y-10021476D01*
X17251500Y-10221476D02*
X17232452Y-10211952D01*
X17222929Y-10192905D01*
X17222929Y-10021476D01*
X17480071Y-10221476D02*
X17480071Y-10021476D01*
X17546738Y-10164333D01*
X17613405Y-10021476D01*
X17613405Y-10221476D01*
X17794357Y-10221476D02*
X17794357Y-10116714D01*
X17784833Y-10097667D01*
X17765786Y-10088143D01*
X17727690Y-10088143D01*
X17708643Y-10097667D01*
X17794357Y-10211952D02*
X17775310Y-10221476D01*
X17727690Y-10221476D01*
X17708643Y-10211952D01*
X17699119Y-10192905D01*
X17699119Y-10173857D01*
X17708643Y-10154810D01*
X17727690Y-10145286D01*
X17775310Y-10145286D01*
X17794357Y-10135762D01*
X17889595Y-10088143D02*
X17889595Y-10288143D01*
X17889595Y-10097667D02*
X17908643Y-10088143D01*
X17946738Y-10088143D01*
X17965786Y-10097667D01*
X17975310Y-10107190D01*
X17984833Y-10126238D01*
X17984833Y-10183381D01*
X17975310Y-10202429D01*
X17965786Y-10211952D01*
X17946738Y-10221476D01*
X17908643Y-10221476D01*
X17889595Y-10211952D01*
X18070548Y-10202429D02*
X18080071Y-10211952D01*
X18070548Y-10221476D01*
X18061024Y-10211952D01*
X18070548Y-10202429D01*
X18070548Y-10221476D01*
X18070548Y-10097667D02*
X18080071Y-10107190D01*
X18070548Y-10116714D01*
X18061024Y-10107190D01*
X18070548Y-10097667D01*
X18070548Y-10116714D01*
M02*
