M48
; DRILL file {KiCad 6.0.8-f2edbf62ab~116~ubuntu22.04.1} date jeu. 13 oct. 2022 11:50:09
; FORMAT={-:-/ absolute / metric / decimal}
; #@! TF.CreationDate,2022-10-13T11:50:09+02:00
; #@! TF.GenerationSoftware,Kicad,Pcbnew,6.0.8-f2edbf62ab~116~ubuntu22.04.1
; #@! TF.FileFunction,Plated,1,2,PTH
FMAT,2
METRIC
; #@! TA.AperFunction,Plated,PTH,ViaDrill
T1C0.400
; #@! TA.AperFunction,Plated,PTH,ComponentDrill
T2C0.800
; #@! TA.AperFunction,Plated,PTH,ComponentDrill
T3C0.900
; #@! TA.AperFunction,Plated,PTH,ComponentDrill
T4C1.000
; #@! TA.AperFunction,Plated,PTH,ComponentDrill
T5C2.300
%
G90
G05
T1
X171.45Y-76.2
X171.45Y-93.345
X173.355Y-72.39
X173.736Y-70.485
X173.99Y-74.295
X178.117Y-85.725
X180.975Y-88.9
X181.292Y-79.375
X181.292Y-80.264
X181.61Y-81.915
X181.61Y-93.98
X182.181Y-74.612
X182.245Y-67.31
X182.245Y-94.615
X182.725Y-79.057
X182.725Y-83.375
X182.725Y-85.725
X182.88Y-90.17
X183.007Y-78.105
X183.515Y-94.615
X183.983Y-78.09
X184.023Y-74.676
X185.611Y-81.915
X186.079Y-94.639
X186.525Y-89.535
X187.007Y-67.31
X187.007Y-69.532
X187.325Y-89.535
X187.325Y-94.615
X187.706Y-86.233
X188.168Y-89.568
X188.595Y-79.375
X188.595Y-94.615
X189.103Y-89.535
X189.547Y-73.343
X189.805Y-94.615
X189.865Y-67.31
X189.865Y-86.36
X190.817Y-71.056
X191.135Y-94.615
X193.04Y-78.105
X193.167Y-82.931
X194.945Y-78.74
X194.945Y-82.931
X194.945Y-85.09
X194.945Y-90.805
X196.215Y-69.215
X196.215Y-88.265
T2
X172.72Y-78.74
X172.72Y-83.62
X194.215Y-93.0
X194.215Y-97.5
X196.215Y-93.0
X196.215Y-97.5
X198.215Y-93.0
X198.215Y-97.5
T3
X175.895Y-89.535
X175.895Y-92.075
T4
X167.64Y-68.255
X167.64Y-70.755
X167.64Y-72.755
X167.64Y-75.255
X167.64Y-86.67
X167.64Y-89.17
X167.64Y-91.17
X167.64Y-93.67
X171.132Y-64.77
X173.672Y-64.77
X176.213Y-64.77
X195.58Y-64.135
X198.12Y-64.135
X198.12Y-66.675
X198.12Y-69.215
X198.12Y-71.755
T5
X166.19Y-65.185
X166.19Y-78.325
X166.19Y-83.6
X166.19Y-96.74
T0
M30
