G04 #@! TF.GenerationSoftware,KiCad,Pcbnew,6.0.8-f2edbf62ab~116~ubuntu22.04.1*
G04 #@! TF.CreationDate,2022-10-13T11:50:00+02:00*
G04 #@! TF.ProjectId,Dual USB Controller adapter,4475616c-2055-4534-9220-436f6e74726f,0.3*
G04 #@! TF.SameCoordinates,Original*
G04 #@! TF.FileFunction,Copper,L2,Bot*
G04 #@! TF.FilePolarity,Positive*
%FSLAX46Y46*%
G04 Gerber Fmt 4.6, Leading zero omitted, Abs format (unit mm)*
G04 Created by KiCad (PCBNEW 6.0.8-f2edbf62ab~116~ubuntu22.04.1) date 2022-10-13 11:50:00*
%MOMM*%
%LPD*%
G01*
G04 APERTURE LIST*
G04 Aperture macros list*
%AMFreePoly0*
4,1,22,0.500000,-0.750000,0.000000,-0.750000,0.000000,-0.745033,-0.079941,-0.743568,-0.215256,-0.701293,-0.333266,-0.622738,-0.424486,-0.514219,-0.481581,-0.384460,-0.499164,-0.250000,-0.500000,-0.250000,-0.500000,0.250000,-0.499164,0.250000,-0.499963,0.256109,-0.478152,0.396186,-0.417904,0.524511,-0.324060,0.630769,-0.204165,0.706417,-0.067858,0.745374,0.000000,0.744959,0.000000,0.750000,
0.500000,0.750000,0.500000,-0.750000,0.500000,-0.750000,$1*%
%AMFreePoly1*
4,1,20,0.000000,0.744959,0.073905,0.744508,0.209726,0.703889,0.328688,0.626782,0.421226,0.519385,0.479903,0.390333,0.500000,0.250000,0.500000,-0.250000,0.499851,-0.262216,0.476331,-0.402017,0.414519,-0.529596,0.319384,-0.634700,0.198574,-0.708877,0.061801,-0.746166,0.000000,-0.745033,0.000000,-0.750000,-0.500000,-0.750000,-0.500000,0.750000,0.000000,0.750000,0.000000,0.744959,
0.000000,0.744959,$1*%
G04 Aperture macros list end*
G04 #@! TA.AperFunction,ComponentPad*
%ADD10C,1.500000*%
G04 #@! TD*
G04 #@! TA.AperFunction,ComponentPad*
%ADD11C,3.000000*%
G04 #@! TD*
G04 #@! TA.AperFunction,SMDPad,CuDef*
%ADD12R,1.846667X3.480000*%
G04 #@! TD*
G04 #@! TA.AperFunction,ComponentPad*
%ADD13R,1.800000X1.800000*%
G04 #@! TD*
G04 #@! TA.AperFunction,ComponentPad*
%ADD14C,1.800000*%
G04 #@! TD*
G04 #@! TA.AperFunction,ComponentPad*
%ADD15C,1.200000*%
G04 #@! TD*
G04 #@! TA.AperFunction,ComponentPad*
%ADD16R,1.700000X1.700000*%
G04 #@! TD*
G04 #@! TA.AperFunction,ComponentPad*
%ADD17O,1.700000X1.700000*%
G04 #@! TD*
G04 #@! TA.AperFunction,SMDPad,CuDef*
%ADD18R,3.480000X1.846667*%
G04 #@! TD*
G04 #@! TA.AperFunction,SMDPad,CuDef*
%ADD19FreePoly0,180.000000*%
G04 #@! TD*
G04 #@! TA.AperFunction,SMDPad,CuDef*
%ADD20FreePoly1,180.000000*%
G04 #@! TD*
G04 #@! TA.AperFunction,SMDPad,CuDef*
%ADD21FreePoly0,0.000000*%
G04 #@! TD*
G04 #@! TA.AperFunction,SMDPad,CuDef*
%ADD22FreePoly1,0.000000*%
G04 #@! TD*
G04 #@! TA.AperFunction,ViaPad*
%ADD23C,0.600000*%
G04 #@! TD*
G04 #@! TA.AperFunction,Conductor*
%ADD24C,0.500000*%
G04 #@! TD*
G04 #@! TA.AperFunction,Conductor*
%ADD25C,0.250000*%
G04 #@! TD*
G04 APERTURE END LIST*
G36*
X175192500Y-67610000D02*
G01*
X174692500Y-67610000D01*
X174692500Y-67010000D01*
X175192500Y-67010000D01*
X175192500Y-67610000D01*
G37*
G36*
X191385000Y-68880000D02*
G01*
X190885000Y-68880000D01*
X190885000Y-68280000D01*
X191385000Y-68280000D01*
X191385000Y-68880000D01*
G37*
G36*
X197100000Y-89835000D02*
G01*
X196600000Y-89835000D01*
X196600000Y-89235000D01*
X197100000Y-89235000D01*
X197100000Y-89835000D01*
G37*
D10*
X167640000Y-93670000D03*
X167640000Y-91170000D03*
X167640000Y-89170000D03*
X167640000Y-86670000D03*
D11*
X166190000Y-96740000D03*
X166190000Y-83600000D03*
D12*
X181900000Y-64847500D03*
X184670000Y-64847500D03*
X187440000Y-64847500D03*
X190210000Y-64847500D03*
D10*
X167640000Y-75255000D03*
X167640000Y-72755000D03*
X167640000Y-70755000D03*
X167640000Y-68255000D03*
D11*
X166190000Y-78325000D03*
X166190000Y-65185000D03*
D12*
X181900000Y-97155000D03*
X184670000Y-97155000D03*
X187440000Y-97155000D03*
X190210000Y-97155000D03*
D13*
X175895000Y-89535000D03*
D14*
X175895000Y-92075000D03*
D15*
X198215000Y-93000000D03*
X196215000Y-93000000D03*
X194215000Y-93000000D03*
X198215000Y-97500000D03*
X196215000Y-97500000D03*
X194215000Y-97500000D03*
D10*
X172720000Y-78740000D03*
X172720000Y-83620000D03*
D16*
X171132500Y-64770000D03*
D17*
X173672500Y-64770000D03*
X176212500Y-64770000D03*
D18*
X197407500Y-77125000D03*
X197407500Y-79895000D03*
X197407500Y-82665000D03*
X197407500Y-85435000D03*
D17*
X195580000Y-64135000D03*
X198120000Y-64135000D03*
X198120000Y-66675000D03*
X198120000Y-69215000D03*
D16*
X198120000Y-71755000D03*
D19*
X175592500Y-67310000D03*
D20*
X174292500Y-67310000D03*
D21*
X190485000Y-68580000D03*
D22*
X191785000Y-68580000D03*
D21*
X196200000Y-89535000D03*
D22*
X197500000Y-89535000D03*
D23*
X193040000Y-78105000D03*
X171450000Y-76200000D03*
X173736000Y-70485000D03*
X187007500Y-69532500D03*
X196215000Y-69215000D03*
X182181500Y-74612500D03*
X180975000Y-88900000D03*
X185610500Y-81915000D03*
X181610000Y-81915000D03*
X194945000Y-82931000D03*
X171450000Y-93345000D03*
X187007500Y-67310000D03*
X193167000Y-82931000D03*
X182724997Y-79057500D03*
X182724997Y-85725000D03*
X182724997Y-83375498D03*
X189103000Y-89535000D03*
X187706002Y-86233000D03*
X173990000Y-74295000D03*
X181292500Y-79375000D03*
X181292500Y-80264000D03*
X173354994Y-72390000D03*
X178117500Y-85725000D03*
X188595000Y-94615000D03*
X187325000Y-89535000D03*
X189865000Y-86360000D03*
X191135000Y-94615000D03*
X189805000Y-94615000D03*
X188168025Y-89567620D03*
X183982620Y-78090289D03*
X182245000Y-94615000D03*
X186524997Y-89535000D03*
X186079442Y-94639442D03*
X184023000Y-74676000D03*
X183515000Y-94615000D03*
X183007000Y-78105002D03*
X181610000Y-93980000D03*
X189547500Y-73342500D03*
X188595000Y-79375000D03*
X187325000Y-94615000D03*
X189865000Y-67310000D03*
X182245000Y-67310000D03*
X196215000Y-88265000D03*
X194945000Y-85090000D03*
X194945000Y-78740000D03*
X194945000Y-90805000D03*
X190817498Y-71056500D03*
X182879996Y-90170000D03*
D24*
X177165000Y-70485000D02*
X177165000Y-70485000D01*
X177165000Y-70485000D02*
X173990000Y-70485000D01*
X173990000Y-70485000D02*
X173355000Y-70485000D01*
D25*
X180975000Y-88900000D02*
X180975000Y-82550000D01*
D24*
X185420000Y-73660000D02*
X185610500Y-73850500D01*
X181292500Y-74612500D02*
X177165000Y-70485000D01*
X196215000Y-69639264D02*
X196215000Y-69215000D01*
X185610500Y-82339264D02*
X185610500Y-81915000D01*
X182181500Y-74612500D02*
X181292500Y-74612500D01*
X187440000Y-64770000D02*
X187440000Y-67010000D01*
X184670000Y-94615000D02*
X185610500Y-93674500D01*
X171450000Y-93345000D02*
X170815000Y-92710000D01*
X185610500Y-93674500D02*
X185610500Y-82339264D01*
X177165000Y-70485000D02*
X177165000Y-70485000D01*
X171450000Y-72390000D02*
X171450000Y-75775736D01*
X186034764Y-81915000D02*
X185610500Y-81915000D01*
X197485000Y-82665000D02*
X195211000Y-82665000D01*
X170815000Y-76835000D02*
X171450000Y-76200000D01*
X185610500Y-81490736D02*
X185610500Y-81915000D01*
X196215000Y-71200000D02*
X196215000Y-69639264D01*
X195211000Y-82665000D02*
X194945000Y-82931000D01*
X187325000Y-81915000D02*
X186034764Y-81915000D01*
X196770000Y-71755000D02*
X196215000Y-71200000D01*
X191135000Y-89920000D02*
X191135000Y-85725000D01*
D25*
X180975000Y-82550000D02*
X181610000Y-81915000D01*
D24*
X184670000Y-97155000D02*
X184670000Y-94615000D01*
X198120000Y-71755000D02*
X196770000Y-71755000D01*
X185610500Y-73850500D02*
X185610500Y-81490736D01*
D25*
X182045000Y-81480000D02*
X182045000Y-74749000D01*
D24*
X187140000Y-67310000D02*
X187007500Y-67310000D01*
X182181500Y-74612500D02*
X183134000Y-73660000D01*
X171450000Y-75775736D02*
X171450000Y-76200000D01*
X191135000Y-85725000D02*
X187325000Y-81915000D01*
D25*
X181610000Y-81915000D02*
X182045000Y-81480000D01*
D24*
X173355000Y-70485000D02*
X171450000Y-72390000D01*
X187440000Y-67010000D02*
X187140000Y-67310000D01*
X183134000Y-73660000D02*
X185420000Y-73660000D01*
X194215000Y-93000000D02*
X191135000Y-89920000D01*
X170815000Y-92710000D02*
X170815000Y-76835000D01*
D25*
X182045000Y-74749000D02*
X182181500Y-74612500D01*
X182724997Y-85725000D02*
X182724997Y-79057500D01*
X189103000Y-87629998D02*
X187706002Y-86233000D01*
X189103000Y-89535000D02*
X189103000Y-87629998D01*
X179070000Y-79375000D02*
X173990000Y-74295000D01*
X181292500Y-79375000D02*
X179070000Y-79375000D01*
X178689000Y-80264000D02*
X173354994Y-74929994D01*
X181292500Y-80264000D02*
X178689000Y-80264000D01*
X173354994Y-74929994D02*
X173354994Y-72390000D01*
X175895000Y-89535000D02*
X175895000Y-87947500D01*
X177817501Y-86024999D02*
X178117500Y-85725000D01*
X175895000Y-87947500D02*
X177817501Y-86024999D01*
X187325000Y-89535000D02*
X187325000Y-93393884D01*
X187373884Y-93393884D02*
X188595000Y-94615000D01*
X187325000Y-93393884D02*
X187373884Y-93393884D01*
X189865000Y-93345000D02*
X189865000Y-86784264D01*
X189865000Y-86784264D02*
X189865000Y-86360000D01*
X191135000Y-94615000D02*
X189865000Y-93345000D01*
X189805000Y-94760000D02*
X189805000Y-94615000D01*
X190210000Y-97155000D02*
X190210000Y-95165000D01*
X188168025Y-92978025D02*
X189805000Y-94615000D01*
X188168025Y-89567620D02*
X188168025Y-92978025D01*
X190210000Y-95165000D02*
X189805000Y-94760000D01*
X184150000Y-78257669D02*
X183982620Y-78090289D01*
X181900000Y-97155000D02*
X181900000Y-94960000D01*
X181900000Y-94960000D02*
X182245000Y-94615000D01*
X184150000Y-92710000D02*
X184150000Y-78257669D01*
X182245000Y-94615000D02*
X184150000Y-92710000D01*
X186524997Y-89535000D02*
X186524997Y-94193887D01*
X186524997Y-94193887D02*
X186079442Y-94639442D01*
X183515000Y-94615000D02*
X184683514Y-93446486D01*
X184683514Y-75336514D02*
X184322999Y-74975999D01*
X184322999Y-74975999D02*
X184023000Y-74676000D01*
X184683514Y-93446486D02*
X184683514Y-75336514D01*
X183560999Y-78659001D02*
X183306999Y-78405001D01*
X183306999Y-78405001D02*
X183007000Y-78105002D01*
X181610000Y-93980000D02*
X183560999Y-92029001D01*
X183560999Y-92029001D02*
X183560999Y-78659001D01*
X188595000Y-74295000D02*
X189547500Y-73342500D01*
X188595000Y-79375000D02*
X188595000Y-74295000D01*
D24*
X187440000Y-97155000D02*
X187440000Y-94730000D01*
X187440000Y-94730000D02*
X187325000Y-94615000D01*
D25*
X189865000Y-67310000D02*
X189865000Y-68163700D01*
X189865000Y-68163700D02*
X190281300Y-68580000D01*
X190281300Y-68580000D02*
X190500000Y-68580000D01*
X181945001Y-67010001D02*
X182245000Y-67310000D01*
X181900000Y-66965000D02*
X181945001Y-67010001D01*
X181900000Y-64770000D02*
X181900000Y-66965000D01*
X196215000Y-88265000D02*
X196215000Y-89535000D01*
X194945000Y-86995000D02*
X196215000Y-88265000D01*
X194945000Y-85090000D02*
X194945000Y-86995000D01*
X194945000Y-78740000D02*
X196560000Y-77125000D01*
X196560000Y-77125000D02*
X197485000Y-77125000D01*
D24*
X194072499Y-78977501D02*
X194072499Y-74311501D01*
X180022500Y-68580000D02*
X184670000Y-68580000D01*
X194072499Y-74311501D02*
X188340998Y-68580000D01*
X194072499Y-78977501D02*
X194072499Y-89932499D01*
X175592500Y-65390000D02*
X176212500Y-64770000D01*
X175592500Y-67310000D02*
X175592500Y-65390000D01*
X194072499Y-89932499D02*
X194945000Y-90805000D01*
X194989998Y-79895000D02*
X194072499Y-78977501D01*
X176212500Y-64770000D02*
X180022500Y-68580000D01*
X188340998Y-68580000D02*
X184785000Y-68580000D01*
X197485000Y-79895000D02*
X194989998Y-79895000D01*
X184670000Y-68580000D02*
X184670000Y-64770000D01*
D25*
X191785000Y-67325000D02*
X190210000Y-65750000D01*
X191785000Y-68580000D02*
X191785000Y-67325000D01*
X190210000Y-65750000D02*
X190210000Y-64770000D01*
X197485000Y-89535000D02*
X197485000Y-85435000D01*
D24*
X174292500Y-65390000D02*
X173672500Y-64770000D01*
X169545000Y-84455000D02*
X169545000Y-75247500D01*
X167965000Y-68580000D02*
X167640000Y-68255000D01*
X169545000Y-84765000D02*
X167640000Y-86670000D01*
X169545000Y-68580000D02*
X169545000Y-74823236D01*
X169545000Y-73350000D02*
X169545000Y-73025000D01*
X170815000Y-95250000D02*
X169545000Y-93980000D01*
X169545000Y-93980000D02*
X169545000Y-84455000D01*
X169545000Y-84455000D02*
X169545000Y-84765000D01*
X169545000Y-74823236D02*
X169545000Y-75247500D01*
X169545000Y-73025000D02*
X169545000Y-75247500D01*
X173672500Y-64770000D02*
X169862500Y-68580000D01*
X169862500Y-68580000D02*
X167965000Y-68580000D01*
X177799996Y-95250000D02*
X170815000Y-95250000D01*
X174292500Y-67310000D02*
X174292500Y-65390000D01*
X182879996Y-90170000D02*
X177799996Y-95250000D01*
G04 #@! TA.AperFunction,Conductor*
G36*
X165166456Y-85328348D02*
G01*
X165235271Y-85371515D01*
X165242807Y-85375556D01*
X165484520Y-85484694D01*
X165492551Y-85487680D01*
X165746832Y-85563002D01*
X165755184Y-85564869D01*
X166017340Y-85604984D01*
X166025874Y-85605700D01*
X166291045Y-85609867D01*
X166299596Y-85609418D01*
X166562883Y-85577557D01*
X166571287Y-85575954D01*
X166640333Y-85557841D01*
X166711300Y-85559903D01*
X166769886Y-85600004D01*
X166797492Y-85665414D01*
X166785352Y-85735365D01*
X166761401Y-85768812D01*
X166672251Y-85857962D01*
X166669094Y-85862470D01*
X166669092Y-85862473D01*
X166549101Y-86033838D01*
X166545944Y-86038347D01*
X166543621Y-86043329D01*
X166543618Y-86043334D01*
X166539230Y-86052745D01*
X166452880Y-86237924D01*
X166395885Y-86450629D01*
X166376693Y-86670000D01*
X166395885Y-86889371D01*
X166452880Y-87102076D01*
X166455205Y-87107061D01*
X166543618Y-87296666D01*
X166543621Y-87296671D01*
X166545944Y-87301653D01*
X166549100Y-87306160D01*
X166549101Y-87306162D01*
X166661683Y-87466945D01*
X166672251Y-87482038D01*
X166827962Y-87637749D01*
X167008346Y-87764056D01*
X167013331Y-87766380D01*
X167013337Y-87766384D01*
X167097877Y-87805805D01*
X167151163Y-87852722D01*
X167170624Y-87920999D01*
X167150082Y-87988959D01*
X167097878Y-88034195D01*
X167013334Y-88073618D01*
X167013329Y-88073621D01*
X167008347Y-88075944D01*
X167003840Y-88079100D01*
X167003838Y-88079101D01*
X166832473Y-88199092D01*
X166832470Y-88199094D01*
X166827962Y-88202251D01*
X166672251Y-88357962D01*
X166669094Y-88362470D01*
X166669092Y-88362473D01*
X166602783Y-88457172D01*
X166545944Y-88538347D01*
X166543621Y-88543329D01*
X166543618Y-88543334D01*
X166531649Y-88569002D01*
X166452880Y-88737924D01*
X166395885Y-88950629D01*
X166376693Y-89170000D01*
X166395885Y-89389371D01*
X166452880Y-89602076D01*
X166480680Y-89661693D01*
X166543618Y-89796666D01*
X166543621Y-89796671D01*
X166545944Y-89801653D01*
X166549100Y-89806160D01*
X166549101Y-89806162D01*
X166668578Y-89976792D01*
X166672251Y-89982038D01*
X166771118Y-90080905D01*
X166805144Y-90143217D01*
X166800079Y-90214032D01*
X166771118Y-90259095D01*
X166672251Y-90357962D01*
X166669094Y-90362470D01*
X166669092Y-90362473D01*
X166582226Y-90486531D01*
X166545944Y-90538347D01*
X166543621Y-90543329D01*
X166543618Y-90543334D01*
X166496415Y-90644562D01*
X166452880Y-90737924D01*
X166395885Y-90950629D01*
X166376693Y-91170000D01*
X166395885Y-91389371D01*
X166452880Y-91602076D01*
X166463357Y-91624544D01*
X166543618Y-91796666D01*
X166543621Y-91796671D01*
X166545944Y-91801653D01*
X166549100Y-91806160D01*
X166549101Y-91806162D01*
X166653006Y-91954553D01*
X166672251Y-91982038D01*
X166827962Y-92137749D01*
X166832471Y-92140906D01*
X166832473Y-92140908D01*
X166841686Y-92147359D01*
X167008346Y-92264056D01*
X167013328Y-92266379D01*
X167013333Y-92266382D01*
X167098469Y-92306081D01*
X167151754Y-92352998D01*
X167171215Y-92421276D01*
X167150673Y-92489235D01*
X167098469Y-92534471D01*
X167013583Y-92574054D01*
X167004093Y-92579534D01*
X166962851Y-92608411D01*
X166954477Y-92618887D01*
X166961545Y-92632334D01*
X167627189Y-93297979D01*
X167641132Y-93305592D01*
X167642966Y-93305461D01*
X167649580Y-93301210D01*
X168319180Y-92631609D01*
X168325607Y-92619839D01*
X168316313Y-92607825D01*
X168275912Y-92579536D01*
X168266416Y-92574053D01*
X168181531Y-92534471D01*
X168128246Y-92487554D01*
X168108785Y-92419276D01*
X168129327Y-92351316D01*
X168181531Y-92306081D01*
X168266667Y-92266382D01*
X168266672Y-92266379D01*
X168271654Y-92264056D01*
X168438314Y-92147359D01*
X168447527Y-92140908D01*
X168447529Y-92140906D01*
X168452038Y-92137749D01*
X168571405Y-92018382D01*
X168633717Y-91984356D01*
X168704532Y-91989421D01*
X168761368Y-92031968D01*
X168786179Y-92098488D01*
X168786500Y-92107477D01*
X168786500Y-92858223D01*
X168766498Y-92926344D01*
X168719122Y-92969756D01*
X168677665Y-92991546D01*
X168012021Y-93657189D01*
X168004408Y-93671132D01*
X168004539Y-93672966D01*
X168008790Y-93679580D01*
X168678391Y-94349180D01*
X168690161Y-94355607D01*
X168711162Y-94339360D01*
X168777280Y-94313497D01*
X168846885Y-94327485D01*
X168893634Y-94369932D01*
X168902186Y-94382976D01*
X168904523Y-94386680D01*
X168942405Y-94449107D01*
X168946121Y-94453315D01*
X168946122Y-94453316D01*
X168949803Y-94457484D01*
X168949776Y-94457508D01*
X168952429Y-94460500D01*
X168955132Y-94463733D01*
X168959144Y-94469852D01*
X168964456Y-94474884D01*
X169015383Y-94523128D01*
X169017825Y-94525506D01*
X170231230Y-95738911D01*
X170243616Y-95753323D01*
X170252149Y-95764918D01*
X170252154Y-95764923D01*
X170256492Y-95770818D01*
X170262070Y-95775557D01*
X170262073Y-95775560D01*
X170296768Y-95805035D01*
X170304284Y-95811965D01*
X170309979Y-95817660D01*
X170312861Y-95819940D01*
X170332251Y-95835281D01*
X170335655Y-95838072D01*
X170385703Y-95880591D01*
X170391285Y-95885333D01*
X170397801Y-95888661D01*
X170402850Y-95892028D01*
X170407979Y-95895195D01*
X170413716Y-95899734D01*
X170479875Y-95930655D01*
X170483769Y-95932558D01*
X170548808Y-95965769D01*
X170555916Y-95967508D01*
X170561559Y-95969607D01*
X170567322Y-95971524D01*
X170573950Y-95974622D01*
X170581112Y-95976112D01*
X170581113Y-95976112D01*
X170645412Y-95989486D01*
X170649696Y-95990456D01*
X170720610Y-96007808D01*
X170726212Y-96008156D01*
X170726215Y-96008156D01*
X170731764Y-96008500D01*
X170731762Y-96008536D01*
X170735755Y-96008775D01*
X170739947Y-96009149D01*
X170747115Y-96010640D01*
X170824520Y-96008546D01*
X170827928Y-96008500D01*
X177732926Y-96008500D01*
X177751876Y-96009933D01*
X177766111Y-96012099D01*
X177766115Y-96012099D01*
X177773345Y-96013199D01*
X177780637Y-96012606D01*
X177780640Y-96012606D01*
X177826014Y-96008915D01*
X177836229Y-96008500D01*
X177844289Y-96008500D01*
X177861676Y-96006473D01*
X177872503Y-96005211D01*
X177876878Y-96004778D01*
X177942335Y-95999454D01*
X177942338Y-95999453D01*
X177949633Y-95998860D01*
X177956597Y-95996604D01*
X177962556Y-95995413D01*
X177968411Y-95994029D01*
X177975677Y-95993182D01*
X178044323Y-95968265D01*
X178048451Y-95966848D01*
X178110932Y-95946607D01*
X178110934Y-95946606D01*
X178117895Y-95944351D01*
X178124150Y-95940555D01*
X178129624Y-95938049D01*
X178135054Y-95935330D01*
X178141933Y-95932833D01*
X178148054Y-95928820D01*
X178202972Y-95892814D01*
X178206676Y-95890477D01*
X178269103Y-95852595D01*
X178277480Y-95845197D01*
X178277504Y-95845224D01*
X178280496Y-95842571D01*
X178283729Y-95839868D01*
X178289848Y-95835856D01*
X178343124Y-95779617D01*
X178345502Y-95777175D01*
X180730528Y-93392149D01*
X180792840Y-93358123D01*
X180863655Y-93363188D01*
X180920491Y-93405735D01*
X180945302Y-93472255D01*
X180930211Y-93541629D01*
X180925545Y-93549482D01*
X180881235Y-93618238D01*
X180878826Y-93624858D01*
X180878824Y-93624861D01*
X180829964Y-93759103D01*
X180819197Y-93788685D01*
X180796463Y-93968640D01*
X180814163Y-94149160D01*
X180871418Y-94321273D01*
X180875065Y-94327295D01*
X180875066Y-94327297D01*
X180956077Y-94461062D01*
X180965380Y-94476424D01*
X180970269Y-94481487D01*
X180970270Y-94481488D01*
X180979939Y-94491500D01*
X181091382Y-94606902D01*
X181144466Y-94641639D01*
X181195551Y-94675068D01*
X181241599Y-94729105D01*
X181251123Y-94799460D01*
X181221099Y-94863795D01*
X181161058Y-94901685D01*
X181126558Y-94906500D01*
X180928533Y-94906500D01*
X180866351Y-94913255D01*
X180729962Y-94964385D01*
X180613406Y-95051739D01*
X180526052Y-95168295D01*
X180474922Y-95304684D01*
X180468167Y-95366866D01*
X180468167Y-98425500D01*
X180448165Y-98493621D01*
X180394509Y-98540114D01*
X180342167Y-98551500D01*
X167497927Y-98551500D01*
X167429806Y-98531498D01*
X167383313Y-98477842D01*
X167373209Y-98407568D01*
X167395395Y-98352266D01*
X167413125Y-98327442D01*
X167406608Y-98315818D01*
X165919885Y-96829095D01*
X165885859Y-96766783D01*
X165887694Y-96741132D01*
X166554408Y-96741132D01*
X166554539Y-96742965D01*
X166558790Y-96749580D01*
X167765730Y-97956520D01*
X167777939Y-97963187D01*
X167789439Y-97954497D01*
X167886831Y-97821913D01*
X167891418Y-97814685D01*
X168017962Y-97581621D01*
X168021530Y-97573827D01*
X168115271Y-97325750D01*
X168117748Y-97317544D01*
X168176954Y-97059038D01*
X168178294Y-97050577D01*
X168202031Y-96784616D01*
X168202277Y-96779677D01*
X168202666Y-96742485D01*
X168202523Y-96737519D01*
X168184362Y-96471123D01*
X168183201Y-96462649D01*
X168129419Y-96202944D01*
X168127120Y-96194709D01*
X168038588Y-95944705D01*
X168035191Y-95936854D01*
X167913550Y-95701178D01*
X167909122Y-95693866D01*
X167790031Y-95524417D01*
X167779509Y-95516037D01*
X167766121Y-95523089D01*
X166562022Y-96727188D01*
X166554408Y-96741132D01*
X165887694Y-96741132D01*
X165890924Y-96695968D01*
X165919885Y-96650905D01*
X167406604Y-95164186D01*
X167413795Y-95151017D01*
X167396742Y-95127177D01*
X167398074Y-95126224D01*
X167369931Y-95085021D01*
X167367938Y-95014052D01*
X167404631Y-94953273D01*
X167468358Y-94921979D01*
X167500765Y-94920624D01*
X167634514Y-94932326D01*
X167645475Y-94932326D01*
X167853804Y-94914099D01*
X167864599Y-94912196D01*
X168066595Y-94858072D01*
X168076887Y-94854326D01*
X168266416Y-94765947D01*
X168275912Y-94760464D01*
X168317148Y-94731590D01*
X168325523Y-94721112D01*
X168318457Y-94707668D01*
X167652811Y-94042021D01*
X167638868Y-94034408D01*
X167637034Y-94034539D01*
X167630420Y-94038790D01*
X166960820Y-94708391D01*
X166939167Y-94748045D01*
X166936031Y-94762465D01*
X166885832Y-94812670D01*
X166816458Y-94827765D01*
X166790921Y-94823265D01*
X166612592Y-94772467D01*
X166604214Y-94770685D01*
X166341656Y-94733318D01*
X166333111Y-94732691D01*
X166067908Y-94731302D01*
X166059374Y-94731839D01*
X165796433Y-94766456D01*
X165788035Y-94768149D01*
X165532238Y-94838127D01*
X165524143Y-94840946D01*
X165280199Y-94944997D01*
X165272576Y-94948881D01*
X165164206Y-95013739D01*
X165095482Y-95031559D01*
X165028034Y-95009395D01*
X164983276Y-94954284D01*
X164973500Y-94905623D01*
X164973500Y-93675475D01*
X166377674Y-93675475D01*
X166395901Y-93883804D01*
X166397804Y-93894599D01*
X166451928Y-94096595D01*
X166455674Y-94106887D01*
X166544054Y-94296417D01*
X166549534Y-94305907D01*
X166578411Y-94347149D01*
X166588887Y-94355523D01*
X166602334Y-94348455D01*
X167267979Y-93682811D01*
X167275592Y-93668868D01*
X167275461Y-93667034D01*
X167271210Y-93660420D01*
X166601609Y-92990820D01*
X166589839Y-92984393D01*
X166577824Y-92993689D01*
X166549534Y-93034093D01*
X166544054Y-93043583D01*
X166455674Y-93233113D01*
X166451928Y-93243405D01*
X166397804Y-93445401D01*
X166395901Y-93456196D01*
X166377674Y-93664525D01*
X166377674Y-93675475D01*
X164973500Y-93675475D01*
X164973500Y-85435086D01*
X164993502Y-85366965D01*
X165047158Y-85320472D01*
X165117432Y-85310368D01*
X165166456Y-85328348D01*
G37*
G04 #@! TD.AperFunction*
G04 #@! TA.AperFunction,Conductor*
G36*
X176559512Y-66190147D02*
G01*
X176566095Y-66196276D01*
X179438730Y-69068911D01*
X179451116Y-69083323D01*
X179459649Y-69094918D01*
X179459654Y-69094923D01*
X179463992Y-69100818D01*
X179469570Y-69105557D01*
X179469573Y-69105560D01*
X179504268Y-69135035D01*
X179511784Y-69141965D01*
X179517480Y-69147661D01*
X179520341Y-69149924D01*
X179520346Y-69149929D01*
X179539766Y-69165293D01*
X179543167Y-69168082D01*
X179598785Y-69215333D01*
X179605298Y-69218659D01*
X179610337Y-69222020D01*
X179615479Y-69225196D01*
X179621216Y-69229734D01*
X179687375Y-69260655D01*
X179691269Y-69262558D01*
X179756308Y-69295769D01*
X179763417Y-69297508D01*
X179769051Y-69299604D01*
X179774821Y-69301523D01*
X179781450Y-69304622D01*
X179788613Y-69306112D01*
X179788616Y-69306113D01*
X179839330Y-69316661D01*
X179852935Y-69319491D01*
X179857201Y-69320457D01*
X179928110Y-69337808D01*
X179933712Y-69338156D01*
X179933715Y-69338156D01*
X179939264Y-69338500D01*
X179939262Y-69338535D01*
X179943234Y-69338775D01*
X179947455Y-69339152D01*
X179954615Y-69340641D01*
X180032042Y-69338546D01*
X180035450Y-69338500D01*
X184642165Y-69338500D01*
X184649966Y-69338742D01*
X184711298Y-69342547D01*
X184724260Y-69340320D01*
X184745596Y-69338500D01*
X187974627Y-69338500D01*
X188042748Y-69358502D01*
X188063722Y-69375405D01*
X190058490Y-71370173D01*
X190078093Y-71398271D01*
X190078916Y-71397773D01*
X190153546Y-71521002D01*
X190172878Y-71552924D01*
X190177767Y-71557987D01*
X190177768Y-71557988D01*
X190196263Y-71577140D01*
X190298880Y-71683402D01*
X190450657Y-71782722D01*
X190457261Y-71785178D01*
X190457363Y-71785216D01*
X190457462Y-71785280D01*
X190463550Y-71788355D01*
X190463232Y-71788984D01*
X190502535Y-71814218D01*
X193277094Y-74588777D01*
X193311120Y-74651089D01*
X193313999Y-74677872D01*
X193313999Y-78910431D01*
X193312566Y-78929381D01*
X193309300Y-78950850D01*
X193309893Y-78958142D01*
X193309893Y-78958145D01*
X193313584Y-79003519D01*
X193313999Y-79013734D01*
X193313999Y-89865429D01*
X193312566Y-89884379D01*
X193309300Y-89905848D01*
X193309893Y-89913140D01*
X193309893Y-89913143D01*
X193313584Y-89958517D01*
X193313999Y-89968732D01*
X193313999Y-89976792D01*
X193314424Y-89980436D01*
X193317288Y-90005006D01*
X193317721Y-90009381D01*
X193320451Y-90042939D01*
X193323639Y-90082136D01*
X193325895Y-90089100D01*
X193327086Y-90095059D01*
X193328470Y-90100914D01*
X193329317Y-90108180D01*
X193354234Y-90176826D01*
X193355651Y-90180954D01*
X193378148Y-90250398D01*
X193381944Y-90256653D01*
X193384450Y-90262127D01*
X193387169Y-90267557D01*
X193389666Y-90274436D01*
X193393679Y-90280556D01*
X193393679Y-90280557D01*
X193429685Y-90335475D01*
X193432022Y-90339179D01*
X193469904Y-90401606D01*
X193473620Y-90405814D01*
X193473621Y-90405815D01*
X193477302Y-90409983D01*
X193477275Y-90410007D01*
X193479928Y-90412999D01*
X193482631Y-90416232D01*
X193486643Y-90422351D01*
X193491955Y-90427383D01*
X193542882Y-90475627D01*
X193545324Y-90478005D01*
X194185992Y-91118673D01*
X194205595Y-91146771D01*
X194206418Y-91146273D01*
X194300380Y-91301424D01*
X194305269Y-91306487D01*
X194305270Y-91306488D01*
X194372636Y-91376247D01*
X194426382Y-91431902D01*
X194578159Y-91531222D01*
X194584763Y-91533678D01*
X194584765Y-91533679D01*
X194741558Y-91591990D01*
X194741560Y-91591990D01*
X194748168Y-91594448D01*
X194831995Y-91605633D01*
X194920980Y-91617507D01*
X194920984Y-91617507D01*
X194927961Y-91618438D01*
X194934972Y-91617800D01*
X194934976Y-91617800D01*
X195077459Y-91604832D01*
X195108600Y-91601998D01*
X195115302Y-91599820D01*
X195115304Y-91599820D01*
X195274409Y-91548124D01*
X195274412Y-91548123D01*
X195281108Y-91545947D01*
X195436912Y-91453069D01*
X195568266Y-91327982D01*
X195668643Y-91176902D01*
X195728146Y-91020261D01*
X195730555Y-91013920D01*
X195730556Y-91013918D01*
X195733055Y-91007338D01*
X195740255Y-90956106D01*
X195753610Y-90861083D01*
X195782898Y-90796409D01*
X195842502Y-90757836D01*
X195915956Y-90758352D01*
X195966039Y-90773999D01*
X195970463Y-90774716D01*
X195970465Y-90774716D01*
X196007597Y-90780730D01*
X196109821Y-90797287D01*
X196176782Y-90798514D01*
X196248539Y-90799830D01*
X196248541Y-90799830D01*
X196253020Y-90799912D01*
X196257465Y-90799359D01*
X196261944Y-90799122D01*
X196261951Y-90799249D01*
X196270339Y-90798729D01*
X196700000Y-90798729D01*
X196732438Y-90796409D01*
X196766373Y-90793982D01*
X196766374Y-90793982D01*
X196773111Y-90793500D01*
X196809440Y-90782833D01*
X196862868Y-90779012D01*
X197000000Y-90798729D01*
X197487322Y-90798729D01*
X197489630Y-90798750D01*
X197553020Y-90799912D01*
X197581142Y-90796409D01*
X197693128Y-90782460D01*
X197693132Y-90782459D01*
X197697565Y-90781907D01*
X197835745Y-90744234D01*
X197839862Y-90742452D01*
X197839866Y-90742451D01*
X197965296Y-90688173D01*
X197965301Y-90688171D01*
X197969420Y-90686388D01*
X198091472Y-90611448D01*
X198171129Y-90545316D01*
X198200093Y-90521270D01*
X198200095Y-90521268D01*
X198203540Y-90518408D01*
X198299654Y-90412224D01*
X198306816Y-90401606D01*
X198378599Y-90295183D01*
X198378602Y-90295178D01*
X198381107Y-90291464D01*
X198383982Y-90285531D01*
X198441596Y-90166613D01*
X198443554Y-90162572D01*
X198487838Y-90023812D01*
X198511600Y-89882574D01*
X198518682Y-89803627D01*
X198518833Y-89791285D01*
X198513995Y-89716964D01*
X198513729Y-89708779D01*
X198513729Y-89364481D01*
X198514233Y-89353223D01*
X198518464Y-89306053D01*
X198518682Y-89303627D01*
X198518833Y-89291285D01*
X198513683Y-89212171D01*
X198493379Y-89070394D01*
X198459959Y-88956106D01*
X198453755Y-88934892D01*
X198452497Y-88930590D01*
X198393217Y-88800211D01*
X198390805Y-88796440D01*
X198390801Y-88796432D01*
X198317157Y-88681279D01*
X198317156Y-88681278D01*
X198314742Y-88677503D01*
X198221252Y-88569002D01*
X198161671Y-88517026D01*
X198123486Y-88457172D01*
X198118500Y-88422077D01*
X198118500Y-86992833D01*
X198138502Y-86924712D01*
X198192158Y-86878219D01*
X198244500Y-86866833D01*
X198755500Y-86866833D01*
X198823621Y-86886835D01*
X198870114Y-86940491D01*
X198881500Y-86992833D01*
X198881500Y-91886432D01*
X198861498Y-91954553D01*
X198807842Y-92001046D01*
X198737568Y-92011150D01*
X198708810Y-92003462D01*
X198536549Y-91934737D01*
X198531180Y-91932595D01*
X198356663Y-91897881D01*
X198337032Y-91893976D01*
X198337031Y-91893976D01*
X198331366Y-91892849D01*
X198325592Y-91892773D01*
X198325588Y-91892773D01*
X198222452Y-91891424D01*
X198127655Y-91890183D01*
X198121958Y-91891162D01*
X198121957Y-91891162D01*
X198102671Y-91894476D01*
X197926870Y-91924684D01*
X197735734Y-91995198D01*
X197730773Y-91998150D01*
X197730772Y-91998150D01*
X197614939Y-92067064D01*
X197560649Y-92099363D01*
X197407478Y-92233690D01*
X197313395Y-92353034D01*
X197255515Y-92394146D01*
X197184595Y-92397440D01*
X197123152Y-92361869D01*
X197113488Y-92350416D01*
X197045758Y-92259715D01*
X197045758Y-92259714D01*
X197042305Y-92255091D01*
X196952646Y-92172211D01*
X196896943Y-92120719D01*
X196896940Y-92120717D01*
X196892703Y-92116800D01*
X196786947Y-92050073D01*
X196725288Y-92011169D01*
X196725283Y-92011167D01*
X196720404Y-92008088D01*
X196531180Y-91932595D01*
X196356663Y-91897881D01*
X196337032Y-91893976D01*
X196337031Y-91893976D01*
X196331366Y-91892849D01*
X196325592Y-91892773D01*
X196325588Y-91892773D01*
X196222452Y-91891424D01*
X196127655Y-91890183D01*
X196121958Y-91891162D01*
X196121957Y-91891162D01*
X196102671Y-91894476D01*
X195926870Y-91924684D01*
X195735734Y-91995198D01*
X195730773Y-91998150D01*
X195730772Y-91998150D01*
X195614939Y-92067064D01*
X195560649Y-92099363D01*
X195407478Y-92233690D01*
X195403907Y-92238220D01*
X195403906Y-92238221D01*
X195297274Y-92373482D01*
X195239392Y-92414595D01*
X195189174Y-92421143D01*
X195161457Y-92419125D01*
X195147449Y-92426762D01*
X194587021Y-92987189D01*
X194579408Y-93001132D01*
X194579539Y-93002966D01*
X194583790Y-93009580D01*
X195145239Y-93571028D01*
X195159176Y-93578639D01*
X195190419Y-93576404D01*
X195259793Y-93591495D01*
X195302305Y-93629363D01*
X195368479Y-93722997D01*
X195372613Y-93727024D01*
X195471013Y-93822881D01*
X195514410Y-93865157D01*
X195519206Y-93868362D01*
X195519209Y-93868364D01*
X195641600Y-93950143D01*
X195683803Y-93978342D01*
X195689106Y-93980620D01*
X195689109Y-93980622D01*
X195865680Y-94056483D01*
X195870987Y-94058763D01*
X195943817Y-94075243D01*
X196064055Y-94102450D01*
X196064060Y-94102451D01*
X196069692Y-94103725D01*
X196075463Y-94103952D01*
X196075465Y-94103952D01*
X196138470Y-94106427D01*
X196273263Y-94111723D01*
X196474883Y-94082490D01*
X196480347Y-94080635D01*
X196480352Y-94080634D01*
X196662327Y-94018862D01*
X196662332Y-94018860D01*
X196667799Y-94017004D01*
X196673653Y-94013726D01*
X196754159Y-93968640D01*
X196845551Y-93917458D01*
X197002186Y-93787186D01*
X197119733Y-93645851D01*
X197178670Y-93606267D01*
X197249652Y-93604831D01*
X197310143Y-93641998D01*
X197319503Y-93653699D01*
X197354151Y-93702724D01*
X197368479Y-93722997D01*
X197372613Y-93727024D01*
X197471013Y-93822881D01*
X197514410Y-93865157D01*
X197519206Y-93868362D01*
X197519209Y-93868364D01*
X197641600Y-93950143D01*
X197683803Y-93978342D01*
X197689106Y-93980620D01*
X197689109Y-93980622D01*
X197865680Y-94056483D01*
X197870987Y-94058763D01*
X197943817Y-94075243D01*
X198064055Y-94102450D01*
X198064060Y-94102451D01*
X198069692Y-94103725D01*
X198075463Y-94103952D01*
X198075465Y-94103952D01*
X198138470Y-94106427D01*
X198273263Y-94111723D01*
X198474883Y-94082490D01*
X198480347Y-94080635D01*
X198480352Y-94080634D01*
X198662327Y-94018862D01*
X198662332Y-94018860D01*
X198667799Y-94017004D01*
X198693935Y-94002367D01*
X198763143Y-93986534D01*
X198829925Y-94010632D01*
X198873078Y-94067009D01*
X198881500Y-94112302D01*
X198881500Y-96386432D01*
X198861498Y-96454553D01*
X198807842Y-96501046D01*
X198737568Y-96511150D01*
X198708810Y-96503462D01*
X198536549Y-96434737D01*
X198531180Y-96432595D01*
X198331366Y-96392849D01*
X198325592Y-96392773D01*
X198325588Y-96392773D01*
X198222452Y-96391424D01*
X198127655Y-96390183D01*
X198121958Y-96391162D01*
X198121957Y-96391162D01*
X197932567Y-96423705D01*
X197926870Y-96424684D01*
X197735734Y-96495198D01*
X197730773Y-96498150D01*
X197730772Y-96498150D01*
X197721844Y-96503462D01*
X197560649Y-96599363D01*
X197407478Y-96733690D01*
X197313395Y-96853034D01*
X197255515Y-96894146D01*
X197184595Y-96897440D01*
X197123152Y-96861869D01*
X197113488Y-96850416D01*
X197045758Y-96759715D01*
X197045758Y-96759714D01*
X197042305Y-96755091D01*
X196952646Y-96672211D01*
X196896943Y-96620719D01*
X196896940Y-96620717D01*
X196892703Y-96616800D01*
X196846675Y-96587759D01*
X196725288Y-96511169D01*
X196725283Y-96511167D01*
X196720404Y-96508088D01*
X196531180Y-96432595D01*
X196331366Y-96392849D01*
X196325592Y-96392773D01*
X196325588Y-96392773D01*
X196222452Y-96391424D01*
X196127655Y-96390183D01*
X196121958Y-96391162D01*
X196121957Y-96391162D01*
X195932567Y-96423705D01*
X195926870Y-96424684D01*
X195735734Y-96495198D01*
X195730773Y-96498150D01*
X195730772Y-96498150D01*
X195721844Y-96503462D01*
X195560649Y-96599363D01*
X195407478Y-96733690D01*
X195313395Y-96853034D01*
X195255515Y-96894146D01*
X195184595Y-96897440D01*
X195123152Y-96861869D01*
X195113488Y-96850416D01*
X195045758Y-96759715D01*
X195045758Y-96759714D01*
X195042305Y-96755091D01*
X194952646Y-96672211D01*
X194896943Y-96620719D01*
X194896940Y-96620717D01*
X194892703Y-96616800D01*
X194846675Y-96587759D01*
X194725288Y-96511169D01*
X194725283Y-96511167D01*
X194720404Y-96508088D01*
X194531180Y-96432595D01*
X194331366Y-96392849D01*
X194325592Y-96392773D01*
X194325588Y-96392773D01*
X194222452Y-96391424D01*
X194127655Y-96390183D01*
X194121958Y-96391162D01*
X194121957Y-96391162D01*
X193932567Y-96423705D01*
X193926870Y-96424684D01*
X193735734Y-96495198D01*
X193730773Y-96498150D01*
X193730772Y-96498150D01*
X193721844Y-96503462D01*
X193560649Y-96599363D01*
X193407478Y-96733690D01*
X193403911Y-96738215D01*
X193403906Y-96738220D01*
X193317331Y-96848040D01*
X193281351Y-96893681D01*
X193186492Y-97073978D01*
X193126078Y-97268543D01*
X193102132Y-97470859D01*
X193115457Y-97674151D01*
X193165605Y-97871610D01*
X193250898Y-98056624D01*
X193368479Y-98222997D01*
X193463763Y-98315818D01*
X193483706Y-98335246D01*
X193518543Y-98397107D01*
X193514406Y-98467983D01*
X193472607Y-98525371D01*
X193406417Y-98551051D01*
X193395784Y-98551500D01*
X191767833Y-98551500D01*
X191699712Y-98531498D01*
X191653219Y-98477842D01*
X191641833Y-98425500D01*
X191641833Y-95366866D01*
X191636941Y-95321831D01*
X191649469Y-95251949D01*
X191675312Y-95216978D01*
X191733980Y-95161109D01*
X191758266Y-95137982D01*
X191858643Y-94986902D01*
X191901458Y-94874192D01*
X191920555Y-94823920D01*
X191920556Y-94823918D01*
X191923055Y-94817338D01*
X191932639Y-94749146D01*
X191947748Y-94641639D01*
X191947748Y-94641636D01*
X191948299Y-94637717D01*
X191948616Y-94615000D01*
X191928397Y-94434745D01*
X191911664Y-94386695D01*
X191871064Y-94270106D01*
X191871062Y-94270103D01*
X191868745Y-94263448D01*
X191792951Y-94142151D01*
X191776359Y-94115598D01*
X191772626Y-94109624D01*
X191767664Y-94104627D01*
X191649778Y-93985915D01*
X191649774Y-93985912D01*
X191644815Y-93980918D01*
X191582377Y-93941294D01*
X193638066Y-93941294D01*
X193647948Y-93953783D01*
X193679239Y-93974691D01*
X193689349Y-93980181D01*
X193865835Y-94056005D01*
X193876778Y-94059560D01*
X194064120Y-94101952D01*
X194075530Y-94103454D01*
X194267469Y-94110995D01*
X194278951Y-94110393D01*
X194469045Y-94082832D01*
X194480240Y-94080144D01*
X194662131Y-94018400D01*
X194672628Y-94013726D01*
X194783032Y-93951898D01*
X194792895Y-93941821D01*
X194789940Y-93934151D01*
X194227811Y-93372021D01*
X194213868Y-93364408D01*
X194212034Y-93364539D01*
X194205420Y-93368790D01*
X193644259Y-93929952D01*
X193638066Y-93941294D01*
X191582377Y-93941294D01*
X191491666Y-93883727D01*
X191420461Y-93858372D01*
X191327425Y-93825243D01*
X191327420Y-93825242D01*
X191320790Y-93822881D01*
X191313802Y-93822048D01*
X191313799Y-93822047D01*
X191271008Y-93816945D01*
X191205734Y-93789018D01*
X191196831Y-93780926D01*
X190535405Y-93119500D01*
X190501379Y-93057188D01*
X190498500Y-93030405D01*
X190498500Y-92976638D01*
X193103012Y-92976638D01*
X193115575Y-93168304D01*
X193117376Y-93179674D01*
X193164657Y-93365843D01*
X193168498Y-93376690D01*
X193248916Y-93551130D01*
X193254664Y-93561086D01*
X193260788Y-93569751D01*
X193271377Y-93578140D01*
X193284676Y-93571113D01*
X193842979Y-93012811D01*
X193850592Y-92998868D01*
X193850461Y-92997034D01*
X193846210Y-92990420D01*
X193283538Y-92427749D01*
X193271163Y-92420992D01*
X193265197Y-92425458D01*
X193189645Y-92569058D01*
X193185242Y-92579691D01*
X193128281Y-92763132D01*
X193125891Y-92774376D01*
X193103313Y-92965137D01*
X193103012Y-92976638D01*
X190498500Y-92976638D01*
X190498500Y-92058675D01*
X193637788Y-92058675D01*
X193641275Y-92067064D01*
X194202189Y-92627979D01*
X194216132Y-92635592D01*
X194217966Y-92635461D01*
X194224580Y-92631210D01*
X194785285Y-92070504D01*
X194792042Y-92058129D01*
X194786012Y-92050073D01*
X194725061Y-92011616D01*
X194714813Y-92006395D01*
X194536401Y-91935216D01*
X194525373Y-91931949D01*
X194336982Y-91894476D01*
X194325535Y-91893273D01*
X194133477Y-91890759D01*
X194121997Y-91891662D01*
X193932697Y-91924190D01*
X193921577Y-91927170D01*
X193741365Y-91993653D01*
X193730991Y-91998601D01*
X193647385Y-92048342D01*
X193637788Y-92058675D01*
X190498500Y-92058675D01*
X190498500Y-86905620D01*
X190519552Y-86835893D01*
X190584742Y-86737773D01*
X190588643Y-86731902D01*
X190646233Y-86580297D01*
X190650555Y-86568920D01*
X190650556Y-86568918D01*
X190653055Y-86562338D01*
X190657814Y-86528475D01*
X190677748Y-86386639D01*
X190677748Y-86386636D01*
X190678299Y-86382717D01*
X190678496Y-86368633D01*
X190678561Y-86363962D01*
X190678561Y-86363957D01*
X190678616Y-86360000D01*
X190658397Y-86179745D01*
X190655531Y-86171515D01*
X190601064Y-86015106D01*
X190601062Y-86015103D01*
X190598745Y-86008448D01*
X190515651Y-85875469D01*
X190506359Y-85860598D01*
X190502626Y-85854624D01*
X190417411Y-85768812D01*
X190379778Y-85730915D01*
X190379774Y-85730912D01*
X190374815Y-85725918D01*
X190367164Y-85721062D01*
X190315538Y-85688300D01*
X190221666Y-85628727D01*
X190167440Y-85609418D01*
X190057425Y-85570243D01*
X190057420Y-85570242D01*
X190050790Y-85567881D01*
X190043802Y-85567048D01*
X190043799Y-85567047D01*
X189915462Y-85551744D01*
X189870680Y-85546404D01*
X189863677Y-85547140D01*
X189863676Y-85547140D01*
X189697288Y-85564628D01*
X189697286Y-85564629D01*
X189690288Y-85565364D01*
X189518579Y-85623818D01*
X189504457Y-85632506D01*
X189370095Y-85715166D01*
X189370092Y-85715168D01*
X189364088Y-85718862D01*
X189359053Y-85723793D01*
X189359050Y-85723795D01*
X189239525Y-85840843D01*
X189234493Y-85845771D01*
X189136235Y-85998238D01*
X189133826Y-86004858D01*
X189133824Y-86004861D01*
X189102722Y-86090314D01*
X189074197Y-86168685D01*
X189051463Y-86348640D01*
X189052151Y-86355654D01*
X189053423Y-86368633D01*
X189040163Y-86438380D01*
X188991300Y-86489887D01*
X188922347Y-86506799D01*
X188855196Y-86483748D01*
X188838931Y-86470025D01*
X188540422Y-86171515D01*
X188506397Y-86109203D01*
X188504303Y-86096465D01*
X188500184Y-86059745D01*
X188499399Y-86052745D01*
X188453300Y-85920366D01*
X188442066Y-85888106D01*
X188442064Y-85888103D01*
X188439747Y-85881448D01*
X188426719Y-85860598D01*
X188347361Y-85733598D01*
X188343628Y-85727624D01*
X188337112Y-85721062D01*
X188220780Y-85603915D01*
X188220776Y-85603912D01*
X188215817Y-85598918D01*
X188204699Y-85591862D01*
X188134382Y-85547238D01*
X188062668Y-85501727D01*
X188014834Y-85484694D01*
X187898427Y-85443243D01*
X187898422Y-85443242D01*
X187891792Y-85440881D01*
X187884804Y-85440048D01*
X187884801Y-85440047D01*
X187761700Y-85425368D01*
X187711682Y-85419404D01*
X187704679Y-85420140D01*
X187704678Y-85420140D01*
X187538290Y-85437628D01*
X187538288Y-85437629D01*
X187531290Y-85438364D01*
X187359581Y-85496818D01*
X187353577Y-85500512D01*
X187211097Y-85588166D01*
X187211094Y-85588168D01*
X187205090Y-85591862D01*
X187200055Y-85596793D01*
X187200052Y-85596795D01*
X187080527Y-85713843D01*
X187075495Y-85718771D01*
X186977237Y-85871238D01*
X186974828Y-85877858D01*
X186974826Y-85877861D01*
X186928602Y-86004861D01*
X186915199Y-86041685D01*
X186892465Y-86221640D01*
X186910165Y-86402160D01*
X186967420Y-86574273D01*
X186971067Y-86580295D01*
X186971068Y-86580297D01*
X187028710Y-86675475D01*
X187061382Y-86729424D01*
X187066271Y-86734487D01*
X187066272Y-86734488D01*
X187143123Y-86814068D01*
X187187384Y-86859902D01*
X187339161Y-86959222D01*
X187345765Y-86961678D01*
X187345767Y-86961679D01*
X187502560Y-87019990D01*
X187502562Y-87019990D01*
X187509170Y-87022448D01*
X187516155Y-87023380D01*
X187516159Y-87023381D01*
X187551089Y-87028041D01*
X187571189Y-87030723D01*
X187636065Y-87059558D01*
X187643619Y-87066521D01*
X188432595Y-87855497D01*
X188466621Y-87917809D01*
X188469500Y-87944592D01*
X188469500Y-88647378D01*
X188449498Y-88715499D01*
X188395842Y-88761992D01*
X188328581Y-88772492D01*
X188173705Y-88754024D01*
X188166702Y-88754760D01*
X188166701Y-88754760D01*
X188000313Y-88772248D01*
X188000311Y-88772249D01*
X187993313Y-88772984D01*
X187821604Y-88831438D01*
X187821050Y-88829812D01*
X187759644Y-88839365D01*
X187708624Y-88820835D01*
X187681666Y-88803727D01*
X187630720Y-88785586D01*
X187517425Y-88745243D01*
X187517420Y-88745242D01*
X187510790Y-88742881D01*
X187503802Y-88742048D01*
X187503799Y-88742047D01*
X187380698Y-88727368D01*
X187330680Y-88721404D01*
X187323677Y-88722140D01*
X187323676Y-88722140D01*
X187157288Y-88739628D01*
X187157286Y-88739629D01*
X187150288Y-88740364D01*
X186978579Y-88798818D01*
X186976808Y-88799908D01*
X186908594Y-88810512D01*
X186882088Y-88802534D01*
X186881663Y-88803727D01*
X186717422Y-88745243D01*
X186717417Y-88745242D01*
X186710787Y-88742881D01*
X186703799Y-88742048D01*
X186703796Y-88742047D01*
X186580695Y-88727368D01*
X186530677Y-88721404D01*
X186523674Y-88722140D01*
X186523673Y-88722140D01*
X186357285Y-88739628D01*
X186357283Y-88739629D01*
X186350285Y-88740364D01*
X186178576Y-88798818D01*
X186172572Y-88802512D01*
X186030092Y-88890166D01*
X186030089Y-88890168D01*
X186024085Y-88893862D01*
X186019050Y-88898793D01*
X186019047Y-88898795D01*
X185899522Y-89015843D01*
X185894490Y-89020771D01*
X185796232Y-89173238D01*
X185793823Y-89179858D01*
X185793821Y-89179861D01*
X185736603Y-89337066D01*
X185734194Y-89343685D01*
X185711460Y-89523640D01*
X185729160Y-89704160D01*
X185786415Y-89876273D01*
X185790062Y-89882295D01*
X185790063Y-89882297D01*
X185873273Y-90019694D01*
X185891497Y-90084965D01*
X185891497Y-93759103D01*
X185871495Y-93827224D01*
X185817839Y-93873717D01*
X185806103Y-93878381D01*
X185790399Y-93883727D01*
X185733021Y-93903260D01*
X185727017Y-93906954D01*
X185584537Y-93994608D01*
X185584534Y-93994610D01*
X185578530Y-93998304D01*
X185573495Y-94003235D01*
X185573492Y-94003237D01*
X185462119Y-94112302D01*
X185448935Y-94125213D01*
X185350677Y-94277680D01*
X185348268Y-94284300D01*
X185348266Y-94284303D01*
X185293510Y-94434745D01*
X185288639Y-94448127D01*
X185265905Y-94628082D01*
X185273779Y-94708391D01*
X185279693Y-94768705D01*
X185266433Y-94838452D01*
X185217571Y-94889959D01*
X185154294Y-94907000D01*
X184942115Y-94907000D01*
X184926876Y-94911475D01*
X184925671Y-94912865D01*
X184924000Y-94920548D01*
X184924000Y-97283000D01*
X184903998Y-97351121D01*
X184850342Y-97397614D01*
X184798000Y-97409000D01*
X184542000Y-97409000D01*
X184473879Y-97388998D01*
X184427386Y-97335342D01*
X184416000Y-97283000D01*
X184416000Y-94925116D01*
X184411525Y-94909877D01*
X184410135Y-94908672D01*
X184408042Y-94908217D01*
X184345730Y-94874192D01*
X184311705Y-94811880D01*
X184310051Y-94767561D01*
X184312639Y-94749146D01*
X184341927Y-94684471D01*
X184348318Y-94677586D01*
X185075761Y-93950143D01*
X185084051Y-93942599D01*
X185090532Y-93938486D01*
X185137173Y-93888818D01*
X185139927Y-93885977D01*
X185159648Y-93866256D01*
X185162126Y-93863061D01*
X185169832Y-93854039D01*
X185194672Y-93827587D01*
X185200100Y-93821807D01*
X185209860Y-93804054D01*
X185220713Y-93787531D01*
X185228267Y-93777792D01*
X185233127Y-93771527D01*
X185250690Y-93730943D01*
X185255897Y-93720313D01*
X185277209Y-93681546D01*
X185279180Y-93673869D01*
X185279182Y-93673864D01*
X185282246Y-93661928D01*
X185288652Y-93643216D01*
X185293548Y-93631903D01*
X185296695Y-93624631D01*
X185301944Y-93591495D01*
X185303611Y-93580967D01*
X185306018Y-93569346D01*
X185315042Y-93534197D01*
X185315042Y-93534196D01*
X185317014Y-93526516D01*
X185317014Y-93506255D01*
X185318565Y-93486544D01*
X185319828Y-93478574D01*
X185321733Y-93466543D01*
X185317573Y-93422532D01*
X185317014Y-93410675D01*
X185317014Y-79363640D01*
X187781463Y-79363640D01*
X187799163Y-79544160D01*
X187856418Y-79716273D01*
X187860065Y-79722295D01*
X187860066Y-79722297D01*
X187870978Y-79740314D01*
X187950380Y-79871424D01*
X187955269Y-79876487D01*
X187955270Y-79876488D01*
X188032121Y-79956068D01*
X188076382Y-80001902D01*
X188142964Y-80045472D01*
X188214013Y-80091965D01*
X188228159Y-80101222D01*
X188234763Y-80103678D01*
X188234765Y-80103679D01*
X188391558Y-80161990D01*
X188391560Y-80161990D01*
X188398168Y-80164448D01*
X188481995Y-80175633D01*
X188570980Y-80187507D01*
X188570984Y-80187507D01*
X188577961Y-80188438D01*
X188584972Y-80187800D01*
X188584976Y-80187800D01*
X188727459Y-80174832D01*
X188758600Y-80171998D01*
X188765302Y-80169820D01*
X188765304Y-80169820D01*
X188924409Y-80118124D01*
X188924412Y-80118123D01*
X188931108Y-80115947D01*
X189049331Y-80045472D01*
X189080860Y-80026677D01*
X189080862Y-80026676D01*
X189086912Y-80023069D01*
X189218266Y-79897982D01*
X189318643Y-79746902D01*
X189383055Y-79577338D01*
X189386611Y-79552038D01*
X189407748Y-79401639D01*
X189407748Y-79401636D01*
X189408299Y-79397717D01*
X189408616Y-79375000D01*
X189388397Y-79194745D01*
X189386080Y-79188091D01*
X189331064Y-79030106D01*
X189331062Y-79030103D01*
X189328745Y-79023448D01*
X189247646Y-78893661D01*
X189228500Y-78826892D01*
X189228500Y-74609594D01*
X189248502Y-74541473D01*
X189265405Y-74520499D01*
X189607677Y-74178227D01*
X189669989Y-74144201D01*
X189685337Y-74141843D01*
X189711100Y-74139498D01*
X189717802Y-74137320D01*
X189717804Y-74137320D01*
X189876909Y-74085624D01*
X189876912Y-74085623D01*
X189883608Y-74083447D01*
X189980013Y-74025978D01*
X190033360Y-73994177D01*
X190033362Y-73994176D01*
X190039412Y-73990569D01*
X190170766Y-73865482D01*
X190271143Y-73714402D01*
X190313316Y-73603382D01*
X190333055Y-73551420D01*
X190333056Y-73551418D01*
X190335555Y-73544838D01*
X190357153Y-73391162D01*
X190360248Y-73369139D01*
X190360248Y-73369136D01*
X190360799Y-73365217D01*
X190361116Y-73342500D01*
X190340897Y-73162245D01*
X190338580Y-73155591D01*
X190283564Y-72997606D01*
X190283562Y-72997603D01*
X190281245Y-72990948D01*
X190185126Y-72837124D01*
X190171441Y-72823343D01*
X190062278Y-72713415D01*
X190062274Y-72713412D01*
X190057315Y-72708418D01*
X190046197Y-72701362D01*
X189964741Y-72649669D01*
X189904166Y-72611227D01*
X189869604Y-72598920D01*
X189739925Y-72552743D01*
X189739920Y-72552742D01*
X189733290Y-72550381D01*
X189726302Y-72549548D01*
X189726299Y-72549547D01*
X189603198Y-72534868D01*
X189553180Y-72528904D01*
X189546177Y-72529640D01*
X189546176Y-72529640D01*
X189379788Y-72547128D01*
X189379786Y-72547129D01*
X189372788Y-72547864D01*
X189201079Y-72606318D01*
X189195075Y-72610012D01*
X189052595Y-72697666D01*
X189052592Y-72697668D01*
X189046588Y-72701362D01*
X189041553Y-72706293D01*
X189041550Y-72706295D01*
X188978771Y-72767773D01*
X188916993Y-72828271D01*
X188818735Y-72980738D01*
X188816326Y-72987358D01*
X188816324Y-72987361D01*
X188770595Y-73113000D01*
X188756697Y-73151185D01*
X188749637Y-73207068D01*
X188721257Y-73272141D01*
X188713727Y-73280368D01*
X188202747Y-73791348D01*
X188194461Y-73798888D01*
X188187982Y-73803000D01*
X188182557Y-73808777D01*
X188141357Y-73852651D01*
X188138602Y-73855493D01*
X188118865Y-73875230D01*
X188116385Y-73878427D01*
X188108682Y-73887447D01*
X188078414Y-73919679D01*
X188074595Y-73926625D01*
X188074593Y-73926628D01*
X188068652Y-73937434D01*
X188057801Y-73953953D01*
X188045386Y-73969959D01*
X188042241Y-73977228D01*
X188042238Y-73977232D01*
X188027826Y-74010537D01*
X188022609Y-74021187D01*
X188001305Y-74059940D01*
X187999334Y-74067615D01*
X187999334Y-74067616D01*
X187996267Y-74079562D01*
X187989863Y-74098266D01*
X187981819Y-74116855D01*
X187980580Y-74124678D01*
X187980577Y-74124688D01*
X187974901Y-74160524D01*
X187972495Y-74172144D01*
X187964101Y-74204839D01*
X187961500Y-74214970D01*
X187961500Y-74235224D01*
X187959949Y-74254934D01*
X187956780Y-74274943D01*
X187960495Y-74314238D01*
X187960941Y-74318961D01*
X187961500Y-74330819D01*
X187961500Y-78828331D01*
X187941411Y-78896586D01*
X187870054Y-79007310D01*
X187870050Y-79007319D01*
X187866235Y-79013238D01*
X187863826Y-79019858D01*
X187863825Y-79019859D01*
X187810408Y-79166621D01*
X187804197Y-79183685D01*
X187781463Y-79363640D01*
X185317014Y-79363640D01*
X185317014Y-75415281D01*
X185317541Y-75404098D01*
X185319216Y-75396605D01*
X185317076Y-75328528D01*
X185317014Y-75324569D01*
X185317014Y-75296658D01*
X185316509Y-75292658D01*
X185315576Y-75280815D01*
X185315494Y-75278186D01*
X185314187Y-75236624D01*
X185308536Y-75217172D01*
X185304528Y-75197820D01*
X185302981Y-75185577D01*
X185301988Y-75177717D01*
X185287505Y-75141136D01*
X185285714Y-75136611D01*
X185281869Y-75125384D01*
X185281235Y-75123201D01*
X185269532Y-75082921D01*
X185265498Y-75076099D01*
X185265495Y-75076093D01*
X185259220Y-75065482D01*
X185250524Y-75047732D01*
X185245986Y-75036270D01*
X185245983Y-75036265D01*
X185243066Y-75028897D01*
X185217087Y-74993139D01*
X185210571Y-74983221D01*
X185192089Y-74951971D01*
X185188056Y-74945151D01*
X185173732Y-74930827D01*
X185160890Y-74915792D01*
X185148986Y-74899407D01*
X185114920Y-74871225D01*
X185106141Y-74863236D01*
X184857421Y-74614516D01*
X184823395Y-74552204D01*
X184821301Y-74539465D01*
X184816397Y-74495745D01*
X184772272Y-74369035D01*
X184759064Y-74331106D01*
X184759062Y-74331103D01*
X184756745Y-74324448D01*
X184729214Y-74280389D01*
X184664359Y-74176598D01*
X184660626Y-74170624D01*
X184655664Y-74165627D01*
X184537778Y-74046915D01*
X184537774Y-74046912D01*
X184532815Y-74041918D01*
X184521697Y-74034862D01*
X184456681Y-73993602D01*
X184379666Y-73944727D01*
X184309323Y-73919679D01*
X184215425Y-73886243D01*
X184215420Y-73886242D01*
X184208790Y-73883881D01*
X184201802Y-73883048D01*
X184201799Y-73883047D01*
X184078698Y-73868368D01*
X184028680Y-73862404D01*
X184021677Y-73863140D01*
X184021676Y-73863140D01*
X183855288Y-73880628D01*
X183855286Y-73880629D01*
X183848288Y-73881364D01*
X183676579Y-73939818D01*
X183637761Y-73963699D01*
X183528095Y-74031166D01*
X183528092Y-74031168D01*
X183522088Y-74034862D01*
X183517053Y-74039793D01*
X183517050Y-74039795D01*
X183397525Y-74156843D01*
X183392493Y-74161771D01*
X183294235Y-74314238D01*
X183291826Y-74320858D01*
X183291824Y-74320861D01*
X183277719Y-74359615D01*
X183232197Y-74484685D01*
X183209463Y-74664640D01*
X183227163Y-74845160D01*
X183284418Y-75017273D01*
X183288065Y-75023295D01*
X183288066Y-75023297D01*
X183355973Y-75135425D01*
X183378380Y-75172424D01*
X183383269Y-75177487D01*
X183383270Y-75177488D01*
X183414239Y-75209557D01*
X183504382Y-75302902D01*
X183565186Y-75342691D01*
X183635462Y-75388678D01*
X183656159Y-75402222D01*
X183662763Y-75404678D01*
X183662765Y-75404679D01*
X183819558Y-75462990D01*
X183819560Y-75462990D01*
X183826168Y-75465448D01*
X183833153Y-75466380D01*
X183833157Y-75466381D01*
X183868087Y-75471041D01*
X183888187Y-75473723D01*
X183953063Y-75502558D01*
X183960617Y-75509521D01*
X184013109Y-75562013D01*
X184047135Y-75624325D01*
X184050014Y-75651108D01*
X184050014Y-77156755D01*
X184030012Y-77224876D01*
X183976356Y-77271369D01*
X183937185Y-77282065D01*
X183814908Y-77294917D01*
X183814906Y-77294918D01*
X183807908Y-77295653D01*
X183636199Y-77354107D01*
X183549174Y-77407646D01*
X183480675Y-77426304D01*
X183415640Y-77406713D01*
X183363666Y-77373729D01*
X183308561Y-77354107D01*
X183199425Y-77315245D01*
X183199420Y-77315244D01*
X183192790Y-77312883D01*
X183185802Y-77312050D01*
X183185799Y-77312049D01*
X183048296Y-77295653D01*
X183012680Y-77291406D01*
X183005677Y-77292142D01*
X183005676Y-77292142D01*
X182839288Y-77309630D01*
X182839286Y-77309631D01*
X182832288Y-77310366D01*
X182660579Y-77368820D01*
X182598987Y-77406712D01*
X182512095Y-77460168D01*
X182512092Y-77460170D01*
X182506088Y-77463864D01*
X182501053Y-77468795D01*
X182501050Y-77468797D01*
X182389633Y-77577905D01*
X182376493Y-77590773D01*
X182278235Y-77743240D01*
X182275826Y-77749860D01*
X182275824Y-77749863D01*
X182266257Y-77776148D01*
X182216197Y-77913687D01*
X182193463Y-78093642D01*
X182211163Y-78274162D01*
X182213386Y-78280843D01*
X182213387Y-78280850D01*
X182225166Y-78316258D01*
X182227689Y-78387209D01*
X182193766Y-78446052D01*
X182117611Y-78520629D01*
X182094490Y-78543271D01*
X182069501Y-78582047D01*
X182000046Y-78689819D01*
X182000044Y-78689823D01*
X181996232Y-78695738D01*
X181994389Y-78700802D01*
X181946626Y-78752445D01*
X181877894Y-78770231D01*
X181810456Y-78748033D01*
X181806321Y-78744952D01*
X181802315Y-78740918D01*
X181649166Y-78643727D01*
X181619963Y-78633328D01*
X181484925Y-78585243D01*
X181484920Y-78585242D01*
X181478290Y-78582881D01*
X181471302Y-78582048D01*
X181471299Y-78582047D01*
X181348198Y-78567368D01*
X181298180Y-78561404D01*
X181291177Y-78562140D01*
X181291176Y-78562140D01*
X181124788Y-78579628D01*
X181124786Y-78579629D01*
X181117788Y-78580364D01*
X180946079Y-78638818D01*
X180809539Y-78722819D01*
X180743519Y-78741500D01*
X179384594Y-78741500D01*
X179316473Y-78721498D01*
X179295499Y-78704595D01*
X174824421Y-74233516D01*
X174790395Y-74171204D01*
X174788301Y-74158465D01*
X174788119Y-74156843D01*
X174783397Y-74114745D01*
X174749814Y-74018307D01*
X174726064Y-73950106D01*
X174726062Y-73950103D01*
X174723745Y-73943448D01*
X174719987Y-73937434D01*
X174631359Y-73795598D01*
X174627626Y-73789624D01*
X174605380Y-73767222D01*
X174504778Y-73665915D01*
X174504774Y-73665912D01*
X174499815Y-73660918D01*
X174346666Y-73563727D01*
X174312104Y-73551420D01*
X174182425Y-73505243D01*
X174182420Y-73505242D01*
X174175790Y-73502881D01*
X174168804Y-73502048D01*
X174168800Y-73502047D01*
X174117193Y-73495894D01*
X174099574Y-73493793D01*
X174034302Y-73465866D01*
X173994489Y-73407083D01*
X173988494Y-73368679D01*
X173988494Y-72935620D01*
X174009546Y-72865893D01*
X174074736Y-72767773D01*
X174078637Y-72761902D01*
X174136772Y-72608862D01*
X174140549Y-72598920D01*
X174140550Y-72598918D01*
X174143049Y-72592338D01*
X174144029Y-72585366D01*
X174167742Y-72416639D01*
X174167742Y-72416636D01*
X174168293Y-72412717D01*
X174168610Y-72390000D01*
X174148391Y-72209745D01*
X174146074Y-72203091D01*
X174091058Y-72045106D01*
X174091056Y-72045103D01*
X174088739Y-72038448D01*
X173992620Y-71884624D01*
X173922704Y-71814218D01*
X173869772Y-71760915D01*
X173869768Y-71760912D01*
X173864809Y-71755918D01*
X173853691Y-71748862D01*
X173756621Y-71687260D01*
X173711660Y-71658727D01*
X173682457Y-71648328D01*
X173547419Y-71600243D01*
X173547414Y-71600242D01*
X173540784Y-71597881D01*
X173533796Y-71597048D01*
X173533793Y-71597047D01*
X173410692Y-71582368D01*
X173360674Y-71576404D01*
X173353671Y-71577140D01*
X173353670Y-71577140D01*
X173187282Y-71594628D01*
X173187280Y-71594629D01*
X173180282Y-71595364D01*
X173008573Y-71653818D01*
X173002569Y-71657512D01*
X172860089Y-71745166D01*
X172860086Y-71745168D01*
X172854082Y-71748862D01*
X172849047Y-71753793D01*
X172849044Y-71753795D01*
X172756833Y-71844095D01*
X172724487Y-71875771D01*
X172626229Y-72028238D01*
X172623820Y-72034858D01*
X172623818Y-72034861D01*
X172593253Y-72118838D01*
X172564191Y-72198685D01*
X172541457Y-72378640D01*
X172559157Y-72559160D01*
X172616412Y-72731273D01*
X172620059Y-72737295D01*
X172620060Y-72737297D01*
X172703270Y-72874694D01*
X172721494Y-72939965D01*
X172721494Y-74851227D01*
X172720967Y-74862410D01*
X172719292Y-74869903D01*
X172719541Y-74877829D01*
X172719541Y-74877830D01*
X172721432Y-74937980D01*
X172721494Y-74941939D01*
X172721494Y-74969850D01*
X172721991Y-74973784D01*
X172721991Y-74973785D01*
X172721999Y-74973850D01*
X172722932Y-74985687D01*
X172724321Y-75029883D01*
X172727608Y-75041196D01*
X172729972Y-75049333D01*
X172733981Y-75068694D01*
X172736520Y-75088791D01*
X172739439Y-75096162D01*
X172739439Y-75096164D01*
X172752798Y-75129906D01*
X172756643Y-75141136D01*
X172768976Y-75183587D01*
X172773009Y-75190406D01*
X172773011Y-75190411D01*
X172779287Y-75201022D01*
X172787982Y-75218770D01*
X172795442Y-75237611D01*
X172800104Y-75244027D01*
X172800104Y-75244028D01*
X172821430Y-75273381D01*
X172827946Y-75283301D01*
X172841820Y-75306760D01*
X172850452Y-75321356D01*
X172864773Y-75335677D01*
X172877613Y-75350710D01*
X172889522Y-75367101D01*
X172895628Y-75372152D01*
X172923599Y-75395292D01*
X172932378Y-75403282D01*
X178185343Y-80656247D01*
X178192887Y-80664537D01*
X178197000Y-80671018D01*
X178202777Y-80676443D01*
X178246667Y-80717658D01*
X178249509Y-80720413D01*
X178269231Y-80740135D01*
X178272355Y-80742558D01*
X178272359Y-80742562D01*
X178272424Y-80742612D01*
X178281445Y-80750317D01*
X178313679Y-80780586D01*
X178320627Y-80784405D01*
X178320629Y-80784407D01*
X178331432Y-80790346D01*
X178347959Y-80801202D01*
X178357698Y-80808757D01*
X178357700Y-80808758D01*
X178363960Y-80813614D01*
X178404540Y-80831174D01*
X178415188Y-80836391D01*
X178422834Y-80840594D01*
X178453940Y-80857695D01*
X178461616Y-80859666D01*
X178461619Y-80859667D01*
X178473562Y-80862733D01*
X178492267Y-80869137D01*
X178510855Y-80877181D01*
X178518678Y-80878420D01*
X178518688Y-80878423D01*
X178554524Y-80884099D01*
X178566144Y-80886505D01*
X178601289Y-80895528D01*
X178608970Y-80897500D01*
X178629224Y-80897500D01*
X178648934Y-80899051D01*
X178668943Y-80902220D01*
X178676835Y-80901474D01*
X178712961Y-80898059D01*
X178724819Y-80897500D01*
X180746403Y-80897500D01*
X180815396Y-80918068D01*
X180831566Y-80928649D01*
X180925659Y-80990222D01*
X180932263Y-80992678D01*
X180932265Y-80992679D01*
X181089058Y-81050990D01*
X181089060Y-81050990D01*
X181095668Y-81053448D01*
X181179495Y-81064633D01*
X181268480Y-81076507D01*
X181268484Y-81076507D01*
X181275461Y-81077438D01*
X181282472Y-81076800D01*
X181282476Y-81076800D01*
X181424959Y-81063832D01*
X181456100Y-81060998D01*
X181462802Y-81058820D01*
X181462804Y-81058820D01*
X181621909Y-81007124D01*
X181621912Y-81007123D01*
X181628608Y-81004947D01*
X181756599Y-80928649D01*
X181778360Y-80915677D01*
X181778362Y-80915676D01*
X181784412Y-80912069D01*
X181878605Y-80822370D01*
X181941730Y-80789878D01*
X182012401Y-80796671D01*
X182068180Y-80840594D01*
X182091497Y-80913616D01*
X182091497Y-82828829D01*
X182071408Y-82897084D01*
X182000051Y-83007808D01*
X182000047Y-83007817D01*
X181996232Y-83013736D01*
X181934194Y-83184183D01*
X181911460Y-83364138D01*
X181929160Y-83544658D01*
X181986415Y-83716771D01*
X181990062Y-83722793D01*
X181990063Y-83722795D01*
X182073273Y-83860192D01*
X182091497Y-83925463D01*
X182091497Y-85178331D01*
X182071408Y-85246586D01*
X182000051Y-85357310D01*
X182000047Y-85357319D01*
X181996232Y-85363238D01*
X181993823Y-85369858D01*
X181993822Y-85369859D01*
X181946268Y-85500512D01*
X181934194Y-85533685D01*
X181911460Y-85713640D01*
X181929160Y-85894160D01*
X181986415Y-86066273D01*
X181990062Y-86072295D01*
X181990063Y-86072297D01*
X182055136Y-86179745D01*
X182080377Y-86221424D01*
X182206379Y-86351902D01*
X182358156Y-86451222D01*
X182364760Y-86453678D01*
X182364762Y-86453679D01*
X182521555Y-86511990D01*
X182521557Y-86511990D01*
X182528165Y-86514448D01*
X182602301Y-86524340D01*
X182700977Y-86537507D01*
X182700981Y-86537507D01*
X182707958Y-86538438D01*
X182714969Y-86537800D01*
X182714973Y-86537800D01*
X182771121Y-86532690D01*
X182790080Y-86530964D01*
X182859732Y-86544709D01*
X182910897Y-86593930D01*
X182927499Y-86656445D01*
X182927499Y-89238557D01*
X182907497Y-89306678D01*
X182853841Y-89353171D01*
X182814670Y-89363867D01*
X182712284Y-89374628D01*
X182712282Y-89374629D01*
X182705284Y-89375364D01*
X182533575Y-89433818D01*
X182527571Y-89437512D01*
X182385091Y-89525166D01*
X182385088Y-89525168D01*
X182379084Y-89528862D01*
X182374049Y-89533793D01*
X182374046Y-89533795D01*
X182254521Y-89650843D01*
X182249489Y-89655771D01*
X182151231Y-89808238D01*
X182148821Y-89814860D01*
X182145688Y-89821170D01*
X182144017Y-89820340D01*
X182121265Y-89856050D01*
X177522720Y-94454595D01*
X177460408Y-94488621D01*
X177433625Y-94491500D01*
X171181371Y-94491500D01*
X171113250Y-94471498D01*
X171092276Y-94454595D01*
X170340405Y-93702724D01*
X170306379Y-93640412D01*
X170303500Y-93613629D01*
X170303500Y-92040469D01*
X174482095Y-92040469D01*
X174482392Y-92045622D01*
X174482392Y-92045625D01*
X174487886Y-92140908D01*
X174495427Y-92271697D01*
X174496564Y-92276743D01*
X174496565Y-92276749D01*
X174528472Y-92418329D01*
X174546346Y-92497642D01*
X174548288Y-92502424D01*
X174548289Y-92502428D01*
X174624541Y-92690213D01*
X174633484Y-92712237D01*
X174754501Y-92909719D01*
X174906147Y-93084784D01*
X175084349Y-93232730D01*
X175284322Y-93349584D01*
X175500694Y-93432209D01*
X175505760Y-93433240D01*
X175505761Y-93433240D01*
X175558846Y-93444040D01*
X175727656Y-93478385D01*
X175858324Y-93483176D01*
X175953949Y-93486683D01*
X175953953Y-93486683D01*
X175959113Y-93486872D01*
X175964233Y-93486216D01*
X175964235Y-93486216D01*
X176056697Y-93474371D01*
X176188847Y-93457442D01*
X176193795Y-93455957D01*
X176193802Y-93455956D01*
X176405747Y-93392369D01*
X176410690Y-93390886D01*
X176439668Y-93376690D01*
X176614049Y-93291262D01*
X176614052Y-93291260D01*
X176618684Y-93288991D01*
X176807243Y-93154494D01*
X176971303Y-92991005D01*
X177106458Y-92802917D01*
X177153641Y-92707450D01*
X177206784Y-92599922D01*
X177206785Y-92599920D01*
X177209078Y-92595280D01*
X177276408Y-92373671D01*
X177306640Y-92144041D01*
X177307381Y-92113718D01*
X177308245Y-92078365D01*
X177308245Y-92078361D01*
X177308327Y-92075000D01*
X177301291Y-91989421D01*
X177289773Y-91849318D01*
X177289772Y-91849312D01*
X177289349Y-91844167D01*
X177232925Y-91619533D01*
X177227502Y-91607061D01*
X177142630Y-91411868D01*
X177142628Y-91411865D01*
X177140570Y-91407131D01*
X177014764Y-91212665D01*
X176990104Y-91185564D01*
X176924848Y-91113848D01*
X176893796Y-91050002D01*
X176902192Y-90979504D01*
X176947369Y-90924736D01*
X176973812Y-90911067D01*
X177033297Y-90888767D01*
X177041705Y-90885615D01*
X177158261Y-90798261D01*
X177245615Y-90681705D01*
X177296745Y-90545316D01*
X177303500Y-90483134D01*
X177303500Y-88586866D01*
X177296745Y-88524684D01*
X177245615Y-88388295D01*
X177158261Y-88271739D01*
X177041705Y-88184385D01*
X176905316Y-88133255D01*
X176896008Y-88132244D01*
X176894953Y-88131806D01*
X176889778Y-88130575D01*
X176889977Y-88129738D01*
X176830448Y-88105005D01*
X176790019Y-88046644D01*
X176787561Y-87975690D01*
X176820519Y-87917886D01*
X178177678Y-86560727D01*
X178239990Y-86526701D01*
X178255337Y-86524343D01*
X178281100Y-86521998D01*
X178287802Y-86519820D01*
X178287804Y-86519820D01*
X178446909Y-86468124D01*
X178446912Y-86468123D01*
X178453608Y-86465947D01*
X178550013Y-86408478D01*
X178603360Y-86376677D01*
X178603362Y-86376676D01*
X178609412Y-86373069D01*
X178740766Y-86247982D01*
X178841143Y-86096902D01*
X178905555Y-85927338D01*
X178906535Y-85920366D01*
X178930248Y-85751639D01*
X178930248Y-85751636D01*
X178930799Y-85747717D01*
X178930996Y-85733598D01*
X178931061Y-85728962D01*
X178931061Y-85728957D01*
X178931116Y-85725000D01*
X178910897Y-85544745D01*
X178908580Y-85538091D01*
X178853564Y-85380106D01*
X178853562Y-85380103D01*
X178851245Y-85373448D01*
X178755126Y-85219624D01*
X178741441Y-85205843D01*
X178632278Y-85095915D01*
X178632274Y-85095912D01*
X178627315Y-85090918D01*
X178616197Y-85083862D01*
X178568038Y-85053300D01*
X178474166Y-84993727D01*
X178444963Y-84983328D01*
X178309925Y-84935243D01*
X178309920Y-84935242D01*
X178303290Y-84932881D01*
X178296302Y-84932048D01*
X178296299Y-84932047D01*
X178173198Y-84917368D01*
X178123180Y-84911404D01*
X178116177Y-84912140D01*
X178116176Y-84912140D01*
X177949788Y-84929628D01*
X177949786Y-84929629D01*
X177942788Y-84930364D01*
X177771079Y-84988818D01*
X177765075Y-84992512D01*
X177622595Y-85080166D01*
X177622592Y-85080168D01*
X177616588Y-85083862D01*
X177611553Y-85088793D01*
X177611550Y-85088795D01*
X177492253Y-85205620D01*
X177486993Y-85210771D01*
X177388735Y-85363238D01*
X177386326Y-85369858D01*
X177386324Y-85369861D01*
X177338771Y-85500512D01*
X177326697Y-85533685D01*
X177319637Y-85589569D01*
X177291257Y-85654642D01*
X177283727Y-85662869D01*
X176391229Y-86555366D01*
X175502747Y-87443848D01*
X175494461Y-87451388D01*
X175487982Y-87455500D01*
X175482557Y-87461277D01*
X175441357Y-87505151D01*
X175438602Y-87507993D01*
X175418865Y-87527730D01*
X175416385Y-87530927D01*
X175408682Y-87539947D01*
X175378414Y-87572179D01*
X175374595Y-87579125D01*
X175374593Y-87579128D01*
X175368652Y-87589934D01*
X175357801Y-87606453D01*
X175345386Y-87622459D01*
X175342241Y-87629728D01*
X175342238Y-87629732D01*
X175327826Y-87663037D01*
X175322609Y-87673687D01*
X175301305Y-87712440D01*
X175299334Y-87720115D01*
X175299334Y-87720116D01*
X175296267Y-87732062D01*
X175289863Y-87750766D01*
X175281819Y-87769355D01*
X175280580Y-87777178D01*
X175280577Y-87777188D01*
X175274901Y-87813024D01*
X175272495Y-87824644D01*
X175261500Y-87867470D01*
X175261500Y-87887724D01*
X175259949Y-87907434D01*
X175256780Y-87927443D01*
X175257526Y-87935335D01*
X175260941Y-87971461D01*
X175261500Y-87983319D01*
X175261500Y-88000500D01*
X175241498Y-88068621D01*
X175187842Y-88115114D01*
X175135500Y-88126500D01*
X174946866Y-88126500D01*
X174884684Y-88133255D01*
X174748295Y-88184385D01*
X174631739Y-88271739D01*
X174544385Y-88388295D01*
X174493255Y-88524684D01*
X174486500Y-88586866D01*
X174486500Y-90483134D01*
X174493255Y-90545316D01*
X174544385Y-90681705D01*
X174631739Y-90798261D01*
X174748295Y-90885615D01*
X174756704Y-90888767D01*
X174756705Y-90888768D01*
X174816164Y-90911058D01*
X174872929Y-90953699D01*
X174897629Y-91020261D01*
X174882422Y-91089609D01*
X174863029Y-91116091D01*
X174844459Y-91135523D01*
X174804917Y-91176902D01*
X174796639Y-91185564D01*
X174793725Y-91189836D01*
X174793724Y-91189837D01*
X174778152Y-91212665D01*
X174666119Y-91376899D01*
X174568602Y-91586981D01*
X174506707Y-91810169D01*
X174482095Y-92040469D01*
X170303500Y-92040469D01*
X170303500Y-84852952D01*
X170303999Y-84841752D01*
X170304151Y-84840048D01*
X170305641Y-84832885D01*
X170303546Y-84755458D01*
X170303500Y-84752050D01*
X170303500Y-83620000D01*
X171456693Y-83620000D01*
X171475885Y-83839371D01*
X171532880Y-84052076D01*
X171535205Y-84057061D01*
X171623618Y-84246666D01*
X171623621Y-84246671D01*
X171625944Y-84251653D01*
X171629100Y-84256160D01*
X171629101Y-84256162D01*
X171728858Y-84398629D01*
X171752251Y-84432038D01*
X171907962Y-84587749D01*
X172088346Y-84714056D01*
X172287924Y-84807120D01*
X172500629Y-84864115D01*
X172720000Y-84883307D01*
X172939371Y-84864115D01*
X173152076Y-84807120D01*
X173351654Y-84714056D01*
X173532038Y-84587749D01*
X173687749Y-84432038D01*
X173711143Y-84398629D01*
X173810899Y-84256162D01*
X173810900Y-84256160D01*
X173814056Y-84251653D01*
X173816379Y-84246671D01*
X173816382Y-84246666D01*
X173904795Y-84057061D01*
X173907120Y-84052076D01*
X173964115Y-83839371D01*
X173983307Y-83620000D01*
X173964115Y-83400629D01*
X173907120Y-83187924D01*
X173845001Y-83054709D01*
X173816382Y-82993334D01*
X173816379Y-82993329D01*
X173814056Y-82988347D01*
X173774985Y-82932548D01*
X173690908Y-82812473D01*
X173690906Y-82812470D01*
X173687749Y-82807962D01*
X173532038Y-82652251D01*
X173351654Y-82525944D01*
X173152076Y-82432880D01*
X172939371Y-82375885D01*
X172720000Y-82356693D01*
X172500629Y-82375885D01*
X172287924Y-82432880D01*
X172194562Y-82476415D01*
X172093334Y-82523618D01*
X172093329Y-82523621D01*
X172088347Y-82525944D01*
X172083840Y-82529100D01*
X172083838Y-82529101D01*
X171912473Y-82649092D01*
X171912470Y-82649094D01*
X171907962Y-82652251D01*
X171752251Y-82807962D01*
X171749094Y-82812470D01*
X171749092Y-82812473D01*
X171665015Y-82932548D01*
X171625944Y-82988347D01*
X171623621Y-82993329D01*
X171623618Y-82993334D01*
X171594999Y-83054709D01*
X171532880Y-83187924D01*
X171475885Y-83400629D01*
X171456693Y-83620000D01*
X170303500Y-83620000D01*
X170303500Y-78740000D01*
X171456693Y-78740000D01*
X171475885Y-78959371D01*
X171532880Y-79172076D01*
X171576415Y-79265438D01*
X171623618Y-79366666D01*
X171623621Y-79366671D01*
X171625944Y-79371653D01*
X171629100Y-79376160D01*
X171629101Y-79376162D01*
X171746735Y-79544160D01*
X171752251Y-79552038D01*
X171907962Y-79707749D01*
X171912471Y-79710906D01*
X171912473Y-79710908D01*
X171987241Y-79763261D01*
X172088346Y-79834056D01*
X172287924Y-79927120D01*
X172500629Y-79984115D01*
X172720000Y-80003307D01*
X172939371Y-79984115D01*
X173152076Y-79927120D01*
X173351654Y-79834056D01*
X173452759Y-79763261D01*
X173527527Y-79710908D01*
X173527529Y-79710906D01*
X173532038Y-79707749D01*
X173687749Y-79552038D01*
X173693266Y-79544160D01*
X173810899Y-79376162D01*
X173810900Y-79376160D01*
X173814056Y-79371653D01*
X173816379Y-79366671D01*
X173816382Y-79366666D01*
X173863585Y-79265438D01*
X173907120Y-79172076D01*
X173964115Y-78959371D01*
X173983307Y-78740000D01*
X173964115Y-78520629D01*
X173907120Y-78307924D01*
X173863585Y-78214562D01*
X173816382Y-78113334D01*
X173816379Y-78113329D01*
X173814056Y-78108347D01*
X173808670Y-78100655D01*
X173690908Y-77932473D01*
X173690906Y-77932470D01*
X173687749Y-77927962D01*
X173532038Y-77772251D01*
X173351654Y-77645944D01*
X173152076Y-77552880D01*
X172939371Y-77495885D01*
X172720000Y-77476693D01*
X172500629Y-77495885D01*
X172287924Y-77552880D01*
X172234258Y-77577905D01*
X172093334Y-77643618D01*
X172093329Y-77643621D01*
X172088347Y-77645944D01*
X172083840Y-77649100D01*
X172083838Y-77649101D01*
X171912473Y-77769092D01*
X171912470Y-77769094D01*
X171907962Y-77772251D01*
X171752251Y-77927962D01*
X171749094Y-77932470D01*
X171749092Y-77932473D01*
X171631330Y-78100655D01*
X171625944Y-78108347D01*
X171623621Y-78113329D01*
X171623618Y-78113334D01*
X171576415Y-78214562D01*
X171532880Y-78307924D01*
X171475885Y-78520629D01*
X171456693Y-78740000D01*
X170303500Y-78740000D01*
X170303500Y-69264486D01*
X170323502Y-69196365D01*
X170347754Y-69168870D01*
X170352352Y-69165856D01*
X170405628Y-69109617D01*
X170408006Y-69107175D01*
X173318905Y-66196276D01*
X173381217Y-66162250D01*
X173452032Y-66167315D01*
X173508868Y-66209862D01*
X173533679Y-66276382D01*
X173534000Y-66285371D01*
X173534000Y-66338753D01*
X173513998Y-66406874D01*
X173501416Y-66423308D01*
X173492846Y-66432776D01*
X173411393Y-66553536D01*
X173348946Y-66682428D01*
X173304662Y-66821188D01*
X173280900Y-66962426D01*
X173273818Y-67041373D01*
X173273667Y-67053715D01*
X173276096Y-67091025D01*
X173278505Y-67128036D01*
X173278771Y-67136221D01*
X173278771Y-67480519D01*
X173278267Y-67491777D01*
X173277919Y-67495662D01*
X173273818Y-67541373D01*
X173273667Y-67553715D01*
X173273825Y-67556137D01*
X173278200Y-67623347D01*
X173278817Y-67632829D01*
X173279162Y-67635238D01*
X173297548Y-67763621D01*
X173299121Y-67774606D01*
X173300380Y-67778911D01*
X173300381Y-67778916D01*
X173319968Y-67845896D01*
X173340003Y-67914410D01*
X173399283Y-68044789D01*
X173401695Y-68048560D01*
X173401699Y-68048568D01*
X173447279Y-68119839D01*
X173477758Y-68167497D01*
X173571248Y-68275998D01*
X173681011Y-68371750D01*
X173684772Y-68374188D01*
X173684775Y-68374190D01*
X173692443Y-68379160D01*
X173801196Y-68449650D01*
X173805257Y-68451526D01*
X173805258Y-68451527D01*
X173848088Y-68471317D01*
X173933424Y-68510748D01*
X174002033Y-68531266D01*
X174066344Y-68550499D01*
X174066349Y-68550500D01*
X174070642Y-68551784D01*
X174075074Y-68552446D01*
X174075077Y-68552447D01*
X174210265Y-68572650D01*
X174210268Y-68572650D01*
X174214696Y-68573312D01*
X174289355Y-68573768D01*
X174353445Y-68574160D01*
X174353450Y-68574160D01*
X174357917Y-68574187D01*
X174360361Y-68573852D01*
X174364156Y-68573729D01*
X174792500Y-68573729D01*
X174824486Y-68571441D01*
X174858873Y-68568982D01*
X174858874Y-68568982D01*
X174865611Y-68568500D01*
X174901940Y-68557833D01*
X174955368Y-68554012D01*
X175092500Y-68573729D01*
X175582508Y-68573729D01*
X175583278Y-68573731D01*
X175653431Y-68574160D01*
X175653437Y-68574160D01*
X175657917Y-68574187D01*
X175742007Y-68562669D01*
X175797776Y-68555030D01*
X175797780Y-68555029D01*
X175802227Y-68554420D01*
X175939936Y-68515063D01*
X176072898Y-68455586D01*
X176076680Y-68453200D01*
X176076687Y-68453196D01*
X176190236Y-68381551D01*
X176194026Y-68379160D01*
X176304952Y-68284754D01*
X176399760Y-68177403D01*
X176408748Y-68163721D01*
X176477264Y-68059414D01*
X176479726Y-68055666D01*
X176486750Y-68040707D01*
X176529614Y-67949409D01*
X176540595Y-67926021D01*
X176549031Y-67898430D01*
X176581872Y-67791011D01*
X176583183Y-67786723D01*
X176605217Y-67645205D01*
X176605369Y-67632829D01*
X176606942Y-67504038D01*
X176606997Y-67499562D01*
X176606437Y-67495277D01*
X176606229Y-67488240D01*
X176606229Y-67098953D01*
X176606227Y-67098953D01*
X176605818Y-67095984D01*
X176606996Y-66999562D01*
X176601319Y-66956143D01*
X176589008Y-66861998D01*
X176589008Y-66861996D01*
X176588426Y-66857548D01*
X176549255Y-66717252D01*
X176491572Y-66586159D01*
X176414603Y-66462504D01*
X176389615Y-66432776D01*
X176380548Y-66421990D01*
X176352027Y-66356974D01*
X176351000Y-66340916D01*
X176351000Y-66285371D01*
X176371002Y-66217250D01*
X176424658Y-66170757D01*
X176494932Y-66160653D01*
X176559512Y-66190147D01*
G37*
G04 #@! TD.AperFunction*
G04 #@! TA.AperFunction,Conductor*
G36*
X165166456Y-66913348D02*
G01*
X165235271Y-66956515D01*
X165242807Y-66960556D01*
X165484520Y-67069694D01*
X165492551Y-67072680D01*
X165746832Y-67148002D01*
X165755184Y-67149869D01*
X166017340Y-67189984D01*
X166025874Y-67190700D01*
X166291045Y-67194867D01*
X166299596Y-67194418D01*
X166562883Y-67162557D01*
X166571287Y-67160954D01*
X166640333Y-67142841D01*
X166711300Y-67144903D01*
X166769886Y-67185004D01*
X166797492Y-67250414D01*
X166785352Y-67320365D01*
X166761401Y-67353812D01*
X166672251Y-67442962D01*
X166669094Y-67447470D01*
X166669092Y-67447473D01*
X166603343Y-67541373D01*
X166545944Y-67623347D01*
X166543621Y-67628329D01*
X166543618Y-67628334D01*
X166504190Y-67712889D01*
X166452880Y-67822924D01*
X166395885Y-68035629D01*
X166376693Y-68255000D01*
X166395885Y-68474371D01*
X166452880Y-68687076D01*
X166487801Y-68761964D01*
X166543618Y-68881666D01*
X166543621Y-68881671D01*
X166545944Y-68886653D01*
X166549100Y-68891160D01*
X166549101Y-68891162D01*
X166593513Y-68954588D01*
X166672251Y-69067038D01*
X166827962Y-69222749D01*
X166832471Y-69225906D01*
X166832473Y-69225908D01*
X166882060Y-69260629D01*
X167008346Y-69349056D01*
X167013331Y-69351380D01*
X167013337Y-69351384D01*
X167097877Y-69390805D01*
X167151163Y-69437722D01*
X167170624Y-69505999D01*
X167150082Y-69573959D01*
X167097878Y-69619195D01*
X167013334Y-69658618D01*
X167013329Y-69658621D01*
X167008347Y-69660944D01*
X167003840Y-69664100D01*
X167003838Y-69664101D01*
X166832473Y-69784092D01*
X166832470Y-69784094D01*
X166827962Y-69787251D01*
X166672251Y-69942962D01*
X166669094Y-69947470D01*
X166669092Y-69947473D01*
X166549101Y-70118838D01*
X166545944Y-70123347D01*
X166543621Y-70128329D01*
X166543618Y-70128334D01*
X166513817Y-70192244D01*
X166452880Y-70322924D01*
X166395885Y-70535629D01*
X166376693Y-70755000D01*
X166395885Y-70974371D01*
X166452880Y-71187076D01*
X166455205Y-71192061D01*
X166543618Y-71381666D01*
X166543621Y-71381671D01*
X166545944Y-71386653D01*
X166549100Y-71391160D01*
X166549101Y-71391162D01*
X166626011Y-71501000D01*
X166672251Y-71567038D01*
X166771118Y-71665905D01*
X166805144Y-71728217D01*
X166800079Y-71799032D01*
X166771118Y-71844095D01*
X166672251Y-71942962D01*
X166669094Y-71947470D01*
X166669092Y-71947473D01*
X166605391Y-72038448D01*
X166545944Y-72123347D01*
X166543621Y-72128329D01*
X166543618Y-72128334D01*
X166513900Y-72192066D01*
X166452880Y-72322924D01*
X166395885Y-72535629D01*
X166376693Y-72755000D01*
X166395885Y-72974371D01*
X166452880Y-73187076D01*
X166492546Y-73272141D01*
X166543618Y-73381666D01*
X166543621Y-73381671D01*
X166545944Y-73386653D01*
X166549100Y-73391160D01*
X166549101Y-73391162D01*
X166668277Y-73561362D01*
X166672251Y-73567038D01*
X166827962Y-73722749D01*
X167008346Y-73849056D01*
X167013328Y-73851379D01*
X167013333Y-73851382D01*
X167098469Y-73891081D01*
X167151754Y-73937998D01*
X167171215Y-74006276D01*
X167150673Y-74074235D01*
X167098469Y-74119471D01*
X167013583Y-74159054D01*
X167004093Y-74164534D01*
X166962851Y-74193411D01*
X166954477Y-74203887D01*
X166961545Y-74217334D01*
X167627189Y-74882979D01*
X167641132Y-74890592D01*
X167642966Y-74890461D01*
X167649580Y-74886210D01*
X168319180Y-74216609D01*
X168325607Y-74204839D01*
X168316313Y-74192825D01*
X168275912Y-74164536D01*
X168266416Y-74159053D01*
X168181531Y-74119471D01*
X168128246Y-74072554D01*
X168108785Y-74004276D01*
X168129327Y-73936316D01*
X168181531Y-73891081D01*
X168266667Y-73851382D01*
X168266672Y-73851379D01*
X168271654Y-73849056D01*
X168452038Y-73722749D01*
X168571405Y-73603382D01*
X168633717Y-73569356D01*
X168704532Y-73574421D01*
X168761368Y-73616968D01*
X168786179Y-73683488D01*
X168786500Y-73692477D01*
X168786500Y-74443223D01*
X168766498Y-74511344D01*
X168719122Y-74554756D01*
X168677665Y-74576546D01*
X168012021Y-75242189D01*
X168004408Y-75256132D01*
X168004539Y-75257966D01*
X168008790Y-75264580D01*
X168678390Y-75934179D01*
X168720886Y-75957384D01*
X168771088Y-76007586D01*
X168786500Y-76067971D01*
X168786500Y-84398629D01*
X168766498Y-84466750D01*
X168749595Y-84487724D01*
X167856837Y-85380482D01*
X167794525Y-85414508D01*
X167756761Y-85416908D01*
X167645476Y-85407172D01*
X167645475Y-85407172D01*
X167640000Y-85406693D01*
X167499777Y-85418961D01*
X167430174Y-85404972D01*
X167379182Y-85355572D01*
X167362991Y-85286447D01*
X167386743Y-85219541D01*
X167400142Y-85205620D01*
X167413125Y-85187442D01*
X167406608Y-85175818D01*
X165919885Y-83689095D01*
X165885859Y-83626783D01*
X165887694Y-83601132D01*
X166554408Y-83601132D01*
X166554539Y-83602965D01*
X166558790Y-83609580D01*
X167765730Y-84816520D01*
X167777939Y-84823187D01*
X167789439Y-84814497D01*
X167886831Y-84681913D01*
X167891418Y-84674685D01*
X168017962Y-84441621D01*
X168021530Y-84433827D01*
X168115271Y-84185750D01*
X168117748Y-84177544D01*
X168176954Y-83919038D01*
X168178294Y-83910577D01*
X168202031Y-83644616D01*
X168202277Y-83639677D01*
X168202666Y-83602485D01*
X168202523Y-83597519D01*
X168184362Y-83331123D01*
X168183201Y-83322649D01*
X168129419Y-83062944D01*
X168127120Y-83054709D01*
X168038588Y-82804705D01*
X168035191Y-82796854D01*
X167913550Y-82561178D01*
X167909122Y-82553866D01*
X167790031Y-82384417D01*
X167779509Y-82376037D01*
X167766121Y-82383089D01*
X166562022Y-83587188D01*
X166554408Y-83601132D01*
X165887694Y-83601132D01*
X165890924Y-83555968D01*
X165919885Y-83510905D01*
X167406604Y-82024186D01*
X167413795Y-82011017D01*
X167406473Y-82000780D01*
X167359233Y-81962115D01*
X167352261Y-81957160D01*
X167126122Y-81818582D01*
X167118552Y-81814624D01*
X166875704Y-81708022D01*
X166867644Y-81705120D01*
X166612592Y-81632467D01*
X166604214Y-81630685D01*
X166341656Y-81593318D01*
X166333111Y-81592691D01*
X166067908Y-81591302D01*
X166059374Y-81591839D01*
X165796433Y-81626456D01*
X165788035Y-81628149D01*
X165532238Y-81698127D01*
X165524143Y-81700946D01*
X165280199Y-81804997D01*
X165272576Y-81808881D01*
X165164206Y-81873739D01*
X165095482Y-81891559D01*
X165028034Y-81869395D01*
X164983276Y-81814284D01*
X164973500Y-81765623D01*
X164973500Y-80160086D01*
X164993502Y-80091965D01*
X165047158Y-80045472D01*
X165117432Y-80035368D01*
X165166456Y-80053348D01*
X165235271Y-80096515D01*
X165242807Y-80100556D01*
X165484520Y-80209694D01*
X165492551Y-80212680D01*
X165746832Y-80288002D01*
X165755184Y-80289869D01*
X166017340Y-80329984D01*
X166025874Y-80330700D01*
X166291045Y-80334867D01*
X166299596Y-80334418D01*
X166562883Y-80302557D01*
X166571284Y-80300955D01*
X166827824Y-80233653D01*
X166835926Y-80230926D01*
X167080949Y-80129434D01*
X167088617Y-80125628D01*
X167317598Y-79991822D01*
X167324679Y-79987009D01*
X167404655Y-79924301D01*
X167413125Y-79912442D01*
X167406608Y-79900818D01*
X165919885Y-78414095D01*
X165885859Y-78351783D01*
X165887694Y-78326132D01*
X166554408Y-78326132D01*
X166554539Y-78327965D01*
X166558790Y-78334580D01*
X167765730Y-79541520D01*
X167777939Y-79548187D01*
X167789439Y-79539497D01*
X167886831Y-79406913D01*
X167891418Y-79399685D01*
X168017962Y-79166621D01*
X168021530Y-79158827D01*
X168115271Y-78910750D01*
X168117748Y-78902544D01*
X168176954Y-78644038D01*
X168178294Y-78635577D01*
X168202031Y-78369616D01*
X168202277Y-78364677D01*
X168202666Y-78327485D01*
X168202523Y-78322519D01*
X168184362Y-78056123D01*
X168183201Y-78047649D01*
X168129419Y-77787944D01*
X168127120Y-77779709D01*
X168038588Y-77529705D01*
X168035191Y-77521854D01*
X167913550Y-77286178D01*
X167909122Y-77278866D01*
X167790031Y-77109417D01*
X167779509Y-77101037D01*
X167766121Y-77108089D01*
X166562022Y-78312188D01*
X166554408Y-78326132D01*
X165887694Y-78326132D01*
X165890924Y-78280968D01*
X165919885Y-78235905D01*
X167406604Y-76749186D01*
X167413795Y-76736017D01*
X167396742Y-76712177D01*
X167398074Y-76711224D01*
X167369931Y-76670021D01*
X167367938Y-76599052D01*
X167404631Y-76538273D01*
X167468358Y-76506979D01*
X167500765Y-76505624D01*
X167634514Y-76517326D01*
X167645475Y-76517326D01*
X167853804Y-76499099D01*
X167864599Y-76497196D01*
X168066595Y-76443072D01*
X168076887Y-76439326D01*
X168266416Y-76350947D01*
X168275912Y-76345464D01*
X168317148Y-76316590D01*
X168325523Y-76306112D01*
X168318457Y-76292668D01*
X167652811Y-75627021D01*
X167638868Y-75619408D01*
X167637034Y-75619539D01*
X167630420Y-75623790D01*
X166960820Y-76293391D01*
X166939167Y-76333045D01*
X166936031Y-76347465D01*
X166885832Y-76397670D01*
X166816458Y-76412765D01*
X166790921Y-76408265D01*
X166612592Y-76357467D01*
X166604214Y-76355685D01*
X166341656Y-76318318D01*
X166333111Y-76317691D01*
X166067908Y-76316302D01*
X166059374Y-76316839D01*
X165796433Y-76351456D01*
X165788035Y-76353149D01*
X165532238Y-76423127D01*
X165524143Y-76425946D01*
X165280199Y-76529997D01*
X165272576Y-76533881D01*
X165164206Y-76598739D01*
X165095482Y-76616559D01*
X165028034Y-76594395D01*
X164983276Y-76539284D01*
X164973500Y-76490623D01*
X164973500Y-75260475D01*
X166377674Y-75260475D01*
X166395901Y-75468804D01*
X166397804Y-75479599D01*
X166451928Y-75681595D01*
X166455674Y-75691887D01*
X166544054Y-75881417D01*
X166549534Y-75890907D01*
X166578411Y-75932149D01*
X166588887Y-75940523D01*
X166602334Y-75933455D01*
X167267979Y-75267811D01*
X167275592Y-75253868D01*
X167275461Y-75252034D01*
X167271210Y-75245420D01*
X166601609Y-74575820D01*
X166589839Y-74569393D01*
X166577824Y-74578689D01*
X166549534Y-74619093D01*
X166544054Y-74628583D01*
X166455674Y-74818113D01*
X166451928Y-74828405D01*
X166397804Y-75030401D01*
X166395901Y-75041196D01*
X166377674Y-75249525D01*
X166377674Y-75260475D01*
X164973500Y-75260475D01*
X164973500Y-67020086D01*
X164993502Y-66951965D01*
X165047158Y-66905472D01*
X165117432Y-66895368D01*
X165166456Y-66913348D01*
G37*
G04 #@! TD.AperFunction*
G04 #@! TA.AperFunction,Conductor*
G36*
X195101121Y-80673502D02*
G01*
X195147614Y-80727158D01*
X195159000Y-80779500D01*
X195159000Y-80866467D01*
X195165755Y-80928649D01*
X195216885Y-81065038D01*
X195304239Y-81181594D01*
X195311419Y-81186975D01*
X195315706Y-81191262D01*
X195349732Y-81253574D01*
X195344667Y-81324389D01*
X195315706Y-81369452D01*
X195299215Y-81385943D01*
X195222714Y-81488018D01*
X195214176Y-81503613D01*
X195169022Y-81624061D01*
X195165395Y-81639316D01*
X195159869Y-81690181D01*
X195159500Y-81696995D01*
X195159500Y-82392885D01*
X195163975Y-82408124D01*
X195165365Y-82409329D01*
X195173048Y-82411000D01*
X197535500Y-82411000D01*
X197603621Y-82431002D01*
X197650114Y-82484658D01*
X197661500Y-82537000D01*
X197661500Y-82793000D01*
X197641498Y-82861121D01*
X197587842Y-82907614D01*
X197535500Y-82919000D01*
X195177616Y-82919000D01*
X195162377Y-82923475D01*
X195161172Y-82924865D01*
X195159501Y-82932548D01*
X195159501Y-83633002D01*
X195159871Y-83639823D01*
X195165395Y-83690685D01*
X195169021Y-83705937D01*
X195214176Y-83826387D01*
X195222714Y-83841982D01*
X195299215Y-83944057D01*
X195315706Y-83960548D01*
X195349732Y-84022860D01*
X195344667Y-84093675D01*
X195315706Y-84138738D01*
X195311419Y-84143025D01*
X195304239Y-84148406D01*
X195298858Y-84155586D01*
X195298857Y-84155587D01*
X195230758Y-84246451D01*
X195173899Y-84288966D01*
X195115014Y-84296000D01*
X194955164Y-84276939D01*
X194955162Y-84276938D01*
X194950680Y-84276404D01*
X194950774Y-84275617D01*
X194888140Y-84256750D01*
X194842023Y-84202771D01*
X194830999Y-84151230D01*
X194830999Y-80780743D01*
X194851001Y-80712622D01*
X194904657Y-80666129D01*
X194953591Y-80654789D01*
X194994761Y-80653675D01*
X194999541Y-80653546D01*
X195002948Y-80653500D01*
X195033000Y-80653500D01*
X195101121Y-80673502D01*
G37*
G04 #@! TD.AperFunction*
G04 #@! TA.AperFunction,Conductor*
G36*
X194306396Y-63393502D02*
G01*
X194352889Y-63447158D01*
X194362993Y-63517432D01*
X194352564Y-63552547D01*
X194300688Y-63664305D01*
X194240989Y-63879570D01*
X194217251Y-64101695D01*
X194230110Y-64324715D01*
X194231247Y-64329761D01*
X194231248Y-64329767D01*
X194231459Y-64330702D01*
X194279222Y-64542639D01*
X194363266Y-64749616D01*
X194414509Y-64833238D01*
X194477291Y-64935688D01*
X194479987Y-64940088D01*
X194626250Y-65108938D01*
X194798126Y-65251632D01*
X194991000Y-65364338D01*
X195199692Y-65444030D01*
X195204760Y-65445061D01*
X195204763Y-65445062D01*
X195312017Y-65466883D01*
X195418597Y-65488567D01*
X195423772Y-65488757D01*
X195423774Y-65488757D01*
X195636673Y-65496564D01*
X195636677Y-65496564D01*
X195641837Y-65496753D01*
X195646957Y-65496097D01*
X195646959Y-65496097D01*
X195858288Y-65469025D01*
X195858289Y-65469025D01*
X195863416Y-65468368D01*
X195868366Y-65466883D01*
X196072429Y-65405661D01*
X196072434Y-65405659D01*
X196077384Y-65404174D01*
X196277994Y-65305896D01*
X196459860Y-65176173D01*
X196618096Y-65018489D01*
X196677594Y-64935689D01*
X196748453Y-64837077D01*
X196749776Y-64838028D01*
X196796645Y-64794857D01*
X196866580Y-64782625D01*
X196932026Y-64810144D01*
X196959875Y-64841994D01*
X197019987Y-64940088D01*
X197166250Y-65108938D01*
X197338126Y-65251632D01*
X197353470Y-65260598D01*
X197411445Y-65294476D01*
X197460169Y-65346114D01*
X197473240Y-65415897D01*
X197446509Y-65481669D01*
X197406055Y-65515027D01*
X197393607Y-65521507D01*
X197389474Y-65524610D01*
X197389471Y-65524612D01*
X197362000Y-65545238D01*
X197214965Y-65655635D01*
X197060629Y-65817138D01*
X196934743Y-66001680D01*
X196840688Y-66204305D01*
X196780989Y-66419570D01*
X196757251Y-66641695D01*
X196757548Y-66646848D01*
X196757548Y-66646851D01*
X196761856Y-66721566D01*
X196770110Y-66864715D01*
X196771247Y-66869761D01*
X196771248Y-66869767D01*
X196789773Y-66951965D01*
X196819222Y-67082639D01*
X196871337Y-67210984D01*
X196899825Y-67281141D01*
X196903266Y-67289616D01*
X196918185Y-67313962D01*
X197000001Y-67447473D01*
X197019987Y-67480088D01*
X197023367Y-67483990D01*
X197030112Y-67491777D01*
X197166250Y-67648938D01*
X197338126Y-67791632D01*
X197391676Y-67822924D01*
X197411445Y-67834476D01*
X197460169Y-67886114D01*
X197473240Y-67955897D01*
X197446509Y-68021669D01*
X197406055Y-68055027D01*
X197393607Y-68061507D01*
X197389474Y-68064610D01*
X197389471Y-68064612D01*
X197234779Y-68180758D01*
X197214965Y-68195635D01*
X197211393Y-68199373D01*
X197071084Y-68346198D01*
X197060629Y-68357138D01*
X197057715Y-68361410D01*
X197057714Y-68361411D01*
X196999183Y-68447214D01*
X196934743Y-68541680D01*
X196840688Y-68744305D01*
X196780989Y-68959570D01*
X196757251Y-69181695D01*
X196757548Y-69186848D01*
X196757548Y-69186851D01*
X196766454Y-69341307D01*
X196770110Y-69404715D01*
X196771247Y-69409761D01*
X196771248Y-69409767D01*
X196792936Y-69505999D01*
X196819222Y-69622639D01*
X196833904Y-69658796D01*
X196900547Y-69822919D01*
X196903266Y-69829616D01*
X196927315Y-69868861D01*
X197005540Y-69996512D01*
X197019987Y-70020088D01*
X197166250Y-70188938D01*
X197170225Y-70192238D01*
X197170231Y-70192244D01*
X197175425Y-70196556D01*
X197215059Y-70255460D01*
X197216555Y-70326441D01*
X197179439Y-70386962D01*
X197139168Y-70411480D01*
X197031946Y-70451676D01*
X197016351Y-70460214D01*
X196914276Y-70536715D01*
X196901715Y-70549276D01*
X196825214Y-70651351D01*
X196816676Y-70666946D01*
X196771522Y-70787394D01*
X196767895Y-70802649D01*
X196762369Y-70853514D01*
X196762000Y-70860328D01*
X196762000Y-71482885D01*
X196766475Y-71498124D01*
X196767865Y-71499329D01*
X196775548Y-71501000D01*
X198248000Y-71501000D01*
X198316121Y-71521002D01*
X198362614Y-71574658D01*
X198374000Y-71627000D01*
X198374000Y-73094884D01*
X198378475Y-73110123D01*
X198379865Y-73111328D01*
X198387548Y-73112999D01*
X198755500Y-73112999D01*
X198823621Y-73133001D01*
X198870114Y-73186657D01*
X198881500Y-73238999D01*
X198881500Y-75567167D01*
X198861498Y-75635288D01*
X198807842Y-75681781D01*
X198755500Y-75693167D01*
X195619366Y-75693167D01*
X195557184Y-75699922D01*
X195420795Y-75751052D01*
X195304239Y-75838406D01*
X195216885Y-75954962D01*
X195165755Y-76091351D01*
X195159000Y-76153533D01*
X195159000Y-77577905D01*
X195138998Y-77646026D01*
X195122095Y-77667000D01*
X195046094Y-77743001D01*
X194983782Y-77777027D01*
X194912967Y-77771962D01*
X194856131Y-77729415D01*
X194831320Y-77662895D01*
X194830999Y-77653906D01*
X194830999Y-74378564D01*
X194832432Y-74359615D01*
X194834596Y-74345387D01*
X194835697Y-74338152D01*
X194834583Y-74324448D01*
X194831414Y-74285492D01*
X194830999Y-74275278D01*
X194830999Y-74267208D01*
X194830577Y-74263588D01*
X194830576Y-74263570D01*
X194827707Y-74238962D01*
X194827274Y-74234587D01*
X194826324Y-74222899D01*
X194823925Y-74193411D01*
X194821953Y-74169162D01*
X194821952Y-74169159D01*
X194821359Y-74161864D01*
X194819103Y-74154900D01*
X194817912Y-74148941D01*
X194816528Y-74143086D01*
X194815681Y-74135820D01*
X194790764Y-74067174D01*
X194789347Y-74063046D01*
X194769106Y-74000565D01*
X194769105Y-74000563D01*
X194766850Y-73993602D01*
X194763054Y-73987347D01*
X194760548Y-73981873D01*
X194757829Y-73976443D01*
X194755332Y-73969564D01*
X194715308Y-73908517D01*
X194712971Y-73904813D01*
X194704639Y-73891081D01*
X194695020Y-73875230D01*
X194678008Y-73847194D01*
X194678004Y-73847189D01*
X194675094Y-73842393D01*
X194667696Y-73834017D01*
X194667722Y-73833994D01*
X194665073Y-73831004D01*
X194662365Y-73827765D01*
X194658355Y-73821649D01*
X194653048Y-73816622D01*
X194653045Y-73816618D01*
X194602116Y-73768373D01*
X194599674Y-73765995D01*
X193483348Y-72649669D01*
X196762001Y-72649669D01*
X196762371Y-72656490D01*
X196767895Y-72707352D01*
X196771521Y-72722604D01*
X196816676Y-72843054D01*
X196825214Y-72858649D01*
X196901715Y-72960724D01*
X196914276Y-72973285D01*
X197016351Y-73049786D01*
X197031946Y-73058324D01*
X197152394Y-73103478D01*
X197167649Y-73107105D01*
X197218514Y-73112631D01*
X197225328Y-73113000D01*
X197847885Y-73113000D01*
X197863124Y-73108525D01*
X197864329Y-73107135D01*
X197866000Y-73099452D01*
X197866000Y-72027115D01*
X197861525Y-72011876D01*
X197860135Y-72010671D01*
X197852452Y-72009000D01*
X196780116Y-72009000D01*
X196764877Y-72013475D01*
X196763672Y-72014865D01*
X196762001Y-72022548D01*
X196762001Y-72649669D01*
X193483348Y-72649669D01*
X191576406Y-70742727D01*
X191552779Y-70709358D01*
X191551243Y-70704948D01*
X191547512Y-70698977D01*
X191547510Y-70698973D01*
X191458857Y-70557098D01*
X191455124Y-70551124D01*
X191434464Y-70530319D01*
X191332276Y-70427415D01*
X191332272Y-70427412D01*
X191327313Y-70422418D01*
X191310078Y-70411480D01*
X191180117Y-70329005D01*
X191180118Y-70329005D01*
X191174164Y-70325227D01*
X191167524Y-70322863D01*
X191165030Y-70321646D01*
X191131173Y-70297494D01*
X190892503Y-70058824D01*
X190858477Y-69996512D01*
X190863542Y-69925697D01*
X190906089Y-69868861D01*
X190972609Y-69844050D01*
X190981598Y-69843729D01*
X190985000Y-69843729D01*
X191016986Y-69841441D01*
X191051373Y-69838982D01*
X191051374Y-69838982D01*
X191058111Y-69838500D01*
X191094440Y-69827833D01*
X191147868Y-69824012D01*
X191285000Y-69843729D01*
X191772322Y-69843729D01*
X191774630Y-69843750D01*
X191838020Y-69844912D01*
X191865382Y-69841504D01*
X191978128Y-69827460D01*
X191978132Y-69827459D01*
X191982565Y-69826907D01*
X192120745Y-69789234D01*
X192124862Y-69787452D01*
X192124866Y-69787451D01*
X192250296Y-69733173D01*
X192250301Y-69733171D01*
X192254420Y-69731388D01*
X192376472Y-69656448D01*
X192411431Y-69627425D01*
X192485093Y-69566270D01*
X192485095Y-69566268D01*
X192488540Y-69563408D01*
X192584654Y-69457224D01*
X192616664Y-69409767D01*
X192663599Y-69340183D01*
X192663602Y-69340178D01*
X192666107Y-69336464D01*
X192728554Y-69207572D01*
X192772838Y-69068812D01*
X192796600Y-68927574D01*
X192803682Y-68848627D01*
X192803833Y-68836285D01*
X192798995Y-68761964D01*
X192798729Y-68753779D01*
X192798729Y-68409481D01*
X192799233Y-68398223D01*
X192799589Y-68394249D01*
X192803682Y-68348627D01*
X192803833Y-68336285D01*
X192800260Y-68281390D01*
X192798841Y-68259592D01*
X192798840Y-68259582D01*
X192798683Y-68257171D01*
X192790406Y-68199373D01*
X192779016Y-68119839D01*
X192779015Y-68119833D01*
X192778379Y-68115394D01*
X192769472Y-68084933D01*
X192738755Y-67979892D01*
X192737497Y-67975590D01*
X192678217Y-67845211D01*
X192675805Y-67841440D01*
X192675801Y-67841432D01*
X192602157Y-67726279D01*
X192602156Y-67726278D01*
X192599742Y-67722503D01*
X192506252Y-67614002D01*
X192502872Y-67611053D01*
X192461670Y-67575110D01*
X192423486Y-67515256D01*
X192418500Y-67480162D01*
X192418500Y-67403763D01*
X192419027Y-67392579D01*
X192420701Y-67385091D01*
X192418562Y-67317032D01*
X192418500Y-67313075D01*
X192418500Y-67285144D01*
X192417994Y-67281138D01*
X192417061Y-67269292D01*
X192415922Y-67233037D01*
X192415673Y-67225110D01*
X192410022Y-67205658D01*
X192406014Y-67186306D01*
X192404467Y-67174063D01*
X192403474Y-67166203D01*
X192400556Y-67158832D01*
X192387200Y-67125097D01*
X192383355Y-67113870D01*
X192378018Y-67095500D01*
X192371018Y-67071407D01*
X192366984Y-67064585D01*
X192366981Y-67064579D01*
X192360706Y-67053968D01*
X192352010Y-67036218D01*
X192347472Y-67024756D01*
X192347469Y-67024751D01*
X192344552Y-67017383D01*
X192328375Y-66995117D01*
X192318573Y-66981625D01*
X192312057Y-66971707D01*
X192293575Y-66940457D01*
X192289542Y-66933637D01*
X192275218Y-66919313D01*
X192262376Y-66904278D01*
X192250472Y-66887893D01*
X192216406Y-66859711D01*
X192207627Y-66851722D01*
X191678738Y-66322833D01*
X191644712Y-66260521D01*
X191641833Y-66233738D01*
X191641833Y-63499500D01*
X191661835Y-63431379D01*
X191715491Y-63384886D01*
X191767833Y-63373500D01*
X194238275Y-63373500D01*
X194306396Y-63393502D01*
G37*
G04 #@! TD.AperFunction*
G04 #@! TA.AperFunction,Conductor*
G36*
X187636121Y-64613502D02*
G01*
X187682614Y-64667158D01*
X187694000Y-64719500D01*
X187694000Y-67077384D01*
X187698475Y-67092623D01*
X187699865Y-67093828D01*
X187707548Y-67095499D01*
X188408002Y-67095499D01*
X188414823Y-67095129D01*
X188465685Y-67089605D01*
X188480937Y-67085979D01*
X188601387Y-67040824D01*
X188616982Y-67032286D01*
X188719057Y-66955785D01*
X188735548Y-66939294D01*
X188797860Y-66905268D01*
X188868675Y-66910333D01*
X188913738Y-66939294D01*
X188918025Y-66943581D01*
X188923406Y-66950761D01*
X188930586Y-66956142D01*
X188930587Y-66956143D01*
X189021911Y-67024587D01*
X189064426Y-67081447D01*
X189071352Y-67141205D01*
X189051463Y-67298640D01*
X189069163Y-67479160D01*
X189126418Y-67651273D01*
X189130065Y-67657295D01*
X189130066Y-67657297D01*
X189213276Y-67794694D01*
X189231500Y-67859965D01*
X189231500Y-68084933D01*
X189230973Y-68096118D01*
X189229298Y-68103609D01*
X189229396Y-68106723D01*
X189203868Y-68170671D01*
X189146076Y-68211910D01*
X189075163Y-68215357D01*
X189015654Y-68181975D01*
X188924768Y-68091089D01*
X188912382Y-68076677D01*
X188903849Y-68065082D01*
X188903844Y-68065077D01*
X188899506Y-68059182D01*
X188893928Y-68054443D01*
X188893925Y-68054440D01*
X188859230Y-68024965D01*
X188851714Y-68018035D01*
X188846019Y-68012340D01*
X188839878Y-68007482D01*
X188823747Y-67994719D01*
X188820343Y-67991928D01*
X188770295Y-67949409D01*
X188770293Y-67949408D01*
X188764713Y-67944667D01*
X188758197Y-67941339D01*
X188753148Y-67937972D01*
X188748019Y-67934805D01*
X188742282Y-67930266D01*
X188676123Y-67899345D01*
X188672223Y-67897439D01*
X188607190Y-67864231D01*
X188600082Y-67862492D01*
X188594439Y-67860393D01*
X188588676Y-67858476D01*
X188582048Y-67855378D01*
X188510581Y-67840513D01*
X188506297Y-67839543D01*
X188435388Y-67822192D01*
X188429786Y-67821844D01*
X188429783Y-67821844D01*
X188424234Y-67821500D01*
X188424236Y-67821464D01*
X188420243Y-67821225D01*
X188416051Y-67820851D01*
X188408883Y-67819360D01*
X188342673Y-67821151D01*
X188331477Y-67821454D01*
X188328070Y-67821500D01*
X185554500Y-67821500D01*
X185486379Y-67801498D01*
X185439886Y-67747842D01*
X185428500Y-67695500D01*
X185428500Y-67222000D01*
X185448502Y-67153879D01*
X185502158Y-67107386D01*
X185554500Y-67096000D01*
X185641467Y-67096000D01*
X185703649Y-67089245D01*
X185840038Y-67038115D01*
X185956594Y-66950761D01*
X185961975Y-66943581D01*
X185966262Y-66939294D01*
X186028574Y-66905268D01*
X186099389Y-66910333D01*
X186144452Y-66939294D01*
X186160943Y-66955785D01*
X186263018Y-67032286D01*
X186278613Y-67040824D01*
X186399061Y-67085978D01*
X186414316Y-67089605D01*
X186465181Y-67095131D01*
X186471995Y-67095500D01*
X187167885Y-67095500D01*
X187183124Y-67091025D01*
X187184329Y-67089635D01*
X187186000Y-67081952D01*
X187186000Y-64719500D01*
X187206002Y-64651379D01*
X187259658Y-64604886D01*
X187312000Y-64593500D01*
X187568000Y-64593500D01*
X187636121Y-64613502D01*
G37*
G04 #@! TD.AperFunction*
G04 #@! TA.AperFunction,Conductor*
G36*
X169873424Y-63393502D02*
G01*
X169919917Y-63447158D01*
X169930021Y-63517432D01*
X169906129Y-63575065D01*
X169837714Y-63666351D01*
X169829176Y-63681946D01*
X169784022Y-63802394D01*
X169780395Y-63817649D01*
X169774869Y-63868514D01*
X169774500Y-63875328D01*
X169774500Y-64497885D01*
X169778975Y-64513124D01*
X169780365Y-64514329D01*
X169788048Y-64516000D01*
X171260500Y-64516000D01*
X171328621Y-64536002D01*
X171375114Y-64589658D01*
X171386500Y-64642000D01*
X171386500Y-64898000D01*
X171366498Y-64966121D01*
X171312842Y-65012614D01*
X171260500Y-65024000D01*
X169792616Y-65024000D01*
X169777377Y-65028475D01*
X169776172Y-65029865D01*
X169774501Y-65037548D01*
X169774501Y-65664669D01*
X169774871Y-65671490D01*
X169780395Y-65722352D01*
X169784021Y-65737604D01*
X169829176Y-65858054D01*
X169837714Y-65873649D01*
X169914215Y-65975724D01*
X169926776Y-65988285D01*
X170028851Y-66064786D01*
X170044446Y-66073324D01*
X170164894Y-66118478D01*
X170180149Y-66122105D01*
X170231014Y-66127631D01*
X170237828Y-66128000D01*
X170937630Y-66127999D01*
X171005751Y-66148001D01*
X171052244Y-66201657D01*
X171062348Y-66271930D01*
X171032855Y-66336511D01*
X171026725Y-66343094D01*
X169588367Y-67781452D01*
X169526055Y-67815478D01*
X169508991Y-67817781D01*
X169503702Y-67817453D01*
X169490740Y-67819680D01*
X169469404Y-67821500D01*
X168906727Y-67821500D01*
X168838606Y-67801498D01*
X168792532Y-67748750D01*
X168736382Y-67628334D01*
X168736379Y-67628329D01*
X168734056Y-67623347D01*
X168676657Y-67541373D01*
X168610908Y-67447473D01*
X168610906Y-67447470D01*
X168607749Y-67442962D01*
X168452038Y-67287251D01*
X168443313Y-67281141D01*
X168335512Y-67205658D01*
X168271654Y-67160944D01*
X168072076Y-67067880D01*
X167859371Y-67010885D01*
X167640000Y-66991693D01*
X167499777Y-67003961D01*
X167430174Y-66989972D01*
X167379182Y-66940572D01*
X167362991Y-66871447D01*
X167386743Y-66804541D01*
X167400142Y-66790620D01*
X167413125Y-66772442D01*
X167406608Y-66760818D01*
X165919885Y-65274095D01*
X165885859Y-65211783D01*
X165887694Y-65186132D01*
X166554408Y-65186132D01*
X166554539Y-65187965D01*
X166558790Y-65194580D01*
X167765730Y-66401520D01*
X167777939Y-66408187D01*
X167789439Y-66399497D01*
X167886831Y-66266913D01*
X167891418Y-66259685D01*
X168017962Y-66026621D01*
X168021530Y-66018827D01*
X168115271Y-65770750D01*
X168117748Y-65762544D01*
X168176954Y-65504038D01*
X168178294Y-65495577D01*
X168202031Y-65229616D01*
X168202277Y-65224677D01*
X168202666Y-65187485D01*
X168202523Y-65182519D01*
X168184362Y-64916123D01*
X168183201Y-64907649D01*
X168129419Y-64647944D01*
X168127120Y-64639709D01*
X168038588Y-64389705D01*
X168035191Y-64381854D01*
X167913550Y-64146178D01*
X167909122Y-64138866D01*
X167790031Y-63969417D01*
X167779509Y-63961037D01*
X167766121Y-63968089D01*
X166562022Y-65172188D01*
X166554408Y-65186132D01*
X165887694Y-65186132D01*
X165890924Y-65140968D01*
X165919885Y-65095905D01*
X167406604Y-63609186D01*
X167413796Y-63596016D01*
X167397193Y-63572806D01*
X167373829Y-63505764D01*
X167390419Y-63436733D01*
X167441697Y-63387630D01*
X167499673Y-63373500D01*
X169805303Y-63373500D01*
X169873424Y-63393502D01*
G37*
G04 #@! TD.AperFunction*
M02*
